<?xml version="1.0" encoding="utf-8"?>
<!-- Generator: Adobe Illustrator 16.0.3, SVG Export Plug-In . SVG Version: 6.00 Build 0)  -->
<!DOCTYPE svg PUBLIC "-//W3C//DTD SVG 1.1//EN" "http://www.w3.org/Graphics/SVG/1.1/DTD/svg11.dtd">
<svg version="1.1" id="Capa_1" xmlns="http://www.w3.org/2000/svg" xmlns:xlink="http://www.w3.org/1999/xlink" x="0px" y="0px"
	 width="255.4px" height="105px" viewBox="0 0 255.4 105" style="enable-background:new 0 0 255.4 105;" xml:space="preserve">
<g>
	<g>
		<g>
			<linearGradient id="SVGID_1_" gradientUnits="userSpaceOnUse" x1="79.5444" y1="33.833" x2="79.5444" y2="34.5127">
				<stop  offset="0" style="stop-color:#1A8FCF"/>
				<stop  offset="0.511" style="stop-color:#80BE41"/>
				<stop  offset="1" style="stop-color:#8B2B25"/>
			</linearGradient>
			<path style="fill-rule:evenodd;clip-rule:evenodd;fill:url(#SVGID_1_);" d="M79,34c0.4-0.5,0.6,0.4,1,0.3
				C79.9,34.9,79.4,34.1,79,34z"/>
			<linearGradient id="SVGID_2_" gradientUnits="userSpaceOnUse" x1="56.5767" y1="49.75" x2="56.5767" y2="49.9453">
				<stop  offset="0" style="stop-color:#1A8FCF"/>
				<stop  offset="0.511" style="stop-color:#80BE41"/>
				<stop  offset="1" style="stop-color:#8B2B25"/>
			</linearGradient>
			<path style="fill-rule:evenodd;clip-rule:evenodd;fill:url(#SVGID_2_);" d="M57.3,49.8C55.5,50.2,55.2,49.6,57.3,49.8L57.3,49.8z
				"/>
			<linearGradient id="SVGID_3_" gradientUnits="userSpaceOnUse" x1="37.5435" y1="25.8828" x2="37.5435" y2="79.1177">
				<stop  offset="0" style="stop-color:#1A8FCF"/>
				<stop  offset="0.511" style="stop-color:#80BE41"/>
				<stop  offset="1" style="stop-color:#8B2B25"/>
			</linearGradient>
			<path style="fill-rule:evenodd;clip-rule:evenodd;fill:url(#SVGID_3_);" d="M2.7,68.3c0.8-1.1,0.6-3.1,1.2-4.5
				c0.6-0.7,1.8-1.6,1.7-2.6c0.4,0,0.9-0.2,1-0.9c0.4-0.1,0.3,0.3,0.7,0.1c7.5-5.1,17.4-7.7,28.1-9.6c0.4,0.1,0.5,0,0.7,0.4
				c1-0.3,2.3-0.2,3.3-0.4c-0.1-0.3-0.7-0.1-1-0.1c0-0.2,1.3-0.3,2-0.3c-0.1,0.3-0.8,0-0.9,0.3c0.3,0.4,0.7-0.2,1.2,0
				c1-2.6,1.1-6.1,1.7-9.1c-0.9-0.6-2-1.1-2.6-2c0.5-0.4,0.6-1.8,0.7-2.5c0.6-0.2,1.4-0.4,1.4-1.2c0.4,0,0.8,0,1.2,0
				c0.8-1.4,0.9-4,1.2-5.4c-2.2-0.8-4.3,0.9-5.1,2.5c-0.5-0.4-0.8-0.1-1-0.1c0-0.7,1.1-0.4,1-1.2c-0.6-0.5-0.9,0.4-1.3,0.6
				c0.1-1,1.2-1.2,1.7-2c-1.1-0.6-1.7,1.4-2.9,1.2c-0.1-0.6,0.5,0.2,0.7-0.3c0.1-0.4-0.7-0.7-0.3-1c0.6,0,0,0.2,0.3,0.4
				c0.7-0.3,1.1-0.9,1.7-1.3c-0.4-0.3-0.9,0.6-1.6,0.6c0.3-1.1,1.9-1,2.5-1.9c-0.7,0.1-1.3,0.3-1.6,0.7c-0.5-0.5,0.3-1,0.4-1.4
				c0.2,0.2,0.6,0.4,1.2,0.3c2.1-1.3,5.7-1.3,8.4-1.7c0.1,0.3,0.5,0.3,0.7,0.4c2.5,0.1,4.4,0.4,6.7,1.2c3.2,1.1,5.4,2.7,7.2,5.2
				c1.1,1.6,2,3.8,0.4,5.7c-2.2,0.4-3.4,1.8-5.8,2c-0.4,0.4,0.3,0.3,0.1,0.9c-0.5-0.1-0.6,0.2-1.2,0.1c2.5,2.5,5.2,4.7,7.4,7.5
				c2.7,0.1,5.3,0,8.1,0.3c-0.3,0-0.7,0-1,0c-2.1,0.5-4.1-0.3-5.9,0.1c0.1,0.5,1.2,0.2,1.7,0.3c0.5,0.9,3.8,0.1,5.2,0.6
				c-1.7,0-3.2,0.1-4.9,0.7c0.6,0.4,1.1,0.1,2,0.1c-0.6,0.8-3.1-0.3-3.5,1.3c-0.2,1,1.1,4,1.2,5.2c0.5,5.2-2,8.5-4.3,11
				c0,0.3,0,0.6-0.1,0.7c-3,2.5-7.2,3.9-11.1,5.5c-0.1,0.2,0.1,0.3,0.3,0.3c0.1,0.4-0.7-0.1-0.6,0.3c-0.2-0.1,0-0.1,0-0.3
				c-12,4.5-34.7,6.4-45.3-0.9C5.1,73,4.1,72,3.3,70.8C3.5,69.9,3,69.1,2.7,68.3z M47.3,29.8c1.1,1.6-1,5.6,0,7.1
				c0.9,0.1,1.9,0.9,2.9,0.4c-0.1-0.2-1.2-0.2-0.7-0.4c0.6,0.2,1.4,0,1.9,0.3c-0.2,0.1-0.7-0.2-0.7,0.1c1.5,0.3,4.6,0.6,6.1-0.3
				c-1.4-0.5-3.3,0.6-4.8,0c2-0.5,7.8,0.4,9.1-2.5C58.5,31.1,53.1,29.3,47.3,29.8z M59.6,49.3c-4,0.1-8,0.1-11.7,0.7
				c1.4,0.2,2.3,0,4.8-0.1c-0.1,0.3-0.4,0.1-0.1,0.4c2.4-0.4,6,0.2,7.5-0.6c-1.1-0.1-2.3,0.2-2.6,0C57.9,49.4,59.4,50,59.6,49.3z
				 M59.2,49.1c-3.1-3.2-6.4-7.4-13-7.1c-0.6,2.4-1,5-1.2,7.8c1.3-0.3,4.2,0.4,4.3-0.4C52.7,49.5,55.7,48.8,59.2,49.1z M44.1,54.6
				c-0.7,4.1-0.9,9.4-1.2,13.6c-0.1,1.1-0.2,3.6-1.2,3.8c-1.1,0.3-1.6-1.5-1.7-2c-0.8-4.3,0.3-11.4,0.4-15.1
				c-12.4,1.2-23.1,4.2-31.3,9.7C9,66,7,66.7,7.1,68.2c0,0.9,1.7,2.4,2.7,3c4.8,2.9,14,3.6,20.9,3c9.4-0.7,20.5-2.9,26.5-6.8
				c1.3-0.9,3-1.7,3.8-2.8c0.4-1.3,1.5-2.4,2-4.1c1-3,0.3-6.3-1.3-8.4C56.7,53.7,49.6,52.9,44.1,54.6z"/>
			<linearGradient id="SVGID_4_" gradientUnits="userSpaceOnUse" x1="82.0771" y1="32.9844" x2="82.0771" y2="37.6592">
				<stop  offset="0" style="stop-color:#1A8FCF"/>
				<stop  offset="0.511" style="stop-color:#80BE41"/>
				<stop  offset="1" style="stop-color:#8B2B25"/>
			</linearGradient>
			<path style="fill-rule:evenodd;clip-rule:evenodd;fill:url(#SVGID_4_);" d="M82.1,33c0.6,0.4,1.3,1.3,2,1.2
				c0.4,0.7,0.5,1.6,0.7,2.5c-0.9,1.1-3.1,1.6-4.2,0.3c0-0.4,0.1-0.9-0.1-1.2c-0.7,0.2-1,0.4-1.2-0.4c0.7-0.1,0.9,0,1.3-0.1
				c0.1-0.6-0.6-0.7,0-1c-0.2-0.4-0.9-0.4-0.9-1c1.2,0.1,1.3,0.2,2.6,0.6C82.5,33.3,82,33.4,82.1,33z"/>
			<linearGradient id="SVGID_5_" gradientUnits="userSpaceOnUse" x1="70.1177" y1="49.4634" x2="70.1177" y2="49.9238">
				<stop  offset="0" style="stop-color:#1A8FCF"/>
				<stop  offset="0.511" style="stop-color:#80BE41"/>
				<stop  offset="1" style="stop-color:#8B2B25"/>
			</linearGradient>
			<path style="fill-rule:evenodd;clip-rule:evenodd;fill:url(#SVGID_5_);" d="M72.5,49.9c-0.9-0.3-2.5,0.1-3.3-0.3
				c-0.3,0.3-0.8-0.2-1.4,0c-0.3-0.2,1.5-0.2,1.7,0c0.4,0.1,0.4-0.2,0.9-0.1C70.9,49.8,72.3,49.3,72.5,49.9z"/>
			<linearGradient id="SVGID_6_" gradientUnits="userSpaceOnUse" x1="91.855" y1="40.5117" x2="91.855" y2="67.1489">
				<stop  offset="0" style="stop-color:#1A8FCF"/>
				<stop  offset="0.511" style="stop-color:#80BE41"/>
				<stop  offset="1" style="stop-color:#8B2B25"/>
			</linearGradient>
			<path style="fill-rule:evenodd;clip-rule:evenodd;fill:url(#SVGID_6_);" d="M90.8,42.3c-0.2,0-0.2-0.1-0.4-0.1
				c0,0.6,0.8,0.4,0.7,1.2c-0.7,0.1-0.1-0.5-0.7-0.6c-0.3,0.4,0,1.2,0.7,1c-0.6,0.7,0.1,1.6,0.6,2c0.6-0.3,0.1-1.2,0.1-1.7
				c0.7,0.6,0.3,2.3,0.9,3c6.3-0.5,12.4-2.6,19.1-3.2c-2.1,0.8-4.9,1-7.1,1.7c2.4-0.2,6.3-1.3,8.7-1c-0.6,0.4-1.5,0.4-2.2,0.7
				c0.6,0.7,1.9-0.5,3.2-0.4c0,0.8-0.9,0.8-1.4,1c0.4,0.8,0.9-0.3,1.4,0.1c-0.2,0.5-0.6,0.7-1.2,0.7c0.1,0.3,0.3,0.4,0.3,0.7
				c-2.7,0.2-7.9,1.8-11.4,2.5c-3,0.6-5.6,0.8-8.4,1.6c1.1,4.5,1.7,9.8-1.9,12.5c-1.8,1.3-4.8,2.5-7.2,2.2c-0.6-0.1-1.4-0.8-2.3-1.2
				c-1.3-0.5-2.3-0.8-2.5-2.5c-2,0.4-3.8,3.5-5.6,4.3c-1.4,0.6-2.9,0.1-4.2-0.3c-0.1-0.5,0.4-1,0-1.4c-0.7-0.2,0.1,0.9-0.6,0.7
				c0.9-7.8,3.9-14.7,6.1-21.6c0.6,0.3,0.4,0.6,0.6,1.2c1-0.5-0.5-1.2,0.4-1.9c0.1-0.5-0.5-0.4-0.4-0.9c0.5,0.1,0.6,0.4,1.2,0.1
				c0.3,0.4-0.6,1.2-0.3,1.6c0.6-0.1,0.4-0.6,0.6-0.9c0.2,0,0.5,0,0.7,0c-0.1,0.8-0.6,1.1-0.7,1.9c0.6,0.3,0.7-1.9,1.4-1.5
				c0.6,0.1-0.5,0.8-0.4,1.3c0,0.2,0.4,0.2,0.4,0c-1.4,4.4-3.5,9.4-4.6,14.5c0.8-0.3,1.6-0.1,2.5-0.6c0,0.4-0.6,0.2-0.6,0.6
				c1.4-1.2,3.8-2.1,4.9-3.6c1.1-1.7,1.3-4,3-5.2c-0.2-0.4-0.8-0.3-1.2-0.6c-3-2-0.8-5.5,1-7.7c0.9-1,1.4-1.8,2.8-2
				c-0.3,0.2-0.7,0.3-0.7,0.7c0.7,0,0.8-0.6,1.3-0.9C88.4,41.2,90,41.3,90.8,42.3z M88.6,44.6c-0.9,0.7-1.9,1.3-2.2,2.6
				c0.6,0.5,1.9,0.2,2.9,0.3C89.1,46.4,89.4,44.9,88.6,44.6z M83.8,52c0.5-0.1,0.9-0.2,0.9-0.9C84.1,51,84,51.5,83.8,52z M70.3,61.8
				c-0.2,1-0.7,2-0.4,2.9c1.2-4,2.1-8.8,3.5-12.9c0-0.1-0.1-0.2-0.3-0.1C72.1,54.8,71.1,58.3,70.3,61.8z M88.9,53.7
				c-1.4,2.8-4.4,3.9-4.2,8.3c4.2,0.3,4-3.8,4.6-7.1c0.1,0.5-0.1,1.7,0,2.6c0.8-0.6,0.3-1.9,0.3-2.9c0-0.8,0.3-1.7,0-2.5
				c-1,0-0.1,1.8-0.4,2C89.2,53.9,89.2,53.6,88.9,53.7z"/>
			<linearGradient id="SVGID_7_" gradientUnits="userSpaceOnUse" x1="15.7407" y1="52.8223" x2="15.7407" y2="60.063">
				<stop  offset="0" style="stop-color:#1A8FCF"/>
				<stop  offset="0.511" style="stop-color:#80BE41"/>
				<stop  offset="1" style="stop-color:#8B2B25"/>
			</linearGradient>
			<path style="fill-rule:evenodd;clip-rule:evenodd;fill:url(#SVGID_7_);" d="M24.1,52.8c-6.1,2-12.3,3.7-16.8,7.2
				c-0.1-0.8,0.9-1,1.4-1.3C13,56.3,18.5,54,24.1,52.8z"/>
		</g>
	</g>
	<g>
		<polygon style="fill:#FFFFFF;" points="113.5,36.9 123.1,36.9 123.1,37.7 120.9,37.7 120.9,70.2 123.3,70.2 123.3,71.1 
			113.3,71.1 113.3,70.2 115.5,70.2 115.5,37.7 113.5,37.7 		"/>
		<path style="fill:#FFFFFF;" d="M124.4,36.9h9v0.8h-2.3l3.8,22l4.4-18c0,0,1-3.3-1.5-3.9l-1.4-0.2v-0.8h7.4v0.8
			c0,0-2.3-0.3-3.1,3.2l-7.4,30.4h-1.3l-4.7-25.8l-1.4-7.8h-1.5V36.9z"/>
		<path style="fill:#FFFFFF;" d="M143.3,36.9h14.3v11h-1.2c0,0,0.1-4.6-0.4-6.4c0,0-0.6-3.9-5-3.8v15.1c0,0-0.1,0.6,1.3-0.3
			c0,0,1.1-0.8,0.8-2.4v-3.4h1.3v14h-1.2c0,0,0-4.1,0-4.1c0,0,0-1.8-1-2.5c0,0-0.3-0.2-1-0.1v16.1c0,0,2.3,0.8,4-2
			c0,0,1.8-2.1,1.5-8.8h1.1V71l-15.2,0l0.1-0.8c0,0,3.2,0,3.2,0c0-2.5,0-6.2,0-6.2l0-10.4c0,0,0-16,0-16h-2.4V36.9z"/>
		<g>
			<g>
				<path style="fill:#FFFFFF;" d="M177.3,65.9h-0.5V69c-0.3,2-1.3,1.5-1.3,1.5c-0.6-0.4-0.4-2.7-0.4-2.7v-7.4
					c0.1-4.9-5.2-6.3-5.2-6.3c2.3-1.2,3.4-2.2,3.4-2.2c4.7-4.6,1.8-10.3,1.8-10.3c-2.2-5-8.6-4.8-8.6-4.8h-7.5v0.8h2.6v32.5l-2.5,0
					v0.8h10.1v-0.8l-2.2,0V57.7c0,0,0-3,0-3c3.4-0.1,3.2,2.4,3.2,2.4c0.2,5.1,0.1,11.3,0.1,11.3c0.3,4.6,4.8,3.2,4.8,3.2
					C178.3,71.5,177.3,65.9,177.3,65.9z M166.9,53.7l0-15.7c0,0,3.2-0.3,3.5,2.2c0,0,1,7.3,0,10.5C170.5,50.7,170,53.8,166.9,53.7z"
					/>
			</g>
		</g>
		<path style="fill:#FFFFFF;" d="M190,36.8h0.9v11l-1,0c0,0-0.5-7-3-9.6c0,0-2.8-3.4-4.8,0.8c0,0-1.4,2.3,3.1,7.9
			c0,0,9,11.4,7.2,18.1c0,0-0.6,4.5-3.6,5.6c0,0-3.3,1.6-6-1.2c0,0-0.8-1.4-1.2-0.4l-1.3,2h-1.1V58.6h1c0,0,0.6,5.8,1.7,7.4
			c0,0.1,2.1,5.2,5.3,4.1c0,0,2.7-0.9,2.2-4.9c0,0,0.1-4.3-6.2-11.4c0,0-6-7.4-2.7-14.9c0,0,2.3-4.6,6.8-1.9l1.3,1.4L190,36.8z"/>
		<path style="fill:#FFFFFF;" d="M250,36.9h0.9v11l-1,0c0,0-0.5-7-3-9.5c0,0-2.9-3.4-4.8,0.8c0,0-1.4,2.3,3.1,7.9
			c0,0,9.1,11.4,7.2,18c0,0-0.6,4.5-3.6,5.6c0,0-3.3,1.6-6-1.2c0,0-0.8-1.4-1.2-0.4l-1.3,2h-1.1V58.7h1c0,0,0.6,5.8,1.7,7.4
			c0,0.1,2.1,5.2,5.4,4.1c0,0,2.7-0.9,2.2-4.9c0,0,0.1-4.3-6.2-11.3c0,0-6-7.4-2.7-14.9c0,0,2.3-4.6,6.9-1.9l1.3,1.4L250,36.9z"/>
		<polygon style="fill:#FFFFFF;" points="193.9,36.9 203.5,36.9 203.5,37.7 201.3,37.7 201.3,70.2 203.7,70.2 203.7,71.1 
			193.6,71.1 193.6,70.2 195.9,70.2 195.9,37.7 193.9,37.7 		"/>
		<path style="fill:#FFFFFF;" d="M205,37h15.5l0,10.2h-0.8c0,0,0.4-5.8-0.9-7.5c0,0-0.9-1.9-3.4-1.9v32.5h2.1v0.8h-9.6l0-0.8h2.3
			V41.8l0.1-4c0,0-1.8-0.3-2.9,1c0,0-2.1,1.5-1.7,8.3H205L205,37z"/>
		<g>
			<g>
				<path style="fill:#FFFFFF;" d="M237.1,70.2l-4.9-33.3h-4.4l-6.6,30.8c-0.4,2.9-2.7,2.4-2.7,2.4V71h7.1v-0.8h-1.2
					c-2-0.4-1.5-3.1-1.5-3.1l1.1-5.6h6.5l1.2,8.7h-2.8l0,0.8h9.7v-0.8H237.1z M224.3,59.9l3.4-17.1h0.3l2.2,17.1H224.3z"/>
			</g>
		</g>
		<path style="fill:#FFFFFF;" d="M94.3,36.9h8.3c0,0,3.4-0.2,5.3,1.9c0,0,1.8,1.6,2.7,3.8l-3.5,0.7c0,0,0-1.4-0.7-3.3
			c0,0-0.3-1.2-2.2-2c0,0-2.2-0.9-2,0.2v6l-5.7,1.2v-7.7h-2.4V36.9z"/>
		<path style="fill:#FFFFFF;" d="M96.5,51.6l5.5-1V69c0,0,0.2,2.4,3.1,0c0,0,1.5-1.5,1.7-8.8c0,0,0.2-4.6,0.1-10.5l5.5-1.3
			c0,0,1.6,11.3-4.1,19c0,0-2.4,3.8-7.4,3.6h-6.8v-0.8h2.3V51.6z"/>
	</g>
</g>
</svg>
