<?xml version="1.0" encoding="utf-8"?>
<!-- Generator: Adobe Illustrator 16.0.3, SVG Export Plug-In . SVG Version: 6.00 Build 0)  -->
<!DOCTYPE svg PUBLIC "-//W3C//DTD SVG 1.1//EN" "http://www.w3.org/Graphics/SVG/1.1/DTD/svg11.dtd">
<svg version="1.1" id="Capa_1" xmlns="http://www.w3.org/2000/svg" xmlns:xlink="http://www.w3.org/1999/xlink" x="0px" y="0px"
	 width="182.8px" height="62px" viewBox="0 -15.1 182.8 62" style="enable-background:new 0 -15.1 182.8 62;" xml:space="preserve">
<g>
	<path style="fill:#FFFFFF;" d="M7.6,30.1c-2.3,0-4.1-1.9-4.1-4.1V6.2c0-2.3,1.8-4.1,4.1-4.1h19.8c2.3,0,4.1,1.9,4.1,4.1V26
		c0,2.3-1.8,4.1-4.1,4.1H7.6z"/>
	<path style="fill:#CECFD1;" d="M26.1,10.8c-0.4-0.4-1-0.9-1.7-1.3c0,0,0.3,2.6-0.2,3.8c-0.4,1-0.9,2.1-2.1,3.3
		c-2.4,2.5-4.6,3.7-4.6,3.7v4.2c0,0,0.7,0.5,1.1,0.7c0.5,0.1,1.4,0.2,1.4,0.2l-1.3-1.2c0,0,0.1-0.2,0.4-0.1c0.2,0.1,0.9,0.7,1.3,0.8
		c0.4,0.1,1.2-0.1,1.2-0.1s-0.8-0.5-1.1-0.7c-0.2-0.2-0.7-0.6-0.7-0.6s0.3-0.2,0.5,0c0.3,0.2,0.9,0.7,1.2,0.7c0.3,0,0.9,0.1,0.9,0.1
		l0.5-0.4c0,0-1.3-0.6-1.9-1.2c-0.5-0.6-0.8-1-0.8-1s0.3,0,0.7,0.3c0.5,0.3,0.4,0.4,0.6,0.6c0.3,0.2,1.9,1,1.9,1s2.9-2.1,4.1-4.6
		C29.2,15.8,27.9,12.6,26.1,10.8"/>
	<path style="fill:#CECFD1;" d="M9,10.8c0.5-0.4,1.1-0.9,1.7-1.3c0,0-0.4,2.6,0.1,3.8c0.4,1,0.9,2.1,2.1,3.3
		c2.4,2.5,4.6,3.7,4.6,3.7v4.2c0,0-0.7,0.5-1.1,0.7c-0.5,0.1-1.4,0.2-1.4,0.2l1.3-1.2c0,0-0.1-0.2-0.4-0.1c-0.2,0.1-0.9,0.7-1.3,0.8
		c-0.4,0.1-1.2-0.1-1.2-0.1s0.8-0.5,1.1-0.7c0.2-0.2,0.7-0.6,0.7-0.6s-0.3-0.2-0.5,0c-0.3,0.2-0.9,0.7-1.2,0.7
		c-0.3,0-0.9,0.1-0.9,0.1l-0.5-0.4c0,0,1.3-0.6,1.9-1.2c0.5-0.6,0.8-1,0.8-1s-0.3,0-0.7,0.3c-0.5,0.3-0.4,0.4-0.6,0.6
		c-0.3,0.2-1.9,1-1.9,1s-2.9-2.1-4.1-4.6C5.9,15.8,7.2,12.6,9,10.8"/>
	<path style="fill:#9B9C9E;" d="M25.8,10.8c-3.8-3.3,1.5,0.6-3.3,5.5c-2.4,2.4-5,3.7-5,3.7s-2.6-1.3-5-3.7c-4.8-4.9,0.5-8.8-3.3-5.5
		c-1.9,1.6-3,4.8-1.6,7.7c1.2,2.5,3.9,4.2,3.9,4.2s1.6-0.6,1.9-0.7c0.3-0.1,0.6-0.8,1.1-1.1c0.5-0.3,0.3,0.3,0.3,0.3
		s-0.3,0.3-0.8,0.9c-0.5,0.6-1.8,1.2-1.8,1.2l0.4,0.4c0,0,0.6-0.1,0.9-0.1c0.3,0,0.9-0.5,1.1-0.7c0.3-0.2,0.5,0,0.5,0
		s-0.4,0.4-0.6,0.6c-0.2,0.2-1,0.7-1,0.7s0.8,0.2,1.1,0.1c0.4-0.1,1-0.7,1.2-0.8c0.2-0.1,0.4,0.1,0.4,0.1l-1.2,1.2
		c0,0,0.9,0,1.4-0.2c0.5-0.1,1.1-0.6,1.1-0.6s0.6,0.5,1.1,0.6c0.5,0.1,1.4,0.2,1.4,0.2l-1.2-1.2c0,0,0.1-0.2,0.4-0.1
		c0.2,0.1,0.8,0.7,1.2,0.8c0.4,0.1,1.2-0.1,1.2-0.1s-0.8-0.5-1-0.7c-0.2-0.2-0.6-0.6-0.6-0.6s0.3-0.2,0.5,0c0.3,0.2,0.9,0.7,1.2,0.7
		c0.3,0,0.9,0.1,0.9,0.1l0.4-0.4c0,0-1.3-0.6-1.8-1.2c-0.5-0.6-0.8-0.9-0.8-0.9s-0.2-0.5,0.3-0.3c0.5,0.3,0.8,0.9,1.1,1.1
		c0.3,0.1,1.9,0.7,1.9,0.7s2.8-1.7,3.9-4.2C28.8,15.6,27.7,12.4,25.8,10.8"/>
	<path style="fill:#FFFFFF;" d="M16.9,20.2v0.6c0,0-1.9-1-2.8-1.9c-1-0.9-2.5-2.6-2.9-3.8c-0.5-1.1-0.7-1.4-0.7-1.4s1.2,2.2,2.5,3.5
		C14.4,18.8,16.9,20.2,16.9,20.2"/>
	<path style="fill:#FFFFFF;" d="M15,21.5c0,0,0.1-0.2,0.2-0.1c0.1,0.1-0.1,0.4-0.1,0.4c0,0.1-1,1-1.2,1.2c-0.2,0.2-1.2,0.5-1.2,0.5
		s1.2-0.7,1.5-1.1C14.6,22,15,21.5,15,21.5"/>
	<path style="fill:#FFFFFF;" d="M14.3,24.1c0,0,0.6-0.4,0.8-0.7c0.2-0.2,0.6-0.4,0.6-0.2c0,0.2-0.4,0.4-0.6,0.6
		C14.9,24,14.3,24.1,14.3,24.1"/>
	<path style="fill:#FFFFFF;" d="M16.9,23.7c0,0-0.3,0.1-0.5,0.3c-0.2,0.2-0.4,0.4-0.4,0.4s0.3-0.1,0.5-0.2
		C16.7,24.1,16.9,23.7,16.9,23.7"/>
	<path style="fill:#FFFFFF;" d="M18.2,20.2v0.6c0,0,1.9-1,2.8-1.9c1-0.9,2.5-2.6,2.9-3.8c0.5-1.1,0.7-1.4,0.7-1.4s-1.2,2.2-2.5,3.5
		C20.7,18.8,18.2,20.2,18.2,20.2"/>
	<path style="fill:#FFFFFF;" d="M20.1,21.5c0,0-0.1-0.2-0.2-0.1c-0.1,0.1,0.1,0.4,0.1,0.4c0,0.1,1,1,1.2,1.2
		c0.2,0.2,1.2,0.5,1.2,0.5s-1.2-0.7-1.5-1.1C20.6,22,20.1,21.5,20.1,21.5"/>
	<path style="fill:#FFFFFF;" d="M20.8,24.1c0,0-0.6-0.4-0.8-0.7c-0.2-0.2-0.6-0.4-0.6-0.2c0,0.2,0.4,0.4,0.6,0.6
		C20.2,24,20.8,24.1,20.8,24.1"/>
	<path style="fill:#FFFFFF;" d="M18.2,23.7c0,0,0.3,0.1,0.5,0.3c0.2,0.2,0.4,0.4,0.4,0.4s-0.3-0.1-0.5-0.2
		C18.4,24.1,18.2,23.7,18.2,23.7"/>
	<path style="fill:#FFFFFF;" d="M19.1,9C19.2,9,19.2,9,19.1,9c0.2-0.1,0.3-0.1,0.5-0.2c0.1,0,0.1,0,0.1-0.1c0-0.1-0.1-0.1-0.1-0.1
		c-0.1,0-0.1,0.1-0.2,0.1c-0.1,0.1-0.2,0.1-0.2,0.2C19.1,8.9,19.1,8.9,19.1,9C19.1,9,19.1,9,19.1,9"/>
	<path style="fill:#FFFFFF;" d="M17.9,17c-0.1-0.2-0.3-0.5-0.4-0.7C17.5,16.6,17.7,16.8,17.9,17c0.1,0.3,0.2,0.6,0.4,0.9
		c0,0,0.1,0.1,0.1,0.1c0,0,0,0,0,0c0.1,0,0-0.1,0-0.1C18.2,17.5,18.1,17.2,17.9,17"/>
	<path style="fill:#FFFFFF;" d="M20.3,17.9c0.1,0.1,0.1,0.2,0.1,0.3l0.1-0.1C20.4,18.1,20.4,18,20.3,17.9"/>
	<path style="fill:#FFFFFF;" d="M17,13.4L17,13.4c0.2,0,0.5,0.1,0.7,0.1c0,0,0.1,0,0.1,0c-0.2-0.2-0.4-0.3-0.6-0.3c0,0,0,0,0,0
		c-0.1,0,0,0.1-0.1,0.1c-0.2,0-0.3,0-0.5-0.1c0,0,0,0-0.1,0c-0.1,0-0.2,0-0.2,0.1h0.1C16.7,13.4,16.9,13.4,17,13.4"/>
	<path style="fill:#FFFFFF;" d="M20.1,18.2c-0.1,0-0.1-0.1-0.1-0.1c0-0.1-0.1-0.2-0.2-0.2c-0.2-0.1-0.3-0.2-0.5-0.3
		c-0.1,0-0.3,0.1-0.4,0.1c0,0.1,0,0.1,0.1,0.2c0.1,0.2,0.2,0.3,0.1,0.6c0,0,0,0.1,0,0.1c-0.1-0.3-0.3-0.7-0.5-1
		c0.1,0.4,0.3,0.9,0.5,1.3c0.1,0.1,0.1,0.3,0,0.4c0,0,0,0,0.1,0c0,0,0,0,0,0c0,0,0,0,0,0l1.2-0.8C20.3,18.2,20.2,18.2,20.1,18.2"/>
	<path style="fill:#FFFFFF;" d="M15.6,15c0,0.1,0,0.2,0,0.3c0.1,0.4,0.4,0.8,0.6,1.2c0,0.1,0.1,0.1,0.1,0.1c0,0,0,0,0,0
		c0,0,0.1,0,0.1,0c0,0,0,0,0,0c0-0.1,0-0.1,0-0.2C16.2,16,15.9,15.5,15.6,15"/>
	<path style="fill:#FFFFFF;" d="M16.9,17.1c0-0.1,0-0.2,0-0.3c0,0,0,0,0,0c0,0,0,0-0.1-0.1c0-0.1,0-0.1-0.1-0.2
		c0,0.1,0.1,0.3,0.1,0.4c0,0,0,0,0,0c0,0,0,0,0,0.1c0,0.1,0.1,0.2,0.1,0.3c0,0,0.1,0.1,0.1,0.1c0-0.1,0-0.1,0-0.2
		C17,17.2,16.9,17.1,16.9,17.1"/>
	<path style="fill:#FFFFFF;" d="M17.1,14.3c-0.1-0.1-0.3-0.1-0.4-0.2c-0.1,0-0.1,0.1-0.1,0.3c0,0.2,0.1,0.2,0.2,0.3
		c0.1-0.1,0.2-0.2,0.4-0.2c0,0,0.1,0,0.1,0c0.1,0,0.1,0,0.2,0C17.3,14.4,17.2,14.4,17.1,14.3"/>
	<path style="fill:#FFFFFF;" d="M17.7,15.4c-0.1,0-0.1-0.1-0.2-0.1c0,0-0.1,0-0.1,0c0,0.1,0.1,0.1,0.1,0.2c0,0,0,0.1,0,0.1
		c0.5,0.7,1.2,1,1.8,1.5c0,0,0,0,0.1,0c0,0,0,0,0,0c-0.2-0.4-0.5-0.8-0.8-1.2C18.4,15.6,18,15.6,17.7,15.4"/>
	<path style="fill:#FFFFFF;" d="M18,14.4C18,14.3,18,14.3,18,14.4c-0.1-0.1-0.1,0-0.1,0c0,0.1,0,0.2,0,0.3c0,0.1-0.1,0.2-0.1,0.3
		c0,0.1,0.1,0.1,0.1,0.1c0.1,0,0.1,0,0.2,0h0c0,0,0.1,0,0.1,0c0,0,0.1,0.1,0.1,0.1c0.1,0.1,0.2,0.2,0.4,0.4c0-0.2-0.2-0.3-0.3-0.5
		c0-0.1-0.1-0.2-0.2-0.3C18.1,14.6,18,14.5,18,14.4"/>
	<path style="fill:#FFFFFF;" d="M17.8,14.2c-0.1,0-0.2-0.1-0.4-0.1C17.5,14.1,17.6,14.2,17.8,14.2C17.8,14.2,17.8,14.2,17.8,14.2"/>
	<path style="fill:#FFFFFF;" d="M16.9,16.5c0-0.1-0.1-0.2-0.1-0.3c0,0,0,0,0,0.1C16.7,16.3,16.8,16.4,16.9,16.5"/>
	<path style="fill:#FFFFFF;" d="M18.3,19.6C18.3,19.5,18.4,19.6,18.3,19.6c0-0.3-0.1-0.5-0.3-0.8C18.1,19.1,18.1,19.3,18.3,19.6"/>
	<path style="fill:#FFFFFF;" d="M17,12.9c0.4,0.2,0.8,0.3,1.1,0.6c0,0,0.1,0,0.1,0c0,0,0,0,0.1,0C18.1,13.1,17.5,12.8,17,12.9
		c-0.1-0.1-0.1-0.1-0.1-0.1C16.9,12.9,17,12.9,17,12.9"/>
	<path style="fill:#1A171B;" d="M17.1,10.8C17.1,10.8,17.1,10.8,17.1,10.8c0.1,0,0.1,0,0.1,0c0,0,0,0,0,0c0,0,0,0,0,0
		c0.2,0,0.5-0.1,0.7-0.1c0,0,0.1,0,0.1,0c0-0.1,0-0.1,0-0.2c0,0,0.1-0.1,0.1-0.1c0,0,0,0,0.1,0c0,0,0.1,0,0.1,0c0,0,0.1,0,0.1,0
		c0,0,0,0,0.1,0c0,0,0,0.1,0,0.1c0,0,0.1,0,0.1,0c0.1,0,0.2,0,0.3,0.1c0.1,0,0.2,0.1,0.3,0.1c-0.2,0-0.4,0-0.6,0c0,0-0.1,0-0.1,0
		c0,0,0,0.1-0.1,0.1c-0.1,0-0.1,0-0.2,0C17.9,10.9,17.5,10.9,17.1,10.8C17.2,10.8,17.2,10.8,17.1,10.8
		C17.1,10.8,17.1,10.8,17.1,10.8L17.1,10.8C17.1,10.8,17.1,10.8,17.1,10.8C17.1,10.8,17.1,10.8,17.1,10.8 M18.5,10.1
		c0-0.1,0.1-0.2,0-0.2c0-0.2,0.1-0.4,0.1-0.5c0-0.1,0.1-0.1,0.1-0.1c0,0,0,0,0,0c0.1,0,0.1,0.1,0.1,0.2c0,0.1-0.1,0.2-0.2,0.3
		c-0.1,0.1-0.1,0.2-0.1,0.3c0,0.1-0.1,0.2-0.1,0.3c0,0,0,0-0.1,0C18.6,10.3,18.5,10.2,18.5,10.1 M19.6,8.6c0.1,0,0.1,0,0.1,0.1
		c0,0.1-0.1,0.1-0.1,0.1c-0.1,0.1-0.3,0.1-0.4,0.2c0,0,0,0-0.1,0c0,0,0,0,0,0c0-0.1,0-0.1,0-0.1c0.1-0.1,0.2-0.1,0.2-0.2 M17,10.7
		C17,10.7,17,10.7,17,10.7c0,0,0,0.1,0,0.2c0,0-0.1,0-0.1,0c0,0-0.1,0-0.1,0c0,0.1-0.1,0.1-0.1,0.2c0,0,0.1,0,0.1,0.1c0,0,0,0,0,0
		c0,0,0,0,0,0c0.1,0.1,0.1,0.2,0.1,0.2l0,0c0,0,0,0,0.1,0c0.1-0.1,0.2-0.2,0.3-0.2c0,0,0.1,0,0.1,0c0,0,0,0,0.1,0c0,0,0,0,0,0
		c0,0,0.1,0,0.1,0c0.1,0,0.3,0,0.4,0.1c0.1,0,0.1,0.1,0,0.1c0,0.1,0.1,0.2,0,0.2c0,0,0.1,0.1,0.1,0.1c0,0,0,0,0,0
		c0.1,0,0.1,0.1,0.2,0.1c0,0,0,0,0,0c0,0,0,0,0,0c0.1,0,0.1,0,0.2,0.1c0,0,0,0,0,0c0,0,0,0,0.1,0c0.1,0,0.3,0.1,0.4,0.1
		c0.1,0,0.1-0.1,0.2-0.1c0.1,0,0.1,0,0.2,0c0,0,0.1,0,0.1,0c0,0,0.1,0,0.1,0c0,0.1,0,0.1-0.1,0.1c-0.1,0.1-0.2,0.1-0.3,0.1
		c0,0,0.1,0,0.1,0c0.1,0,0.1,0,0.2,0.1c0,0,0.1,0,0.1,0c0.2-0.1,0.3-0.2,0.4-0.3c0.1-0.1,0.1-0.1,0.1-0.2c0-0.1-0.1-0.1-0.2-0.1
		c0,0,0,0,0,0c-0.1,0-0.1,0-0.2,0.1c-0.1,0-0.1,0.1-0.2,0.1c-0.1,0-0.1-0.1-0.1-0.2c0-0.1,0-0.1,0.1-0.1c0,0,0,0,0.1,0
		c0,0,0,0,0.1,0c0.1,0,0.1-0.1,0.1-0.2c0-0.1,0-0.2,0.1-0.2c0,0,0,0,0.1,0c0,0,0,0,0.1,0c0.1,0,0.2-0.1,0.2-0.2
		c-0.2,0-0.4,0-0.7-0.1c0,0,0.1,0,0.1,0c-0.1,0-0.3,0-0.4-0.1c-0.1,0-0.2-0.1-0.2-0.2c0,0,0.1-0.1,0.1-0.1c0.1,0,0.2,0,0.2,0
		c0.3,0,0.6,0,0.9,0.1c0,0,0,0,0.1,0c0.1,0,0.1,0,0.2-0.1c0.1-0.1,0.2-0.1,0.3-0.2c0.1,0,0.1,0,0.2,0c0.1,0,0.2,0,0.2,0
		c0,0,0,0,0.1,0c0,0,0,0,0.1,0c0.3,0,0.5-0.2,0.7-0.4c0,0,0,0-0.1,0c0,0-0.1,0-0.1,0C21.7,10,21.4,10,21,10
		c-0.2,0.1-0.5,0.1-0.7,0.1c0.1-0.1,0.3-0.1,0.4-0.2c0.5-0.1,0.9-0.2,1.3-0.3c0-0.2,0.1-0.3,0.2-0.4c0,0-0.1,0-0.1,0
		c-0.2,0-0.4,0.1-0.6,0.2c-0.1,0-0.1,0-0.2,0.1c-0.1,0-0.2,0-0.2,0c-0.6,0-1.1,0.2-1.6,0.3c0.2-0.1,0.5-0.2,0.7-0.3
		c0.8-0.1,1.6-0.4,2.3-0.6c0-0.1,0-0.1,0.1-0.1c0.1,0,0.1-0.1,0.2-0.1c0.1-0.1,0.2-0.1,0.3-0.2c0.1,0,0.1,0,0.1-0.1
		c0.1-0.2,0.1-0.2-0.1-0.2c0,0-0.1,0-0.1,0c0,0,0,0-0.1,0c0,0,0,0,0,0c-0.1,0-0.1-0.1-0.2-0.1c-0.1,0-0.2,0.1-0.3,0.1
		c-0.1,0-0.1,0.1-0.2,0.1c0,0,0,0-0.1,0c0,0,0,0-0.1-0.1c0,0.1-0.1,0.1-0.2,0.2c-0.9,0.2-1.7,0.6-2.5,0.9c-0.1,0-0.1,0-0.2,0h0
		c-0.1,0-0.1,0-0.1-0.1c0-0.1,0-0.1,0.1-0.2c0.3-0.2,0.7-0.5,1.1-0.6c0,0,0.1,0,0.1,0c0,0,0.1,0,0.2,0c0.5-0.1,1-0.3,1.5-0.4
		c0.1,0,0.2,0,0.3-0.1c0.4-0.3,0.9-0.5,1.2-0.7c0.1,0,0.1-0.1,0.2-0.1C24,7.1,24,7.1,24,7c0,0,0,0-0.1,0c0,0-0.1,0-0.1,0
		c0,0-0.1,0-0.1,0c-0.2,0.1-0.5,0.1-0.7,0.2c-0.1,0-0.2,0.1-0.3,0.1c0,0,0,0,0,0c-0.1,0.1-0.3,0.1-0.4,0.2c-0.2,0.1-0.5,0.1-0.7,0.2
		c-0.1,0-0.2,0.1-0.2,0.2c0,0,0,0,0,0c0,0-0.1,0-0.1,0c0,0-0.1,0-0.1,0c-0.3,0.1-0.7,0.2-1,0.3c-0.2,0.1-0.4,0.2-0.6,0.2
		c-0.5,0.2-1.1,0.4-1.4,1c0,0,0,0.1,0,0.1c0,0,0.1,0,0.1-0.1c0,0,0,0.1,0,0.1C18.2,9.6,18,9.8,18,10c0,0.1-0.1,0.1-0.1,0.2
		c-0.1,0.1-0.3,0.2-0.4,0.2c0,0,0,0,0,0c-0.1,0-0.1,0.1-0.2,0.1C17.1,10.6,17,10.7,17,10.7"/>
	<path style="fill:#1A171B;" d="M19.1,19.2L19.1,19.2C19.1,19.2,19.1,19.2,19.1,19.2L19.1,19.2z"/>
	<path style="fill:#1A171B;" d="M10.1,9.2C10.1,9.2,10.1,9.2,10.1,9.2c0.2,0,0.3,0,0.3,0c0.5,0.2,0.9,0.3,1.4,0.4
		c0.1,0,0.2,0,0.2,0.2c0,0.1,0,0.1,0.1,0.1h0.1h0c0.1,0.1,0.2,0,0.3,0.1c0,0,0,0.1,0,0.1c0.2,0.1,0.3,0.1,0.5,0.1
		c0.1,0,0.1-0.1,0.2-0.1h0h0c0,0,0.1,0,0.1,0c0,0,0.1,0,0.1,0c0,0.1,0,0.1-0.1,0.1c0,0.1,0.1,0.1,0.1,0.2c0,0,0,0.1-0.1,0.1
		c0,0,0,0-0.1,0c0,0,0,0-0.1,0c0,0.1-0.1,0.1,0,0.1c0,0,0,0,0.1,0c0,0,0,0,0.1,0c0,0,0.1,0,0.1,0c0,0.1,0,0.1,0,0.1
		c-0.1,0-0.2,0.1-0.3,0.1c-0.1,0-0.2,0.1-0.3,0.1c-0.1,0-0.3,0-0.4-0.1c0,0,0,0,0,0c0,0-0.1,0-0.1,0c0,0,0,0,0,0c0,0,0,0,0,0
		c-0.1,0-0.3-0.1-0.4-0.1c0.3-0.2,0.6-0.2,1-0.3c0,0,0,0,0,0s0,0,0,0c-0.1-0.1-0.2-0.1-0.3-0.1c-0.1,0-0.1,0-0.2-0.1
		c0,0-0.1,0-0.1,0c-0.2,0-0.3,0-0.5,0.1c0,0,0,0,0,0c0,0-0.1,0-0.1,0c-0.2,0-0.5-0.3-0.6-0.5c0.2,0,0.4,0.2,0.6,0.2c0,0,0,0,0.1,0
		c0,0,0,0,0.1,0c0,0,0.1,0,0.1,0c0,0,0,0,0,0c0.1,0,0.1,0,0.2,0c0,0,0.1,0,0.1,0c0,0,0,0,0,0c0,0,0,0,0,0c-0.1,0-0.3-0.1-0.4-0.2
		c0,0-0.1,0-0.1,0h0c0,0,0,0,0,0c-0.3,0-0.6-0.1-0.9-0.3C10.4,9.4,10.2,9.4,10.1,9.2 M10.6,8.9C10.6,8.9,10.7,8.9,10.6,8.9
		C10.7,8.9,10.7,8.9,10.6,8.9c0-0.1,0-0.1,0.1-0.1c0,0,0.1,0,0.1,0c0.2,0,0.4,0.1,0.7,0.2c-0.1-0.1-0.1-0.1-0.1-0.2
		c0.5,0.1,1,0.1,1.4,0.5c-0.2-0.1-0.4-0.2-0.6-0.2c0,0-0.1,0-0.2,0c0.1,0.1,0.4,0.1,0.5,0.4c0,0.1,0,0.1,0,0.1c0,0,0,0-0.1,0
		c-0.1,0-0.1,0-0.1,0c0,0-0.1,0-0.1,0.1c-0.1-0.1-0.2-0.2-0.3-0.3c0,0,0,0-0.1,0c-0.5,0-0.9-0.1-1.3-0.4c0,0,0,0,0,0
		C10.4,8.9,10.5,8.9,10.6,8.9 M12.9,7.8C12.9,7.8,12.9,7.8,12.9,7.8L12.9,7.8c0.1-0.1,0.1-0.1,0.2,0c0,0,0,0,0,0.1c0,0,0,0,0,0
		C13,7.9,12.9,7.8,12.9,7.8 M13.1,7.4L13.1,7.4C13.2,7.4,13.2,7.4,13.1,7.4c0.1,0.1,0,0.1,0,0.1C13.1,7.5,13.1,7.5,13.1,7.4
		C13.1,7.4,13.1,7.4,13.1,7.4 M13.3,10.1L13.3,10.1L13.3,10.1L13.3,10.1L13.3,10.1z M13.5,10.8c0,0,0,0.1,0,0.1
		C13.5,10.9,13.5,10.9,13.5,10.8C13.6,10.9,13.6,10.9,13.5,10.8c0.2,0.1,0.2,0.2,0.3,0.2h0c0,0,0,0.1,0,0.1c-0.1,0-0.1,0.1-0.2,0.1
		c-0.2,0-0.3,0.1-0.4,0.2c-0.1,0-0.2,0.1-0.2,0.1c0,0,0,0,0,0c0.2-0.2,0-0.2-0.1-0.2c0-0.1,0-0.1,0.1-0.1C13,11,13.2,10.8,13.5,10.8
		C13.4,10.8,13.5,10.8,13.5,10.8 M12.3,8.2C12.3,8.2,12.3,8.3,12.3,8.2c-0.1,0.1-0.2,0.1-0.2,0.1c0-0.1,0.1-0.2,0.2-0.3c0,0,0,0,0,0
		c0,0,0.1,0,0.1,0c0,0,0,0,0,0C12.5,8.2,12.4,8.2,12.3,8.2 M14.4,11.2v-0.1c0.2,0.1,0.4,0.2,0.5,0.4c0,0,0,0-0.1,0
		c0,0.2-0.2,0.3-0.4,0.3c0,0,0,0-0.1,0c0,0,0,0-0.1,0c0,0,0,0,0,0c0,0,0-0.1,0-0.1c0,0,0-0.1,0.1-0.1c0-0.1,0-0.2,0-0.3
		c-0.1-0.1-0.3,0-0.3-0.1C14.2,11.3,14.3,11.2,14.4,11.2 M14.8,12.2c-0.2,0.1-0.1,0.4-0.4,0.5c0.1-0.3,0.2-0.5,0.1-0.7
		c0,0,0-0.1,0.1-0.1h0C14.7,12,14.9,12.2,14.8,12.2 M15.3,11c0,0.1,0,0.2-0.1,0.3c0,0.1-0.1,0.1-0.1,0.2C15,11.2,15.1,11.1,15.3,11
		 M15.8,9.9C15.9,9.9,16,10,16,10c0,0,0,0,0,0C15.9,10,15.8,10,15.8,9.9 M16.6,13.2C16.6,13.2,16.6,13.2,16.6,13.2
		c0.2,0.1,0.4,0.1,0.6,0.1c0,0,0-0.1,0.1-0.1c0,0,0,0,0,0c0.2,0.1,0.4,0.1,0.6,0.3c0,0-0.1,0-0.1,0c-0.3,0-0.5-0.1-0.7-0.1h0
		c-0.2-0.1-0.4-0.1-0.6-0.1h-0.1C16.4,13.3,16.5,13.2,16.6,13.2 M16.9,12.8c0.5,0,1.2,0.3,1.3,0.7c0,0-0.1,0-0.1,0c0,0-0.1,0-0.1,0
		C17.8,13.2,17.4,13,16.9,12.8C17,12.9,16.9,12.9,16.9,12.8C16.9,12.8,16.9,12.8,16.9,12.8 M18.4,15c0,0.2,0.2,0.3,0.3,0.5
		c-0.1-0.1-0.2-0.2-0.4-0.4c0,0-0.1-0.1-0.1-0.1c0,0-0.1,0-0.1,0h0c-0.1,0-0.1,0-0.2,0c0,0-0.1,0-0.1-0.1c0-0.1,0.1-0.2,0.1-0.3
		c0-0.1,0-0.2,0-0.3c0,0,0.1,0,0.1,0c0,0,0,0,0,0.1c0,0.2,0.1,0.2,0.2,0.3C18.3,14.8,18.4,14.9,18.4,15 M18.7,16
		c0.3,0.4,0.6,0.8,0.8,1.2c0,0,0,0,0,0c0,0,0,0-0.1,0c-0.6-0.5-1.4-0.8-1.8-1.5c0,0,0-0.1-0.1-0.1c0-0.1-0.1-0.2-0.1-0.2
		c0,0,0,0,0.1,0c0.1,0,0.1,0,0.2,0.1C18,15.6,18.4,15.6,18.7,16 M18.4,17.9C18.4,17.9,18.4,17.9,18.4,17.9c-0.1,0-0.1,0-0.1-0.1
		c-0.2-0.3-0.3-0.5-0.5-0.8c-0.1-0.2-0.3-0.5-0.4-0.7c0.1,0.2,0.3,0.5,0.4,0.7c0.2,0.2,0.4,0.5,0.5,0.8
		C18.4,17.8,18.5,17.9,18.4,17.9 M17.4,14c0.2,0,0.3,0.1,0.4,0.1v0.1C17.6,14.2,17.5,14.1,17.4,14 M17.1,14.5c-0.1,0-0.3,0-0.4,0.2
		c-0.1-0.1-0.2-0.1-0.2-0.3c0-0.1,0-0.2,0.1-0.3c0.1,0.1,0.3,0.1,0.4,0.2c0.1,0.1,0.3,0.1,0.4,0.2c-0.1,0-0.1,0-0.2,0H17.1
		 M16.7,16.2L16.7,16.2c0.1,0,0.2,0.1,0.2,0.3C16.8,16.4,16.7,16.3,16.7,16.2 M16.9,17.3c0-0.1-0.1-0.2-0.1-0.3c0,0,0-0.1,0-0.1
		c0,0,0,0,0,0c0-0.1-0.1-0.3-0.1-0.4c0.1,0,0.1,0.1,0.1,0.2c0,0,0,0.1,0.1,0.1c0,0,0,0,0,0c0,0.1,0,0.2,0,0.3c0,0.1,0.1,0.1,0.1,0.2
		c0,0.1,0,0.1,0,0.2C16.9,17.5,16.9,17.4,16.9,17.3 M16.5,16.6C16.5,16.6,16.5,16.6,16.5,16.6c-0.1,0-0.1,0-0.1,0c0,0,0,0,0,0
		c-0.1,0-0.1,0-0.1-0.1c-0.2-0.4-0.5-0.8-0.6-1.2c0-0.1-0.1-0.2,0-0.3c0.2,0.5,0.5,1,0.9,1.4C16.5,16.4,16.6,16.5,16.5,16.6
		 M10.6,10.4L10.6,10.4c0.1,0,0.2,0.1,0.3,0.1c0,0,0.1,0,0.1,0c0,0,0,0,0,0c0,0,0.1,0,0.1,0.1c0.2,0.2,0.5,0.3,0.6,0.5
		c0,0.1,0.1,0.1,0.2,0.1c0,0,0.1,0,0.1,0c0,0,0,0,0.1,0c0.1,0,0.2,0,0.2,0.1c0.1,0.2,0.2,0.4,0.5,0.4c0.1,0,0.2,0.1,0.3,0.2
		c0.1,0.1,0.2,0.1,0.3,0.1c0.1,0,0.2,0,0.3,0c0.2,0,0.3-0.1,0.5-0.2c0,0.1-0.1,0.2-0.2,0.2c-0.1,0-0.2,0.1-0.2,0.2
		c0.1,0.1,0.1,0.1,0.1,0.2c0,0,0,0,0.1,0c0.1,0,0.1,0,0.2-0.1c0,0-0.1,0-0.1,0c-0.1,0-0.2-0.1-0.2-0.2c0-0.1,0.2-0.1,0.3-0.1
		c0,0.1,0.2,0.1,0.1,0.2c0,0,0.1,0,0.1,0c0,0,0.1,0,0.1,0c0,0,0.1,0,0.1,0.2c0,0.2-0.1,0.4-0.1,0.7c0,0,0,0,0.1,0
		c0.1,0,0.1,0,0.2-0.1c0,0,0,0,0,0c0.1-0.1,0.2-0.2,0.2-0.3c0-0.1,0-0.1,0.1-0.1h0c0,0.2-0.1,0.3-0.1,0.5c0,0.1,0,0.3,0,0.4
		c0,0.1,0,0.1,0,0.2c0,0.1-0.1,0.1-0.1,0.2c-0.1,0.3-0.2,0.7,0.1,0.9c0.1-0.1,0-0.3,0.1-0.4c0-0.4,0.4-0.9,0.7-0.9
		c-0.1,0.1-0.2,0.2-0.2,0.3c-0.1,0.1-0.2,0.2-0.2,0.3c-0.1,0.1-0.1,0.2-0.1,0.4c0.2-0.2,0.3-0.3,0.5-0.4c0,0.1-0.1,0.1-0.1,0.2
		c0.1,0,0.1,0,0.2,0c0.1,0,0.2,0,0.3-0.1c-0.1,0.1-0.2,0.2-0.3,0.4c0,0,0.1,0,0.1,0c0.1,0,0.2,0,0.2,0c0.1,0,0.1,0,0.1,0.1
		c0,0.1-0.1,0.1-0.1,0.1c0,0,0,0-0.1,0c-0.1,0-0.1,0-0.2,0c0,0.2,0.2,0.4,0.3,0.5c-0.3-0.1-0.4-0.2-0.4-0.5
		c-0.2,0.1-0.3,0.2-0.4,0.3c0,0,0,0.1,0,0.2c0,0.4,0,0.8,0.3,1.1c0.1,0.2,0.2,0.3,0.3,0.5c0.2,0.6,0.5,1.2,0.7,1.7
		c0.1,0.2,0.2,0.2,0.4,0.2c0,0,0,0,0.1,0c0.1,0,0.1,0,0.2,0.1c0.2,0,0.3,0.1,0.5,0.3c0.1,0.2,0.2,0.5,0.4,0.6l0.2-0.1
		c-0.2-0.2-0.2-0.5-0.3-0.8c0.2,0.2,0.3,0.5,0.4,0.7c0.1,0,0.7-0.4,0.7-0.4c0,0,0,0,0,0c0,0,0,0-0.1,0c0-0.1,0.1-0.3,0-0.4
		c-0.3-0.4-0.4-0.8-0.5-1.3c0.2,0.3,0.4,0.6,0.5,1c0-0.1,0-0.1,0-0.1c0.1-0.2,0.1-0.4,0-0.6c0,0-0.1-0.1-0.1-0.2
		c0.1,0,0.3-0.1,0.4-0.1c0.2,0.1,0.3,0.2,0.5,0.3c0.1,0.1,0.2,0.1,0.2,0.2c0,0.1,0,0.1,0.1,0.1c0.1,0,0.1,0,0.1,0.1l0.1-0.1
		c0-0.1-0.1-0.2-0.1-0.3c0.2,0,0.2,0.2,0.2,0.2c0.1-0.1,0.2-0.2,0.2-0.2c-0.1-0.2-0.2-0.3-0.3-0.5c-0.3-0.7-0.7-1.4-1-2
		c-0.2-0.4-0.4-0.9-0.8-1.2c0,0,0,0,0-0.1c0-0.2-0.1-0.3,0-0.5c0-0.1,0-0.2-0.1-0.3c0,0,0,0-0.1,0c0,0,0,0,0-0.1c0,0,0,0,0,0
		c0,0,0,0,0,0c0,0,0.1,0.1,0.2,0.1c0,0,0,0,0,0c0,0,0.1,0,0.1,0c0-0.2-0.2-0.2-0.2-0.4c0.1,0,0.2,0.2,0.4,0.2c0-0.1,0-0.2,0.1-0.2
		c0,0,0,0,0.1,0c0,0,0,0,0.1,0c0,0,0.1,0,0.1,0c0.1,0,0.2-0.1,0.3-0.2c0-0.1-0.1-0.1-0.2-0.2c-0.4,0-0.7-0.2-1-0.4c0,0-0.1,0-0.1,0
		c-0.1-0.1-0.2-0.2-0.3-0.2c-0.1,0-0.1-0.1-0.2-0.1c0,0,0,0-0.1,0c0,0,0,0,0,0c0,0-0.1-0.1-0.1-0.1c0-0.1-0.1-0.1-0.1-0.2
		c-0.1,0-0.1,0.1-0.1,0.1c0,0,0,0.1,0,0.1c-0.3,0.2-0.4,0.4-0.4,0.7c0,0.2-0.1,0.2-0.2,0.2c0,0,0,0-0.1,0c0,0,0,0,0,0
		c0,0-0.1,0-0.1,0c-0.1,0.1-0.3,0.2-0.5,0.2c0,0,0,0,0,0c0,0,0,0,0-0.1c-0.1,0-0.1,0.1-0.2,0.1c0,0,0,0,0,0c0-0.1,0.2-0.1,0.1-0.2
		c0,0-0.1,0-0.1,0.1c0-0.1,0-0.1,0.1-0.1c0.2-0.2,0.5-0.4,0.8-0.4c0-0.1,0.1-0.2,0.1-0.3c0,0,0.1-0.1,0.1-0.1c0,0,0-0.1,0.1-0.1
		c0-0.1-0.1-0.2-0.1-0.3c0,0,0,0,0,0c0,0-0.1,0-0.1,0c-0.1,0-0.1,0,0-0.1c0,0,0.1,0,0.1,0c0,0,0-0.1,0-0.1c-0.1-0.1-0.2-0.1-0.3-0.1
		c0,0,0,0,0,0c0,0,0,0,0,0c-0.1-0.2-0.1-0.3-0.3-0.4c0,0,0,0-0.1,0c-0.1,0-0.2,0.1-0.2,0.1c0,0-0.1,0-0.1,0c0,0,0,0,0,0
		c-0.1,0-0.2,0-0.3,0c0-0.1,0.1-0.1,0.1-0.1c0,0,0,0,0.1,0c0,0,0,0,0,0h0c0,0,0,0,0,0c0,0,0.1,0,0.1,0c0.1-0.1,0.2-0.1,0.3-0.1
		c0,0,0.1,0,0.1,0c0,0,0.1,0,0.1,0c0.1,0,0.1,0,0.2,0c0.1,0,0.2-0.1,0.1-0.2c0-0.1-0.1-0.1-0.2-0.1c0,0,0,0-0.1,0c0,0-0.1,0-0.1,0
		c0,0,0,0-0.1,0c0.1-0.1,0.1-0.2,0.1-0.3c0-0.1,0-0.1,0-0.2c0-0.1,0-0.1-0.1-0.2c-0.2-0.1-0.3-0.4-0.2-0.6c0-0.1,0.2-0.1,0.2-0.2
		c0,0,0,0,0.1,0c0,0,0.1,0,0.2,0c0,0,0,0,0,0c0,0,0,0,0,0c0.1,0.1,0.2,0.1,0.1,0.3c-0.1,0.1,0,0.2,0.1,0.2c0.1,0,0.1,0.1,0,0.2
		c-0.2,0.1-0.1,0.2,0,0.3c0,0.1,0,0.3,0.1,0.4c0,0,0.1,0.1,0.1,0.1c0-0.1-0.1-0.2-0.1-0.3c0.1,0,0.2,0.1,0.3,0.1
		c0.2,0,0.3-0.1,0.3-0.2c-0.1-0.1-0.2-0.2-0.1-0.3c0-0.1,0-0.1-0.1-0.2c0,0,0,0,0-0.1c0-0.2,0-0.3-0.1-0.5c0-0.1-0.1-0.1-0.2-0.2
		c-0.1-0.1-0.3-0.1-0.4-0.2c-0.1-0.1-0.1-0.1-0.2-0.1c-0.1,0-0.2,0.1-0.3,0.1c-0.1,0-0.2,0.1-0.2,0.1c0,0.1-0.1,0.1,0,0.2
		c0.1-0.1,0.1-0.1,0.2-0.1c0.1,0,0.2,0,0.2,0.1c0,0.1-0.1,0.2-0.3,0.3c0.1,0,0.2,0.1,0.2,0.2c0,0.1,0,0.3-0.1,0.4c0,0,0,0,0,0
		c-0.1,0.1-0.1,0.3-0.1,0.4c0,0.2,0,0.3-0.2,0.4c-0.1-0.1-0.3,0-0.5-0.1c-0.1-0.1-0.3-0.2-0.4-0.3c-0.1-0.1-0.2-0.3-0.4-0.3
		c-0.1-0.1-0.2-0.1-0.2-0.2c-0.2-0.3-0.3-0.6-0.5-0.8c-0.1-0.1-0.1-0.2-0.2-0.3c0,0.1,0.1,0.2,0.1,0.3c0.2,0.3,0.3,0.6,0.5,0.9
		c0,0,0,0-0.1,0c-0.3-0.2-0.3-0.6-0.5-0.8c-0.1-0.1-0.1-0.3-0.2-0.4c0,0,0-0.1,0-0.1c0,0,0-0.1,0-0.1c0.1,0,0.1,0,0.1-0.1
		c0-0.1,0-0.1,0.1-0.2c0.1-0.1,0.1-0.2,0.2-0.3c0.1-0.2,0-0.4-0.2-0.4c0,0-0.1,0-0.1-0.1c0,0,0.1-0.1,0.1-0.2c0,0,0,0,0-0.1
		c0,0,0,0,0,0c-0.1,0-0.3,0-0.4-0.1c-0.1,0-0.3-0.1-0.4-0.1c-0.1,0-0.2,0-0.3,0.2c0,0,0,0.1,0,0.1c0.1,0.1,0.3,0.2,0.5,0.2h0l0,0
		c0.1,0,0.3,0.2,0.3,0.4c0,0-0.1,0.1-0.1,0.1c0,0-0.1,0-0.1,0c0,0-0.1,0-0.1,0c0,0.1,0,0.1-0.1,0.1c0,0-0.1,0-0.1,0
		c-0.1,0-0.1,0.1,0,0.1c0,0,0,0,0,0C12.1,8,12,7.9,12,7.9c0-0.1,0-0.2,0.1-0.3c0.1-0.1,0-0.1,0-0.2C12,7.3,12,7.2,12,7.1
		c-0.1,0-0.3,0.1-0.4,0.1c-0.1,0-0.1,0.1-0.1,0.2c0.1,0.1,0.1,0.3,0.1,0.5c-0.1,0.1,0,0.2,0,0.3c0.1,0.1,0.2,0.2,0.4,0.3
		c0.1,0,0.2,0,0.2,0c0,0,0.1,0,0.1,0c0,0,0.1-0.1,0.1-0.1c0.1,0,0.2,0.1,0.2,0.2c0,0.1,0,0.1,0.1,0.2c0,0.2,0.1,0.3,0.2,0.3
		c-0.1,0-0.1,0-0.2-0.1c-0.2-0.1-0.4-0.2-0.6-0.2c0,0,0,0-0.1,0c-0.3-0.1-0.6-0.2-1-0.3C10.8,8.4,10.4,8.2,10,8
		C9.9,8,9.8,7.9,9.7,7.9c0,0-0.1,0-0.1,0c0,0,0,0-0.1,0c0,0-0.1,0-0.1,0.1c0,0.2-0.1,0.3,0,0.5c0,0,0,0.1,0.1,0.1
		c0.3,0,0.3,0.3,0.3,0.5c-0.1,0.3,0,0.6,0.4,0.6c0,0.1,0.1,0.1,0.1,0.2c0,0,0,0.1,0,0.1C10.3,10,10.3,10.2,10.6,10.4"/>
	<path style="fill:#9B9C9E;" d="M27.4,1.4H7.6C5,1.4,2.9,3.6,2.9,6.2V26c0,2.6,2.1,4.8,4.7,4.8h19.8c2.6,0,4.7-2.1,4.7-4.8V6.2
		C32.2,3.6,30,1.4,27.4,1.4 M27.4,2.7c1.9,0,3.5,1.6,3.5,3.5V26c0,1.9-1.6,3.5-3.5,3.5H7.6c-1.9,0-3.5-1.6-3.5-3.5V6.2
		c0-1.9,1.6-3.5,3.5-3.5H27.4z"/>
	<line style="fill:none;stroke:#D8D9DA;stroke-width:0.423;stroke-miterlimit:10;" x1="37" y1="30.7" x2="37" y2="1.4"/>
	<path style="fill:#9B9C9E;" d="M175.2,2.4c2,0,3.7,1.6,3.7,3.7v19.8c0,2-1.7,3.7-3.7,3.7h-19.7c-2,0-3.7-1.6-3.7-3.7V6.1
		c0-2,1.6-3.7,3.7-3.7H175.2 M175.2,1.3h-19.7c-2.6,0-4.7,2.1-4.7,4.7v19.8c0,2.6,2.1,4.7,4.7,4.7h19.7c2.6,0,4.7-2.1,4.7-4.7V6.1
		C179.9,3.5,177.8,1.3,175.2,1.3"/>
	<polygon style="fill:#231F20;" points="165.5,6 165.5,6 165.5,6 	"/>
	<path style="fill:#231F20;" d="M165.5,6L165.5,6L165.5,6z"/>
	<path style="fill:#9B9C9E;" d="M167.2,14.7c-0.1,0.7-0.6,2.1-0.8,3.2c-0.2,1.2-0.5,2.1,0.6,2.1c0.2,0,0.4,0,0.6-0.1
		c1.1-0.2,2.1-1.2,2.7-1.7c0.1-0.1,0.3-0.2,0.4-0.3c-1,1.7-2,2.3-1.7,2.1c-0.1,0.1-0.2,0.2-0.4,0.3c-0.6,0.5-1.3,0.6-1.9,0.6
		c-0.5,0-0.9-0.1-1.2-0.3c-0.4-0.2-0.8-0.3-1.2-0.3c-0.8,0-1.4,0.3-1.4,0.3h0c0,0,0.3-0.3,1.4-1.3c1.1-1,0.4-2.1,0.3-2.4
		c-0.2-0.4-0.3-0.4-0.9-1.9c0,0,0-0.1-0.1-0.1c0,0-0.1,0-0.1,0c-0.2-0.2-0.4-0.5-0.5-0.8c-0.1,0.1-0.2,0.2-0.3,0.3l0,0l0,0l0,0
		c0,0-0.5,0.5-1,0.5c-0.5,0-1-0.4-1.2-0.9c-0.3-0.2-0.6-0.6-0.7-1c-0.6-0.1-1.1-0.7-1.2-1.3c0-0.2,0-0.5,0.1-0.7
		c-0.1-0.1-0.2-0.3-0.3-0.5c0,0,0.1-0.2,0.6-0.6c0,0,0-0.5,0.1-0.6c-0.3-0.3-0.4-0.6-0.5-1c0-0.6,0.2-1,0.6-1.3l0.4-0.3l0,0
		c0.2-0.2,0.5-0.3,0.8-0.3c0,0,0.5,0,0.9,0.3c0.2-0.1,0.5-0.2,0.8-0.2h0h0h0c0,0,0.1-0.2,0.5-0.5c0.3-0.2,0.3-0.2,0.3-0.2
		c0,0,0.4-0.3,0.8-0.3h0c0.5,0.3,0.9,0.8,1.3,1.3c0.1-0.1,0.2-0.2,0.3-0.3l0.4-0.3l0,0v0c0.2-0.1,0.4-0.2,0.7-0.2
		c0.7,0,1.3,0.5,1.4,1.2c0-0.1,0.1-0.1,0.2-0.2c0.1-0.1,0.3-0.2,0.4-0.3l0,0c0.2-0.1,0.4-0.2,0.6-0.2c0.6,0,1.1,0.5,1.2,1.1
		c0,0.4-0.1,0.7-0.4,0.9h0c-0.1,0.1-0.2,0.1-0.2,0.2c0.4,0.1,0.9,0.2,1.3,0.4c0.2,0.1,0.3,0.1,0.4,0.3c0.2,0.1,0.3,0.3,0.5,0.4
		c0,0,0,0.8-0.2,0.9c0,0,0.9,0.5,1,1.7c0.1,0.7-0.2,1.3-0.7,1.6l0,0c-0.1,0.1-0.2,0.2-0.4,0.3c-0.3,0.2-0.6,0.3-1,0.3
		c-0.3,0-0.6-0.1-0.6-0.1l0,0c0,0-1.2,1.3-2.7,0.2"/>
	<path style="fill:#FFFFFF;" d="M163.8,12.5c-0.3,0.2-0.2,1,0.3,1.8c0.2,0.3,0.5,0.7,0.8,1c0.3,0.3,0.5,0.4,0.8,0.4
		c0.5,0,0.9-0.6,1.1-1.1c0.1-0.2,0.1-0.3,0.1-0.5c0-0.2,0-0.4,0-0.6c-0.1-0.3-0.2-0.4-0.3-0.5c-0.1-0.1-0.1-0.1-0.1-0.1
		c0,0,0.1,0,0.1,0c0.2,0.1,0.4,0.2,0.5,0.4c0,0.1,0.1,0.1,0.2,0.1c0.1,0,0.1,0,0.2,0c0.2-0.1,0.4-0.1,0.5-0.1c0.2,0,0.2,0.1,0.2,0.1
		c0,0-0.1,0-0.1,0c-0.4,0-0.6,0.3-0.7,0.6c-0.1,0.2-0.1,0.3-0.1,0.4c0,0,0,0.1,0,0.2c-0.1,0.5-0.8,2.4-1,3.6
		c-0.2,1.2-0.5,2.1,0.6,2.1c0.2,0,0.7,0,0.9-0.1c1.8-0.3,3.1-2.1,3.1-2.2c-1.2,2-2.5,2.7-3.6,2.7c-0.5,0-0.9-0.1-1.2-0.3
		c-0.4-0.2-0.8-0.3-1.2-0.3c-0.8,0-1.4,0.3-1.4,0.3c0,0,0.3-0.3,1.4-1.3c1.1-1,0.4-2.1,0.3-2.4c-0.2-0.4-0.3-0.4-0.9-1.9
		c0,0,0-0.1,0-0.1c-0.2-0.4-0.4-0.7-0.6-0.9c-0.1,0-0.1-0.1-0.2-0.1c-0.3-0.2-0.6-0.2-0.8-0.2c-0.1,0-0.2,0-0.2,0
		c0.2-0.2,0.4-0.2,0.6-0.2c0.1,0,0.2,0,0.3,0c0,0,0.1,0,0.1,0.1l0.1,0l0,0c0.1,0,0.1-0.1,0.2-0.2C163.6,12.5,163.8,12.5,163.8,12.5"
		/>
	<path style="fill:#FFFFFF;" d="M165.4,13.6c0.4,0,0.7,0.3,0.8,0.8v0c0,0.4-0.3,0.7-0.7,0.7c-0.4,0-0.8-0.3-0.8-0.8
		c0-0.1,0-0.2,0-0.2C164.8,13.8,165,13.6,165.4,13.6"/>
	<path style="fill:#9B9C9E;" d="M171.1,11.2c-0.3-0.8-1-1.4-1.8-1.6c0.2-0.3,0.5-0.4,0.8-0.4h0c0.1,0,0.3,0,0.4,0.1
		c0.1,0.1,0.3,0.1,0.4,0.2c0.2,0.2,0.4,0.4,0.4,0.7l0,0c0,0.2-0.1,0.3-0.1,0.4l0,0.1l0.1,0.1l0,0C171.2,11,171.2,11.1,171.1,11.2"/>
	<path style="fill:#9B9C9E;" d="M169,8.5c-0.1,0-0.2,0-0.3-0.1c-0.4-0.1-0.7-0.5-0.7-0.9c0-0.3,0.1-0.5,0.2-0.7
		c0.2-0.2,0.4-0.3,0.6-0.3h0c0.5,0,1,0.5,1,1c0,0.4-0.2,0.8-0.6,0.9C169.1,8.5,169.1,8.5,169,8.5L169,8.5"/>
	<path style="fill:#FFFFFF;" d="M168.9,9.5c-0.1-0.3-0.3-0.5-0.5-0.7c0.1,0,0.1,0,0.2,0c0.1,0,0.2,0.1,0.3,0.1h0c0.1,0,0.2,0,0.3,0
		c0.1,0,0.3,0,0.4,0.1C169.4,9,169.1,9.2,168.9,9.5L168.9,9.5"/>
	<path style="fill:#FFFFFF;" d="M170.8,14.1c0.6-0.2,1.1-0.8,1-1.5c0-0.4-0.2-0.8-0.5-1.1c0.1-0.1,0.2-0.3,0.3-0.4l0,0
		c0.3,0.3,0.5,0.8,0.6,1.2l0,0.1c0,0.5-0.1,0.9-0.4,1.3C171.5,14,171.2,14.1,170.8,14.1"/>
	<path style="fill:#FFFFFF;" d="M166.1,8.3c-0.2-0.1-0.3-0.2-0.4-0.3c-0.2-0.2-0.4-0.5-0.4-0.8c0-0.1,0-0.2,0-0.3
		c0.1-0.5,0.5-0.9,1-0.9h0c0.6,0,1.2,0.6,1.2,1.2c0,0.4-0.1,0.7-0.4,0.9c-0.1,0-0.2,0-0.3,0l0,0C166.6,8.1,166.3,8.2,166.1,8.3"/>
	<path style="fill:#9B9C9E;" d="M170.3,13.9c-0.7,0-1.3-0.6-1.3-1.3c0-0.3,0.1-0.7,0.3-0.9c0.2-0.2,0.5-0.3,0.8-0.3h0
		c0.3,0,0.5,0.1,0.8,0.3l0,0c0.3,0.3,0.5,0.6,0.5,1c0.1,0.6-0.4,1.2-1,1.2C170.5,13.9,170.4,13.9,170.3,13.9L170.3,13.9"/>
	<path style="fill:#9B9C9E;" d="M164.9,7c0,0.6-0.4,1.1-1,1.1c-0.3,0-0.5-0.1-0.7-0.3c-0.3-0.2-0.4-0.5-0.5-0.9c0-0.1,0-0.1,0-0.2
		c0-0.6,0.5-1,1-1C164.3,5.8,164.9,6.3,164.9,7"/>
	<path style="fill:#FFFFFF;" d="M166.2,11.7c-0.2-0.1-0.3-0.3-0.5-0.5c-0.2-0.2-0.3-0.5-0.3-0.8c0-0.1,0-0.2,0-0.2
		c0-0.5,0.1-0.9,0.4-1.3c0.1-0.1,0.3-0.3,0.5-0.3c0.2-0.1,0.5-0.2,0.7-0.2h0c0.1,0,0.2,0,0.3,0c0.3,0.1,0.6,0.2,0.8,0.4
		c0.2,0.2,0.4,0.4,0.6,0.7l-0.1,0c-0.6,0-1.2,0.2-1.7,0.7C166.4,10.6,166.2,11.1,166.2,11.7"/>
	<path style="fill:#FFFFFF;" d="M168.9,14.5c-0.6,0-1.1-0.2-1.6-0.6c0.1-0.2,0.3-0.4,0.5-0.4h0l0.1,0l0.5,0.1l-0.4-0.3
		c0,0-0.1-0.1-0.3-0.1h0c-0.1,0-0.3,0-0.5,0.1l0,0l0,0l-0.1,0c0,0,0,0-0.1,0c-0.1-0.2-0.3-0.4-0.5-0.5c-0.1-0.2-0.1-0.4-0.1-0.6
		l0-0.1c0,0,0-0.1,0-0.1c0-0.6,0.2-1.2,0.6-1.6c0.4-0.4,0.9-0.6,1.4-0.6h0c0.1,0,0.2,0,0.3,0c0.1,0,0.1,0,0.2,0
		c0.7,0.2,1.3,0.6,1.6,1.2c-0.2-0.1-0.3-0.1-0.5-0.1h0c-0.4,0-0.8,0.2-1,0.4c-0.3,0.3-0.4,0.7-0.4,1.1c0.1,0.7,0.5,1.3,1.2,1.5l0,0
		c-0.1,0.1-0.2,0.2-0.3,0.3l0,0C169.3,14.5,169.1,14.5,168.9,14.5L168.9,14.5"/>
	<path style="fill:#FFFFFF;" d="M162,14.2c-0.5,0-0.9-0.3-1.1-0.8c0-0.1-0.1-0.2-0.1-0.4c0-0.2,0-0.4,0.1-0.5
		c0.2-0.1,0.4-0.3,0.5-0.5c0.1,0,0.2-0.1,0.4-0.1h0c0.5,0,1,0.4,1.1,0.9c-0.1,0-0.1,0-0.2,0h0c-0.2,0-0.5,0-0.7,0.3l-0.3,0.3
		l0.5-0.1c0,0,0,0,0.1,0h0c0.2,0,0.4,0,0.6,0.2C162.8,13.9,162.4,14.2,162,14.2L162,14.2"/>
	<path style="fill:#FFFFFF;" d="M161.8,9.2c-0.1,0-0.1,0-0.2,0c0.3-0.3,0.5-0.7,0.5-1.2c-0.1-0.7-0.6-1.4-1.3-1.5
		c0.1,0,0.1-0.1,0.2-0.1l0,0c0.1,0,0.2,0.1,0.2,0.1l0.1,0.1l0.1-0.1c0.2-0.1,0.4-0.2,0.7-0.2h0c0.2,0.1,0.4,0.2,0.5,0.4
		c0,0,0,0.1,0,0.1c0,0.4,0.2,0.7,0.5,0.9c0,0.4-0.1,0.7-0.3,1C162.5,9.1,162.1,9.2,161.8,9.2L161.8,9.2"/>
	<path style="fill:#9B9C9E;" d="M166.3,14.3c-0.1-0.4-0.5-0.8-0.9-0.8h0c-0.4,0-0.6,0.2-0.8,0.5l-0.1,0l-0.1,0l-0.1,0
		c-0.1,0-0.1,0-0.2,0.1l0,0c-0.4-0.8-0.4-1.4-0.3-1.5l0.3-0.3l-0.4,0c-0.1,0-0.2,0-0.3,0.1c0-0.1,0.1-0.2,0.1-0.3
		c0-0.1,0.1-0.1,0.1-0.2c0.2-0.2,0.4-0.3,0.6-0.4c0.1,0,0.3-0.1,0.4-0.1h0c0.2,0,0.4,0,0.6,0.1c0.3,0.1,0.5,0.3,0.7,0.5
		c0,0.2,0.1,0.5,0.2,0.7l0,0.1c0,0,0,0,0.1,0c0.1,0.1,0.1,0.3,0.2,0.4C166.6,13.8,166.5,14,166.3,14.3L166.3,14.3"/>
	<path style="fill:#9B9C9E;" d="M160.5,6.7c0.7,0,1.3,0.6,1.4,1.4c0,0.5-0.2,1-0.7,1.2c-0.1,0.1-0.3,0.1-0.5,0.1
		c-0.7,0-1.3-0.6-1.4-1.4c-0.1-0.7,0.4-1.2,1-1.3C160.4,6.7,160.4,6.7,160.5,6.7"/>
	<path style="fill:#FFFFFF;" d="M163.1,12.5c-0.2-0.5-0.8-0.9-1.3-0.9h0c-0.1,0-0.1,0-0.2,0c0-0.1,0-0.3,0-0.5
		c0-0.3-0.2-0.6-0.4-0.9c0.1,0,0.2,0,0.3,0h0c0.9,0,1.7,0.8,1.8,1.8l0,0.1C163.3,12.2,163.2,12.4,163.1,12.5"/>
	<path style="fill:#FFFFFF;" d="M163.6,11.7c-0.2-1-1.1-1.8-2.1-1.8h0c-0.2,0-0.4,0-0.6,0.1c-0.3-0.2-0.6-0.3-0.9-0.3h0
		c-0.4,0-0.8,0.2-1,0.5c0-0.1-0.1-0.1-0.1-0.2l0,0c0.1-0.2,0.3-0.3,0.5-0.4l0.1,0l0-0.1l0,0l0,0c0-0.2,0-0.3,0-0.4
		c0.3,0.4,0.7,0.6,1.2,0.6h0c0.2,0,0.3,0,0.5-0.1c0.2,0.1,0.4,0.1,0.6,0.1h0c0.4,0,0.8-0.2,1.1-0.5c0.2-0.3,0.4-0.6,0.4-1
		c0.2,0.1,0.4,0.1,0.6,0.1h0c0.3,0,0.6-0.1,0.8-0.4c0.1-0.1,0.2-0.2,0.2-0.3c0.1,0.2,0.2,0.5,0.4,0.6c0,0.1,0,0.2,0,0.3
		c0,0.1,0,0.2,0,0.3c-0.3,0.4-0.5,0.9-0.4,1.5c0,0.1,0,0.1,0,0.2c-0.2,0.3-0.4,0.6-0.7,0.9C164,11.4,163.8,11.6,163.6,11.7 M159.1,8
		c0-0.1,0-0.2,0-0.3c0-0.4,0.1-0.7,0.3-1c0.2-0.2,0.5-0.4,0.9-0.4h0h0.1l0.1,0l0,0c-0.1,0.1-0.2,0.1-0.2,0.2
		C159.6,6.7,159.1,7.3,159.1,8 M162.6,6.4c0,0-0.1-0.1-0.1-0.1l0,0c0.2-0.5,0.6-0.8,1.1-0.9h0c0.1,0.1,0.2,0.1,0.3,0.2
		c-0.1,0-0.1,0-0.2,0h0C163.2,5.6,162.8,6,162.6,6.4"/>
	<path style="fill:#9B9C9E;" d="M160.3,12.4c-0.1,0-0.1,0-0.2,0c-0.6-0.1-1-0.6-1-1.2c0-0.2,0-0.4,0.1-0.6c0.2-0.3,0.5-0.6,0.9-0.6
		h0c0.3,0,0.6,0.1,0.8,0.3c0.3,0.2,0.4,0.5,0.4,0.9c0,0.2,0,0.4-0.1,0.6c-0.1,0.2-0.2,0.3-0.4,0.4C160.6,12.3,160.4,12.4,160.3,12.4
		L160.3,12.4"/>
	<path style="fill:#9B9C9E;" d="M157.1,25.7c0,0.4,0.3,0.6,0.7,0.6c0.2,0,0.6-0.1,0.6-0.4c0-0.3-0.5-0.4-0.9-0.5
		c-0.4-0.1-0.9-0.3-0.9-0.9c0-0.6,0.6-0.9,1.1-0.9c0.6,0,1.2,0.3,1.2,1h-0.6c0-0.4-0.3-0.5-0.6-0.5c-0.2,0-0.5,0.1-0.5,0.3
		c0,0.2,0.1,0.3,0.9,0.5c0.2,0.1,0.9,0.2,0.9,0.9c0,0.5-0.4,1-1.2,1c-0.7,0-1.3-0.3-1.3-1.1H157.1z"/>
	<polygon style="fill:#9B9C9E;" points="159.4,23.7 161.6,23.7 161.6,24.3 160,24.3 160,24.9 161.5,24.9 161.5,25.4 160,25.4 
		160,26.1 161.6,26.1 161.6,26.7 159.4,26.7 	"/>
	<path style="fill:#9B9C9E;" d="M162.1,23.7h1.3c0.8,0,1.4,0.5,1.4,1.5c0,0.9-0.4,1.5-1.4,1.5h-1.3V23.7z M162.7,26.1h0.6
		c0.4,0,0.7-0.2,0.7-0.9c0-0.6-0.2-1-0.9-1h-0.5V26.1z"/>
	<polygon style="fill:#9B9C9E;" points="165.2,23.7 167.4,23.7 167.4,24.3 165.9,24.3 165.9,24.9 167.3,24.9 167.3,25.4 165.9,25.4 
		165.9,26.1 167.5,26.1 167.5,26.7 165.2,26.7 	"/>
	<polygon style="fill:#9B9C9E;" points="167.9,23.7 168.8,23.7 169.5,25.8 169.5,25.8 170.2,23.7 171.1,23.7 171.1,26.7 170.5,26.7 
		170.5,24.6 170.5,24.6 169.8,26.7 169.3,26.7 168.5,24.6 168.5,24.6 168.5,26.7 167.9,26.7 	"/>
	<path style="fill:#9B9C9E;" d="M172.5,23.7h0.7l1.1,3h-0.7l-0.2-0.7h-1.1l-0.2,0.7h-0.7L172.5,23.7z M172.5,25.5h0.8l-0.4-1.1h0
		L172.5,25.5z"/>
	<path style="fill:#1A171B;" d="M64.3,28.4L64.3,28.4c0-0.9,0.6-1.5,1.5-1.5c0.6,0,0.9,0.2,1.2,0.5l-0.3,0.4
		c-0.2-0.2-0.5-0.4-0.8-0.4c-0.6,0-1,0.5-1,1.1v0c0,0.6,0.4,1.1,1,1.1c0.4,0,0.6-0.1,0.9-0.4l0.3,0.3c-0.3,0.3-0.7,0.5-1.2,0.5
		C65,29.9,64.3,29.3,64.3,28.4"/>
	<rect x="67.6" y="26.9" style="fill:#1A171B;" width="0.5" height="3"/>
	<path style="fill:#1A171B;" d="M68.9,28.6v-1.7h0.5v1.7c0,0.6,0.3,0.8,0.8,0.8c0.5,0,0.7-0.3,0.7-0.8v-1.7h0.5v1.7
		c0,0.9-0.5,1.3-1.3,1.3C69.4,29.9,68.9,29.5,68.9,28.6"/>
	<path style="fill:#1A171B;" d="M72.2,26.9h1.1c0.9,0,1.6,0.6,1.6,1.5v0c0,0.8-0.6,1.5-1.6,1.5h-1.1V26.9z M73.3,29.4
		c0.6,0,1-0.4,1-1v0c0-0.6-0.4-1-1-1h-0.6v2H73.3z"/>
	<path style="fill:#1A171B;" d="M76.4,26.9h0.5l1.3,3h-0.6l-0.3-0.7h-1.4l-0.3,0.7H75L76.4,26.9z M77.1,28.7l-0.5-1.2l-0.5,1.2H77.1
		z"/>
	<path style="fill:#1A171B;" d="M78.7,26.9h1.1c0.9,0,1.6,0.6,1.6,1.5v0c0,0.8-0.7,1.5-1.6,1.5h-1.1V26.9z M79.8,29.4
		c0.6,0,1-0.4,1-1v0c0-0.6-0.4-1-1-1h-0.6v2H79.8z"/>
	<path style="fill:#1A171B;" d="M83.3,26.9h1.1c0.9,0,1.6,0.6,1.6,1.5v0c0,0.8-0.6,1.5-1.6,1.5h-1.1V26.9z M84.4,29.4
		c0.6,0,1-0.4,1-1v0c0-0.6-0.4-1-1-1h-0.6v2H84.4z"/>
	<polygon style="fill:#1A171B;" points="86.6,26.9 88.8,26.9 88.8,27.4 87.1,27.4 87.1,28.2 88.6,28.2 88.6,28.6 87.1,28.6 
		87.1,29.4 88.9,29.4 88.9,29.9 86.6,29.9 	"/>
	<polygon style="fill:#1A171B;" points="90.8,26.9 91.3,26.9 92.2,28.3 93.1,26.9 93.7,26.9 93.7,29.9 93.2,29.9 93.2,27.8 
		92.2,29.2 92.2,29.2 91.3,27.8 91.3,29.9 90.8,29.9 	"/>
	<path style="fill:#1A171B;" d="M94.5,26.9h2.2v0.5H95v0.8h1.5v0.5H95v0.8h1.7v0.5h-2.2V26.9z M95.7,26l0.5,0.2l-0.5,0.5h-0.4
		L95.7,26z"/>
	<polygon style="fill:#1A171B;" points="98.2,28.4 97.1,26.9 97.7,26.9 98.5,28 99.2,26.9 99.8,26.9 98.8,28.4 99.9,29.9 99.3,29.9 
		98.5,28.8 97.7,29.9 97.1,29.9 	"/>
	<rect x="100.4" y="26.9" style="fill:#1A171B;" width="0.5" height="3"/>
	<path style="fill:#1A171B;" d="M101.6,28.4L101.6,28.4c0-0.9,0.6-1.5,1.5-1.5c0.6,0,0.9,0.2,1.2,0.5l-0.3,0.4
		c-0.2-0.2-0.5-0.4-0.8-0.4c-0.6,0-1,0.5-1,1.1v0c0,0.6,0.4,1.1,1,1.1c0.4,0,0.6-0.1,0.9-0.4l0.3,0.3c-0.3,0.3-0.7,0.5-1.2,0.5
		C102.3,29.9,101.6,29.3,101.6,28.4"/>
	<path style="fill:#1A171B;" d="M104.7,28.4L104.7,28.4c0-0.8,0.7-1.5,1.6-1.5c0.9,0,1.6,0.7,1.6,1.5v0c0,0.8-0.6,1.5-1.6,1.5
		C105.3,29.9,104.7,29.2,104.7,28.4 M107.3,28.4L107.3,28.4c0-0.6-0.4-1.1-1-1.1s-1,0.5-1,1.1v0c0,0.6,0.4,1.1,1,1.1
		S107.3,29,107.3,28.4"/>
	<path style="fill:#1A171B;" d="M52.2,22.6c-2.9,0-5.5-1.1-7.4-3.1c-1.9-2-2.9-4.7-2.9-7.6v-0.1c0-6,4.6-10.7,10.4-10.7
		c3.7,0,5.9,1.3,8.1,3.3l0.1,0.1L59.1,6L59,5.8c-2.7-2.6-4.9-3-6.8-3c-2.3,0-4.4,0.9-6,2.6c-1.6,1.7-2.4,3.9-2.4,6.4v0.1
		c0,5,3.7,9,8.5,9c2.6,0,4.6-0.9,6.9-3.1l0.1-0.1l1.3,1.3L60.4,19C57.2,22.2,54.4,22.6,52.2,22.6"/>
	<path style="fill:#1A171B;" d="M71.5,22.3h-7V1.5h7c6.4,0,11.1,4.3,11.1,10.4v0.1c0,2.9-1.1,5.5-3.1,7.4
		C77.5,21.2,74.7,22.3,71.5,22.3 M66.4,20.5h5.1c2.7,0,5-0.9,6.7-2.5c1.6-1.5,2.5-3.7,2.5-6.1v-0.1c0-2.4-0.9-4.5-2.5-6.1
		c-1.7-1.7-4-2.5-6.7-2.5h-5.1V20.5z"/>
	<polygon style="fill:#E1007A;" points="86.6,1.5 91.6,1.5 97.1,10.3 102.5,1.5 107.5,1.5 107.5,22.3 102.9,22.3 102.9,8.7 
		97.1,17.6 96.9,17.6 91.1,8.8 91.1,22.3 86.6,22.3 	"/>
	<polygon style="fill:#E1007A;" points="118.3,11.7 111.4,1.5 116.7,1.5 121.1,8.2 125.5,1.5 130.7,1.5 123.8,11.7 131,22.3 
		125.7,22.3 121,15.2 116.3,22.3 111.1,22.3 	"/>
	<polygon style="fill:#7C0042;" points="118.3,11.7 111.4,1.5 116.7,1.5 121.1,8.2 125.5,1.5 130.7,1.5 123.8,11.7 131,22.3 
		125.7,22.3 121,15.2 116.3,22.3 111.1,22.3 	"/>
	<polygon style="fill:#E1007A;" points="118.3,11.7 111.4,1.5 116.7,1.5 121.1,8.2 125.5,1.5 130.7,1.5 123.8,11.7 131,22.3 
		125.7,22.3 121,15.2 116.3,22.3 111.1,22.3 	"/>
</g>
</svg>
