<?xml version="1.0" encoding="utf-8"?>
<!-- Generator: Adobe Illustrator 16.0.3, SVG Export Plug-In . SVG Version: 6.00 Build 0)  -->
<!DOCTYPE svg PUBLIC "-//W3C//DTD SVG 1.1//EN" "http://www.w3.org/Graphics/SVG/1.1/DTD/svg11.dtd">
<svg version="1.1" id="Capa_1" xmlns="http://www.w3.org/2000/svg" xmlns:xlink="http://www.w3.org/1999/xlink" x="0px" y="0px"
	 width="75.9px" height="62px" viewBox="0 5.9 75.9 62" style="enable-background:new 0 5.9 75.9 62;" xml:space="preserve">
<g>
	<g>
		<g>
			<path style="fill:#00792C;" d="M18.4,56.2c-6.8,0-12.3-0.1-12.3-0.3c0-0.2,5.5-0.3,12.3-0.3h17.1v0.6H18.4z"/>
			<path style="fill:#D0003C;" d="M57.3,55.5c6.8,0,12.3,0.1,12.3,0.3c0,0.2-5.5,0.3-12.3,0.3H40.2v-0.6H57.3z"/>
		</g>
		<g>
			<g>
				<path style="fill:#6B6C71;" d="M15.5,61.5c-0.7,0-1.2-0.4-1.2-1.1c0-0.7,0.5-1.2,1.3-1.2c0.3,0,0.6,0.1,0.8,0.1c0,0,0,0.1,0,0.2
					c0,0.2,0,0.4,0,0.5h-0.1c0-0.5-0.2-0.6-0.6-0.6c-0.6,0-0.9,0.4-0.9,1c0,0.6,0.4,1,0.9,1c0.4,0,0.6-0.2,0.7-0.5h0.1
					c0,0.1,0,0.4-0.1,0.5C16.1,61.5,15.8,61.5,15.5,61.5z"/>
				<path style="fill:#6B6C71;" d="M16.6,60.4c0-0.7,0.5-1.2,1.2-1.2c0.7,0,1.2,0.5,1.2,1.1c0,0.7-0.5,1.2-1.2,1.2
					C17,61.5,16.6,61.1,16.6,60.4z M18.6,60.4c0-0.5-0.2-1-0.8-1c-0.5,0-0.8,0.4-0.8,1c0,0.5,0.3,1,0.8,1
					C18.3,61.4,18.6,60.9,18.6,60.4z"/>
				<path style="fill:#6B6C71;" d="M19.1,61.5L19.1,61.5l0.1-0.1c0.1,0,0.2-0.1,0.2-0.3c0-0.1,0.1-1.2,0.2-1.6
					c-0.1-0.1-0.1-0.2-0.2-0.2l-0.1,0v-0.1h0.5c0.1,0,0.4,0.6,0.8,1.7h0c0.1-0.3,0.5-1.3,0.6-1.7h0.7v0.1l-0.1,0
					c-0.1,0-0.2,0.1-0.2,0.2c0,0.1,0.1,1.4,0.1,1.6c0,0.2,0,0.3,0.2,0.3l0.1,0v0.1H21v-0.1l0.1,0c0.1,0,0.2,0,0.2-0.2
					c0-0.1-0.1-0.9-0.1-1.5h0c-0.2,0.5-0.5,1.1-0.6,1.6c0,0-0.1,0-0.2,0c-0.3-0.7-0.5-1.3-0.7-1.6h0c0,0.5-0.1,1.3-0.1,1.4
					c0,0.1,0,0.2,0.2,0.2l0.1,0v0.1H19.1z"/>
				<path style="fill:#6B6C71;" d="M22.1,61.5L22.1,61.5l0.2-0.1c0.1,0,0.2-0.1,0.2-0.5v-1c0-0.5,0-0.5-0.2-0.5l-0.2,0v-0.1h1v0.1
					l-0.2,0c-0.1,0-0.2,0.1-0.2,0.5v1c0,0.5,0,0.5,0.2,0.5l0.2,0v0.1H22.1z"/>
				<path style="fill:#6B6C71;" d="M23.2,61.5c0-0.1,0-0.4,0-0.5h0.1c0.1,0.3,0.3,0.4,0.5,0.4c0.2,0,0.4-0.1,0.4-0.3
					c0-0.2-0.1-0.3-0.3-0.4l-0.3-0.2c-0.2-0.2-0.5-0.4-0.5-0.6c0-0.4,0.3-0.6,0.7-0.6c0.3,0,0.4,0.1,0.6,0.1c0,0.2,0,0.4-0.1,0.6
					h-0.1c0-0.3-0.2-0.5-0.4-0.5c-0.2,0-0.4,0.1-0.4,0.3c0,0.2,0.1,0.3,0.3,0.4l0.2,0.2c0.3,0.2,0.5,0.4,0.5,0.6
					c0,0.4-0.4,0.6-0.8,0.6C23.6,61.5,23.4,61.5,23.2,61.5z"/>
				<path style="fill:#6B6C71;" d="M24.8,61.5L24.8,61.5l0.2-0.1c0.1,0,0.2-0.1,0.2-0.5v-1c0-0.5,0-0.5-0.2-0.5l-0.2,0v-0.1h0.9v0.1
					l-0.1,0c-0.1,0-0.2,0.1-0.2,0.5v1c0,0.5,0,0.5,0.2,0.5l0.1,0v0.1H24.8z"/>
				<path style="fill:#6B6C71;" d="M25.8,60.4c0-0.7,0.5-1.2,1.2-1.2c0.7,0,1.2,0.5,1.2,1.1c0,0.7-0.5,1.2-1.2,1.2
					C26.3,61.5,25.8,61.1,25.8,60.4z M27.8,60.4c0-0.5-0.2-1-0.8-1c-0.5,0-0.8,0.4-0.8,1c0,0.5,0.3,1,0.8,1
					C27.6,61.4,27.8,60.9,27.8,60.4z M26.7,59c0.2-0.1,0.5-0.2,0.6-0.4h0c0,0,0.1,0.1,0.1,0.2C27.5,58.9,26.9,59,26.7,59L26.7,59z"
					/>
				<path style="fill:#6B6C71;" d="M28.8,59.7L28.8,59.7l0,1.2c0,0.5,0,0.5,0.2,0.5l0.2,0v0.1h-0.9v-0.1l0.2,0
					c0.2,0,0.2-0.1,0.2-0.5l0-1.2c0-0.2-0.1-0.3-0.2-0.3l-0.1,0v-0.1h0.6c0.1,0,0.1,0.1,0.2,0.1c0.3,0.4,0.9,1,1.3,1.5l0,0l0-1.1
					c0-0.4,0-0.4-0.2-0.5l-0.1,0v-0.1h0.8v0.1l-0.1,0c-0.2,0-0.2,0.1-0.2,0.5v1.6c0,0-0.1,0-0.1,0C29.9,60.9,29.5,60.4,28.8,59.7z"
					/>
				<path style="fill:#6B6C71;" d="M32.1,59.7L32.1,59.7l0,1.2c0,0.5,0,0.5,0.2,0.5l0.2,0v0.1h-0.9v-0.1l0.2,0
					c0.1,0,0.2-0.1,0.2-0.5l0-1.2c0-0.2-0.1-0.3-0.3-0.3l-0.1,0v-0.1h0.6c0.1,0,0.1,0.1,0.2,0.1c0.3,0.4,0.9,1,1.3,1.5l0,0l0-1.1
					c0-0.4,0-0.4-0.2-0.5l-0.1,0v-0.1h0.8v0.1l-0.1,0c-0.2,0-0.2,0.1-0.2,0.5v1.6c0,0-0.1,0-0.1,0C33.2,60.9,32.8,60.4,32.1,59.7z"
					/>
				<path style="fill:#6B6C71;" d="M34,61.5L34,61.5c0.2-0.1,0.2-0.1,0.3-0.4l0.8-1.9c0,0,0,0,0.1,0c0.1,0.3,0.7,1.8,0.8,2
					c0.1,0.1,0.1,0.1,0.2,0.1v0.1h-1v-0.1l0.1,0c0.1,0,0.2,0,0.2-0.1c0-0.1,0-0.2-0.1-0.3l-0.1-0.3c-0.1,0-0.7,0-0.7,0l-0.1,0.2
					c0,0.1-0.1,0.3-0.1,0.4c0,0.1,0.1,0.1,0.3,0.1v0.1H34z M35.1,59.8L35.1,59.8c-0.1,0.2-0.2,0.5-0.3,0.7l0.6,0L35.1,59.8z"/>
				<path style="fill:#6B6C71;" d="M37.5,61.5c-0.7,0-1.2-0.4-1.2-1.1c0-0.7,0.5-1.2,1.3-1.2c0.3,0,0.6,0.1,0.8,0.1c0,0,0,0.1,0,0.2
					c0,0.2,0,0.4,0,0.5h-0.1c0-0.5-0.3-0.6-0.7-0.6c-0.5,0-0.9,0.4-0.9,1c0,0.6,0.4,1,0.9,1c0.4,0,0.6-0.2,0.7-0.5h0.1
					c0,0.1,0,0.4-0.1,0.5C38.1,61.5,37.8,61.5,37.5,61.5z"/>
				<path style="fill:#6B6C71;" d="M38.6,61.5L38.6,61.5l0.2-0.1c0.1,0,0.2-0.1,0.2-0.5v-1c0-0.5,0-0.5-0.2-0.5l-0.2,0v-0.1h1v0.1
					l-0.2,0c-0.1,0-0.2,0.1-0.2,0.5v1c0,0.5,0,0.5,0.2,0.5l0.2,0v0.1H38.6z"/>
				<path style="fill:#6B6C71;" d="M39.7,60.4c0-0.7,0.5-1.2,1.2-1.2c0.7,0,1.2,0.5,1.2,1.1c0,0.7-0.5,1.2-1.2,1.2
					C40.1,61.5,39.7,61.1,39.7,60.4z M41.6,60.4c0-0.5-0.2-1-0.8-1c-0.5,0-0.8,0.4-0.8,1c0,0.5,0.3,1,0.8,1
					C41.4,61.4,41.6,60.9,41.6,60.4z"/>
				<path style="fill:#6B6C71;" d="M42.7,59.7L42.7,59.7l0,1.2c0,0.5,0,0.5,0.2,0.5l0.2,0v0.1h-0.9v-0.1l0.2,0
					c0.2,0,0.2-0.1,0.2-0.5v-1.2c0-0.2-0.1-0.3-0.2-0.3l-0.1,0v-0.1h0.5c0.1,0,0.1,0.1,0.2,0.1c0.3,0.4,0.9,1,1.3,1.5l0,0l0-1.1
					c0-0.4,0-0.4-0.2-0.5l-0.1,0v-0.1h0.8v0.1l-0.1,0c-0.1,0-0.2,0.1-0.2,0.5v1.6c0,0-0.1,0-0.1,0C43.7,60.9,43.3,60.4,42.7,59.7z"
					/>
				<path style="fill:#6B6C71;" d="M44.5,61.5L44.5,61.5c0.2-0.1,0.3-0.1,0.4-0.4l0.8-1.9c0,0,0.1,0,0.1,0c0.1,0.3,0.7,1.8,0.8,2
					c0.1,0.1,0.1,0.1,0.2,0.1v0.1h-1v-0.1l0.1,0c0.1,0,0.2,0,0.2-0.1c0-0.1,0-0.2-0.1-0.3L46,60.7c-0.1,0-0.7,0-0.7,0l-0.1,0.2
					c-0.1,0.1-0.1,0.3-0.1,0.4c0,0.1,0.1,0.1,0.3,0.1v0.1H44.5z M45.6,59.8L45.6,59.8c-0.1,0.2-0.2,0.5-0.3,0.7l0.6,0L45.6,59.8z"/>
				<path style="fill:#6B6C71;" d="M46.9,61.4l0.2,0c0.1,0,0.2-0.1,0.2-0.5v-1c0-0.5,0-0.5-0.2-0.5l-0.2,0v-0.1h1v0.1l-0.2,0
					c-0.1,0-0.2,0.1-0.2,0.5v1c0,0.5,0,0.5,0.2,0.5H48c0.2,0,0.4-0.2,0.4-0.4h0.1c0,0.1,0,0.4-0.1,0.6L46.9,61.4L46.9,61.4z"/>
				<path style="fill:#6B6C71;" d="M49.4,61.5L49.4,61.5l0.2-0.1c0.1,0,0.2-0.1,0.2-0.5v-1c0-0.5,0-0.5-0.2-0.5l-0.2,0v-0.1
					c0.2,0,0.7,0,0.8,0c0.5,0,0.8,0.2,0.8,0.6c0,0.4-0.4,0.7-0.8,0.7c-0.1,0-0.1,0-0.2,0v0.3c0,0.5,0,0.5,0.2,0.5l0.2,0v0.1H49.4z
					 M50.7,59.9c0-0.3-0.2-0.5-0.4-0.5c-0.1,0-0.2,0-0.2,0v1c0.1,0,0.1,0,0.2,0C50.5,60.4,50.7,60.2,50.7,59.9z"/>
				<path style="fill:#6B6C71;" d="M50.9,61.5L50.9,61.5c0.2-0.1,0.3-0.1,0.3-0.4l0.8-1.9c0,0,0.1,0,0.1,0c0.1,0.3,0.7,1.8,0.8,2
					c0.1,0.1,0.1,0.1,0.2,0.1v0.1h-1v-0.1l0.1,0c0.1,0,0.2,0,0.2-0.1c0-0.1,0-0.2-0.1-0.3l-0.1-0.3c-0.1,0-0.7,0-0.7,0l-0.1,0.2
					c-0.1,0.1-0.1,0.3-0.1,0.4c0,0.1,0.1,0.1,0.3,0.1v0.1H50.9z M52,59.8L52,59.8c-0.1,0.2-0.2,0.5-0.3,0.7l0.6,0L52,59.8z"/>
				<path style="fill:#6B6C71;" d="M53.2,61.5L53.2,61.5l0.2-0.1c0.1,0,0.2-0.1,0.2-0.5v-1c0-0.5,0-0.5-0.2-0.5l-0.2,0v-0.1
					c0.2,0,0.7,0,0.8,0c0.5,0,0.8,0.2,0.8,0.6c0,0.3-0.2,0.5-0.4,0.6c0.3,0.6,0.5,0.9,0.7,1c0.1,0,0.1,0,0.2,0v0.1
					c-0.3,0-0.4,0-0.5,0c-0.1,0-0.1,0-0.1,0c-0.1-0.1-0.3-0.4-0.5-0.8c-0.1-0.1-0.1-0.2-0.2-0.2h-0.2v0.3c0,0.5,0,0.5,0.2,0.5l0.2,0
					v0.1H53.2z M54.2,60.4c0.2,0,0.3-0.2,0.3-0.5c0-0.3-0.2-0.5-0.4-0.5c-0.1,0-0.2,0-0.2,0v1H54.2z"/>
				<path style="fill:#6B6C71;" d="M55.2,61.5L55.2,61.5c0.2-0.1,0.2-0.1,0.3-0.4l0.8-1.9c0,0,0,0,0.1,0c0.1,0.3,0.7,1.8,0.8,2
					c0.1,0.1,0.1,0.1,0.2,0.1v0.1h-1v-0.1l0.1,0c0.1,0,0.2,0,0.2-0.1c0-0.1,0-0.2-0.1-0.3l-0.1-0.3c-0.1,0-0.7,0-0.7,0l-0.1,0.2
					c0,0.1-0.1,0.3-0.1,0.4c0,0.1,0.1,0.1,0.3,0.1v0.1H55.2z M56.3,59.8L56.3,59.8c-0.1,0.2-0.2,0.5-0.3,0.7l0.6,0L56.3,59.8z"/>
				<path style="fill:#6B6C71;" d="M58.3,61.5L58.3,61.5l0.1-0.1c0.1,0,0.2-0.1,0.2-0.5v-1c0-0.5,0-0.5-0.2-0.5l-0.1,0v-0.1h1.5
					c0,0,0,0.1,0,0.1c0,0.1,0,0.3,0,0.4h-0.1c0-0.3-0.1-0.4-0.3-0.4c-0.1,0-0.3,0-0.4,0v0.8h0.2c0.3,0,0.4,0,0.4-0.2h0.1l0,0.6h-0.1
					l0-0.1c0-0.1-0.1-0.2-0.4-0.2H59v0.4c0,0.5,0,0.5,0.2,0.5h0.2c0.3,0,0.4-0.1,0.4-0.4h0.1c0,0.2,0,0.4-0.1,0.5H58.3z"/>
				<path style="fill:#6B6C71;" d="M60,61.4l0.2,0c0.1,0,0.2-0.1,0.2-0.5v-1c0-0.5,0-0.5-0.2-0.5l-0.2,0v-0.1h1v0.1l-0.2,0
					c-0.1,0-0.2,0.1-0.2,0.5v1c0,0.5,0,0.5,0.2,0.5h0.3c0.2,0,0.4-0.2,0.4-0.4h0.1c0,0.1,0,0.4-0.1,0.6L60,61.4L60,61.4z"/>
				<path style="fill:#6B6C71;" d="M3.3,66.8c-0.7,0-1.2-0.4-1.2-1.1c0-0.7,0.5-1.2,1.2-1.2c0.3,0,0.6,0.1,0.8,0.1c0,0,0,0.1,0,0.2
					c0,0.2,0,0.4,0,0.5H4c0-0.5-0.3-0.6-0.6-0.6c-0.6,0-0.9,0.4-0.9,1c0,0.6,0.4,1,0.9,1c0.4,0,0.6-0.2,0.7-0.5h0.1
					c0,0.1,0,0.4-0.1,0.5C3.9,66.8,3.6,66.8,3.3,66.8z"/>
				<path style="fill:#6B6C71;" d="M4.4,65.7c0-0.7,0.5-1.2,1.2-1.2c0.7,0,1.2,0.5,1.2,1.1c0,0.7-0.5,1.2-1.2,1.2
					C4.9,66.8,4.4,66.4,4.4,65.7z M6.4,65.7c0-0.5-0.2-1-0.8-1c-0.5,0-0.8,0.4-0.8,1c0,0.5,0.3,1,0.8,1C6.1,66.7,6.4,66.2,6.4,65.7z
					"/>
				<path style="fill:#6B6C71;" d="M7.4,65L7.4,65l0,1.2c0,0.5,0,0.5,0.2,0.5l0.2,0v0.1H6.9v-0.1l0.2,0c0.1,0,0.2-0.1,0.2-0.5l0-1.2
					c0-0.2-0.1-0.3-0.3-0.3l-0.1,0v-0.1h0.5c0.1,0,0.1,0.1,0.2,0.1c0.3,0.4,0.9,1,1.3,1.5l0,0l0-1.1c0-0.4,0-0.4-0.2-0.5l-0.1,0
					v-0.1h0.8v0.1l-0.1,0c-0.2,0-0.2,0.1-0.2,0.5v1.6c0,0-0.1,0-0.1,0C8.5,66.2,8,65.7,7.4,65z"/>
				<path style="fill:#6B6C71;" d="M9.5,65.7c0-0.7,0.5-1.2,1.2-1.2c0.7,0,1.2,0.5,1.2,1.1c0,0.7-0.5,1.2-1.2,1.2
					C9.9,66.8,9.5,66.4,9.5,65.7z M11.5,65.7c0-0.5-0.3-1-0.8-1c-0.5,0-0.8,0.4-0.8,1c0,0.5,0.3,1,0.8,1
					C11.2,66.7,11.5,66.2,11.5,65.7z"/>
				<path style="fill:#6B6C71;" d="M13.3,66.8c-0.7,0-1.2-0.4-1.2-1.1c0-0.7,0.5-1.2,1.3-1.2c0.3,0,0.6,0.1,0.8,0.1c0,0,0,0.1,0,0.2
					c0,0.2,0,0.4,0,0.5H14c0-0.5-0.3-0.6-0.7-0.6c-0.6,0-0.9,0.4-0.9,1c0,0.6,0.4,1,0.9,1c0.4,0,0.6-0.2,0.7-0.5h0.1
					c0,0.1,0,0.4-0.1,0.5C13.9,66.8,13.6,66.8,13.3,66.8z"/>
				<path style="fill:#6B6C71;" d="M14.4,66.8L14.4,66.8l0.2-0.1c0.1,0,0.2-0.1,0.2-0.5v-1c0-0.5,0-0.5-0.2-0.5l-0.2,0v-0.1h1v0.1
					l-0.2,0c-0.1,0-0.2,0.1-0.2,0.5v1c0,0.5,0,0.5,0.2,0.5l0.2,0v0.1H14.4z"/>
				<path style="fill:#6B6C71;" d="M15.4,66.8L15.4,66.8l0.1-0.1c0.1,0,0.2-0.1,0.2-0.3c0-0.1,0.1-1.2,0.2-1.6
					c-0.1-0.1-0.1-0.2-0.2-0.2l-0.1,0v-0.1h0.5c0.1,0,0.4,0.6,0.8,1.7h0c0.1-0.3,0.5-1.3,0.6-1.7h0.7v0.1l-0.1,0
					c-0.1,0-0.2,0.1-0.2,0.2c0,0.2,0.1,1.4,0.1,1.6c0,0.2,0,0.3,0.2,0.3l0.2,0v0.1h-0.9v-0.1l0.1,0c0.1,0,0.2,0,0.2-0.2
					c0-0.1-0.1-0.9-0.1-1.5h0c-0.2,0.5-0.5,1.1-0.6,1.6c0,0-0.1,0-0.2,0c-0.3-0.7-0.5-1.3-0.7-1.6h0c0,0.5-0.1,1.3-0.1,1.4
					c0,0.1,0,0.2,0.2,0.2l0.1,0v0.1H15.4z"/>
				<path style="fill:#6B6C71;" d="M18.4,66.8L18.4,66.8l0.2-0.1c0.1,0,0.2-0.1,0.2-0.5v-1c0-0.5,0-0.5-0.2-0.5l-0.2,0v-0.1h1v0.1
					l-0.2,0c-0.1,0-0.2,0.1-0.2,0.5v1c0,0.5,0,0.5,0.2,0.5l0.2,0v0.1H18.4z"/>
				<path style="fill:#6B6C71;" d="M19.5,66.8L19.5,66.8l0.2-0.1c0.1,0,0.2-0.1,0.2-0.5v-1c0-0.5,0-0.5-0.2-0.5l-0.2,0v-0.1H21
					c0,0,0,0.1,0,0.1c0,0.1,0,0.3,0,0.4h-0.1c0-0.3-0.1-0.4-0.3-0.4c-0.1,0-0.3,0-0.4,0v0.8h0.2c0.3,0,0.4,0,0.4-0.2h0.1l0,0.6h-0.1
					l0-0.1c0-0.1-0.1-0.2-0.4-0.2h-0.2v0.4c0,0.5,0,0.5,0.2,0.5h0.2c0.3,0,0.4-0.1,0.4-0.4h0.1c0,0.2,0,0.4-0.1,0.5H19.5z"/>
				<path style="fill:#6B6C71;" d="M21.8,65L21.8,65l0,1.2c0,0.5,0,0.5,0.2,0.5l0.2,0v0.1h-0.9v-0.1l0.1,0c0.2,0,0.2-0.1,0.2-0.5
					l0-1.2c0-0.2-0.1-0.3-0.3-0.3l-0.1,0v-0.1h0.6c0,0,0.1,0.1,0.2,0.1c0.3,0.4,0.9,1,1.3,1.5l0,0l0-1.1c0-0.4,0-0.4-0.2-0.5l-0.2,0
					v-0.1h0.8v0.1l-0.1,0c-0.1,0-0.2,0.1-0.2,0.5v1.6c0,0-0.1,0-0.1,0C22.8,66.2,22.4,65.7,21.8,65z"/>
				<path style="fill:#6B6C71;" d="M25.7,64.5c0,0.1,0.1,0.5,0.1,0.6h-0.1c-0.1-0.3-0.2-0.4-0.4-0.4c-0.1,0-0.3,0-0.4,0v1.4
					c0,0.5,0,0.5,0.2,0.5l0.2,0v0.1h-1v-0.1l0.2,0c0.1,0,0.2-0.1,0.2-0.5v-1.4c-0.1,0-0.2,0-0.4,0c-0.2,0-0.3,0.1-0.4,0.4h-0.1
					c0-0.2,0-0.5,0.1-0.6H25.7z"/>
				<path style="fill:#6B6C71;" d="M25.9,65.7c0-0.7,0.5-1.2,1.2-1.2c0.7,0,1.2,0.5,1.2,1.1c0,0.7-0.5,1.2-1.2,1.2
					C26.4,66.8,25.9,66.4,25.9,65.7z M27.9,65.7c0-0.5-0.2-1-0.8-1c-0.5,0-0.8,0.4-0.8,1c0,0.5,0.3,1,0.8,1
					C27.7,66.7,27.9,66.2,27.9,65.7z"/>
				<path style="fill:#6B6C71;" d="M29.7,66.7l0.2,0c0.2,0,0.2,0,0.2-0.5v-0.4c-0.2-0.4-0.4-0.8-0.5-1c-0.1-0.1-0.2-0.2-0.3-0.2
					v-0.1h0.5c0.1,0,0.1,0.1,0.3,0.3c0.1,0.2,0.2,0.4,0.3,0.7h0c0.2-0.5,0.3-0.7,0.3-0.8c0-0.1,0-0.1-0.1-0.1l-0.2,0v-0.1h0.9v0.1
					c-0.2,0-0.3,0-0.3,0.1c-0.1,0.1-0.3,0.5-0.5,1v0.4c0,0.5,0,0.5,0.2,0.5l0.2,0v0.1L29.7,66.7L29.7,66.7z"/>
				<path style="fill:#6B6C71;" d="M32.3,65.9v-0.7c0-0.5,0-0.5-0.2-0.5l-0.1,0v-0.1h1v0.1l-0.2,0c-0.1,0-0.2,0.1-0.2,0.5v0.6
					c0,0.6,0.2,0.9,0.6,0.9c0.4,0,0.6-0.3,0.6-0.8v-0.6c0-0.5,0-0.5-0.2-0.5l-0.1,0v-0.1h0.9v0.1l-0.1,0c-0.1,0-0.2,0.1-0.2,0.5v0.7
					c0,0.6-0.3,0.9-0.9,0.9C32.6,66.8,32.3,66.5,32.3,65.9z"/>
				<path style="fill:#6B6C71;" d="M34.5,66.8c0-0.1,0-0.4,0-0.5h0.1c0.1,0.3,0.3,0.5,0.5,0.5c0.2,0,0.4-0.1,0.4-0.3
					c0-0.2-0.1-0.3-0.3-0.4L35,65.7c-0.2-0.2-0.5-0.4-0.5-0.6c0-0.4,0.3-0.6,0.7-0.6c0.3,0,0.4,0.1,0.6,0.1c0,0.2,0,0.4-0.1,0.6
					h-0.1c0-0.3-0.2-0.5-0.4-0.5c-0.2,0-0.4,0.1-0.4,0.3c0,0.2,0.1,0.3,0.3,0.4l0.2,0.2c0.3,0.2,0.5,0.4,0.5,0.6
					c0,0.4-0.4,0.6-0.8,0.6C34.9,66.8,34.6,66.8,34.5,66.8z"/>
				<path style="fill:#6B6C71;" d="M36.1,65.7c0-0.7,0.5-1.2,1.2-1.2c0.7,0,1.2,0.5,1.2,1.1c0,0.7-0.5,1.2-1.2,1.2
					C36.6,66.8,36.1,66.4,36.1,65.7z M38.1,65.7c0-0.5-0.3-1-0.8-1c-0.5,0-0.8,0.4-0.8,1c0,0.5,0.3,1,0.8,1
					C37.8,66.7,38.1,66.2,38.1,65.7z"/>
				<path style="fill:#6B6C71;" d="M39.4,66.7l0.1,0c0.1,0,0.2-0.1,0.2-0.5v-1c0-0.5,0-0.5-0.2-0.5l-0.1,0v-0.1c0.5,0,0.8,0,1.1,0
					c0.7,0,1.3,0.3,1.3,1.1c0,0.7-0.5,1.2-1.4,1.2L39.4,66.7L39.4,66.7z M40,66.3c0,0.2,0.1,0.3,0.3,0.3c0.6,0,1-0.3,1-1
					c0-0.6-0.4-1-0.9-1c-0.1,0-0.3,0-0.4,0V66.3z"/>
				<path style="fill:#6B6C71;" d="M41.9,66.8L41.9,66.8l0.2-0.1c0.1,0,0.2-0.1,0.2-0.5v-1c0-0.5,0-0.5-0.2-0.5l-0.2,0v-0.1h1.5
					c0,0,0,0.1,0,0.1c0,0.1,0,0.3,0,0.4h-0.1c0-0.3-0.1-0.4-0.3-0.4c-0.1,0-0.3,0-0.4,0v0.8h0.2c0.3,0,0.4,0,0.4-0.2h0.1l0,0.6h-0.1
					l0-0.1c0-0.1-0.1-0.2-0.4-0.2h-0.2v0.4c0,0.5,0,0.5,0.2,0.5h0.2c0.3,0,0.4-0.1,0.4-0.4h0.1c0,0.2,0,0.4-0.1,0.5H41.9z"/>
				<path style="fill:#6B6C71;" d="M44.3,66.7l0.2,0c0.1,0,0.2-0.1,0.2-0.5v-1c0-0.5,0-0.5-0.2-0.5l-0.2,0v-0.1h1v0.1l-0.2,0
					c-0.1,0-0.2,0.1-0.2,0.5v1c0,0.5,0,0.5,0.2,0.5h0.3c0.2,0,0.4-0.2,0.4-0.4H46c0,0.1,0,0.4-0.1,0.6L44.3,66.7L44.3,66.7z"/>
				<path style="fill:#6B6C71;" d="M46,66.8L46,66.8c0.2-0.1,0.2-0.1,0.3-0.4l0.8-1.9c0,0,0,0,0.1,0c0.1,0.4,0.7,1.8,0.8,2
					c0.1,0.1,0.1,0.1,0.2,0.1v0.1h-1v-0.1l0.1,0c0.1,0,0.2,0,0.2-0.1c0-0.1,0-0.1-0.1-0.3L47.4,66c-0.1,0-0.7,0-0.7,0l-0.1,0.2
					c0,0.1-0.1,0.3-0.1,0.4c0,0.1,0.1,0.1,0.3,0.1v0.1H46z M47.1,65.1L47.1,65.1c-0.1,0.2-0.2,0.5-0.3,0.7l0.6,0L47.1,65.1z"/>
				<path style="fill:#6B6C71;" d="M49.1,66.7l0.1,0c0.1,0,0.2-0.1,0.2-0.5v-1c0-0.4,0-0.5-0.2-0.5l-0.1,0v-0.1c0.2,0,0.6,0,0.8,0
					c0.5,0,0.7,0.2,0.7,0.5c0,0.3-0.2,0.4-0.4,0.5v0c0.3,0,0.6,0.2,0.6,0.5c0,0.4-0.3,0.7-0.9,0.7L49.1,66.7L49.1,66.7z M49.9,65.5
					c0.3,0,0.4-0.2,0.4-0.4c0-0.3-0.1-0.4-0.3-0.4c-0.1,0-0.2,0-0.2,0v0.8L49.9,65.5z M50.4,66.2c0-0.3-0.2-0.5-0.5-0.5l-0.2,0v0.5
					c0,0.5,0,0.5,0.2,0.5C50.2,66.6,50.4,66.5,50.4,66.2z"/>
				<path style="fill:#6B6C71;" d="M50.9,66.8L50.9,66.8l0.2-0.1c0.1,0,0.2-0.1,0.2-0.5v-1c0-0.5,0-0.5-0.2-0.5l-0.2,0v-0.1h1v0.1
					l-0.2,0c-0.1,0-0.2,0.1-0.2,0.5v1c0,0.5,0,0.5,0.2,0.5l0.2,0v0.1H50.9z"/>
				<path style="fill:#6B6C71;" d="M52,65.7c0-0.7,0.5-1.2,1.2-1.2c0.7,0,1.2,0.5,1.2,1.1c0,0.7-0.5,1.2-1.2,1.2
					C52.4,66.8,52,66.4,52,65.7z M54,65.7c0-0.5-0.3-1-0.8-1c-0.5,0-0.8,0.4-0.8,1c0,0.5,0.3,1,0.8,1C53.7,66.7,54,66.2,54,65.7z"/>
				<path style="fill:#6B6C71;" d="M54.5,66.7l0.2,0c0.1,0,0.2-0.1,0.2-0.5v-1c0-0.5,0-0.5-0.2-0.5l-0.2,0v-0.1c0.5,0,0.8,0,1.1,0
					c0.7,0,1.3,0.3,1.3,1.1c0,0.7-0.5,1.2-1.4,1.2L54.5,66.7L54.5,66.7z M55.1,66.3c0,0.2,0.1,0.3,0.3,0.3c0.6,0,1-0.3,1-1
					c0-0.6-0.4-1-0.9-1c-0.1,0-0.3,0-0.4,0V66.3z"/>
				<path style="fill:#6B6C71;" d="M56.9,66.8L56.9,66.8l0.1-0.1c0.1,0,0.2-0.1,0.2-0.5v-1c0-0.5,0-0.5-0.2-0.5l-0.1,0v-0.1h1v0.1
					l-0.2,0c-0.1,0-0.2,0.1-0.2,0.5v1c0,0.5,0,0.5,0.2,0.5l0.2,0v0.1H56.9z"/>
				<path style="fill:#6B6C71;" d="M58.2,64.8c-0.1-0.1-0.1-0.1-0.2-0.1v-0.1h1v0.1l-0.1,0c-0.1,0-0.2,0-0.2,0.1
					c0,0.1,0,0.1,0.1,0.3c0.1,0.2,0.3,0.8,0.4,1.1h0c0.2-0.4,0.4-1,0.4-1.1c0-0.1,0.1-0.3,0.1-0.4c0-0.1-0.1-0.1-0.3-0.1v-0.1h0.8
					v0.1c-0.2,0-0.3,0.1-0.3,0.3l-0.8,1.9c0,0-0.1,0-0.1,0C58.9,66.5,58.3,65,58.2,64.8z"/>
				<path style="fill:#6B6C71;" d="M60.2,66.8L60.2,66.8l0.1-0.1c0.1,0,0.2-0.1,0.2-0.5v-1c0-0.5,0-0.5-0.2-0.5l-0.1,0v-0.1h1.5
					c0,0,0,0.1,0,0.1c0,0.1,0,0.3,0,0.4h-0.1c0-0.3-0.1-0.4-0.3-0.4c-0.1,0-0.3,0-0.4,0v0.8h0.2c0.3,0,0.4,0,0.4-0.2h0.1l0,0.6h-0.1
					l0-0.1c0-0.1-0.1-0.2-0.4-0.2h-0.2v0.4c0,0.5,0,0.5,0.2,0.5h0.2c0.3,0,0.4-0.1,0.4-0.4h0.1c0,0.2,0,0.4-0.1,0.5H60.2z"/>
				<path style="fill:#6B6C71;" d="M62,66.8L62,66.8l0.1-0.1c0.1,0,0.2-0.1,0.2-0.5v-1c0-0.4,0-0.5-0.2-0.5l-0.1,0v-0.1
					c0.2,0,0.7,0,0.8,0c0.5,0,0.8,0.2,0.8,0.6c0,0.3-0.2,0.5-0.4,0.6c0.3,0.6,0.5,0.9,0.7,1c0.1,0,0.1,0,0.2,0v0.1
					c-0.3,0-0.4,0-0.4,0c-0.1,0-0.1,0-0.1,0c-0.1-0.1-0.3-0.4-0.5-0.8c-0.1-0.1-0.1-0.2-0.2-0.2h-0.2v0.3c0,0.5,0,0.5,0.2,0.5l0.2,0
					v0.1H62z M62.9,65.7c0.2,0,0.3-0.2,0.3-0.5c0-0.3-0.2-0.5-0.4-0.5c-0.1,0-0.2,0-0.2,0v1H62.9z"/>
				<path style="fill:#6B6C71;" d="M64.1,66.8c0-0.1,0-0.4,0-0.5h0.1c0.1,0.3,0.3,0.5,0.5,0.5c0.2,0,0.4-0.1,0.4-0.3
					c0-0.2-0.1-0.3-0.3-0.4l-0.3-0.2c-0.2-0.2-0.5-0.4-0.5-0.6c0-0.4,0.3-0.6,0.7-0.6c0.3,0,0.4,0.1,0.6,0.1c0,0.2,0,0.4-0.1,0.6
					h-0.1c0-0.3-0.2-0.5-0.4-0.5c-0.2,0-0.4,0.1-0.4,0.3c0,0.2,0.1,0.3,0.3,0.4l0.2,0.2c0.3,0.2,0.5,0.4,0.5,0.6
					c0,0.4-0.4,0.6-0.8,0.6C64.5,66.8,64.3,66.8,64.1,66.8z"/>
				<path style="fill:#6B6C71;" d="M65.7,66.8L65.7,66.8l0.2-0.1c0.1,0,0.2-0.1,0.2-0.5v-1c0-0.5,0-0.5-0.2-0.5l-0.2,0v-0.1h1v0.1
					l-0.2,0c-0.1,0-0.2,0.1-0.2,0.5v1c0,0.5,0,0.5,0.2,0.5l0.2,0v0.1H65.7z"/>
				<path style="fill:#6B6C71;" d="M66.8,66.7l0.2,0c0.1,0,0.2-0.1,0.2-0.5v-1c0-0.5,0-0.5-0.2-0.5l-0.2,0v-0.1c0.5,0,0.8,0,1.1,0
					c0.7,0,1.3,0.3,1.3,1.1c0,0.7-0.5,1.2-1.4,1.2L66.8,66.7L66.8,66.7z M67.4,66.3c0,0.2,0.1,0.3,0.3,0.3c0.6,0,1-0.3,1-1
					c0-0.6-0.4-1-0.9-1c-0.1,0-0.3,0-0.4,0V66.3z"/>
				<path style="fill:#6B6C71;" d="M69.1,66.8L69.1,66.8c0.2-0.1,0.2-0.1,0.3-0.4l0.8-1.9c0,0,0.1,0,0.1,0c0.1,0.4,0.7,1.8,0.8,2
					c0.1,0.1,0.1,0.1,0.2,0.1v0.1h-1v-0.1l0.1,0c0.1,0,0.2,0,0.2-0.1c0-0.1,0-0.1-0.1-0.3L70.5,66c-0.1,0-0.7,0-0.7,0l-0.1,0.2
					c0,0.1-0.1,0.3-0.1,0.4c0,0.1,0.1,0.1,0.3,0.1v0.1H69.1z M70.2,65.1L70.2,65.1c-0.1,0.2-0.2,0.5-0.3,0.7l0.6,0L70.2,65.1z"/>
				<path style="fill:#6B6C71;" d="M71.4,66.7l0.2,0c0.1,0,0.2-0.1,0.2-0.5v-1c0-0.5,0-0.5-0.2-0.5l-0.2,0v-0.1c0.5,0,0.8,0,1.1,0
					c0.7,0,1.3,0.3,1.3,1.1c0,0.7-0.5,1.2-1.4,1.2L71.4,66.7L71.4,66.7z M72.1,66.3c0,0.2,0.1,0.3,0.3,0.3c0.6,0,1-0.3,1-1
					c0-0.6-0.4-1-0.9-1c-0.1,0-0.3,0-0.4,0V66.3z"/>
			</g>
		</g>
		<g>
			<g>
				<path style="fill:#6B6C71;" d="M9.9,53.4c-2.8,0-5.1-1.5-5.1-4.9c0-3.1,2.1-4.9,5.3-4.9c1.3,0,2.6,0.4,3.2,0.4
					c0,0.2,0.1,0.6,0.1,0.8c0,0.7-0.1,1.9-0.2,2.1h-0.4c0-1.9-1.1-2.6-2.7-2.6c-2.3,0-3.7,1.7-3.7,4.2c0,2.6,1.6,4.2,3.8,4.2
					c1.7,0,2.5-1,2.8-2.1h0.4c0,0.5-0.2,1.5-0.4,2.1C12.1,53.1,11.1,53.4,9.9,53.4z"/>
				<path style="fill:#6B6C71;" d="M15,48.6c0-3.1,2.2-5,5-5c3,0,4.9,2,4.9,4.8c0,3-2.2,5-5,5C17,53.4,15,51.4,15,48.6z M23.4,48.5
					c0-2.1-1-4.2-3.5-4.2c-2.2,0-3.3,1.8-3.3,4.2c0,2.2,1.1,4.3,3.5,4.3C22.4,52.7,23.4,50.8,23.4,48.5z"/>
				<path style="fill:#6B6C71;" d="M28.3,45.6L28.3,45.6l-0.1,4.9c0,2,0.1,2.2,0.8,2.2l0.7,0.1v0.3H26v-0.3l0.6-0.1
					c0.6-0.1,0.7-0.3,0.8-2.2l0-5.3c0-0.8-0.4-1.1-1.1-1.2L26,44.1v-0.3h2.3c0.2,0,0.5,0.2,0.8,0.6c1.5,1.6,3.7,4.2,5.3,6.2l0.1,0
					l0-4.5c0-1.6-0.2-1.9-0.7-1.9l-0.6-0.1v-0.3h3.5v0.3l-0.6,0.1c-0.6,0.1-0.7,0.4-0.7,2.2v6.8c-0.1,0-0.4,0.1-0.6,0.1
					C32.9,50.9,30.9,48.6,28.3,45.6z"/>
				<path style="fill:#6B6C71;" d="M36.9,53.2v-0.3c0.8-0.2,1.1-0.3,1.5-1.3l3.4-7.9c0.1,0,0.2-0.1,0.3-0.1c0.6,1.5,3,7.8,3.5,8.6
					c0.3,0.5,0.6,0.6,1,0.6v0.3h-4.1v-0.3l0.5,0c0.6,0,0.8-0.2,0.8-0.5c0-0.2-0.1-0.6-0.4-1.3L43,50c-0.4,0-2.8,0-3.1,0l-0.3,0.8
					c-0.2,0.5-0.5,1.3-0.5,1.6c0,0.4,0.3,0.5,1.2,0.6v0.3H36.9z M41.5,46.2L41.5,46.2c-0.5,1-1,2.2-1.4,3.1l2.6,0L41.5,46.2z"/>
				<path style="fill:#6B6C71;" d="M47.4,52.9l0.6-0.1c0.6-0.1,0.7-0.3,0.7-2.2v-4.2c0-1.9-0.1-2.2-0.7-2.2l-0.6-0.1v-0.3
					c1,0,2.7-0.1,3.5-0.1c2,0,3,0.8,3,2.2c0,1.1-0.8,1.8-1.7,2.1v0.1c1.4,0.2,2.4,1,2.4,2.3c0,1.7-1.4,2.8-3.6,2.8h-3.6V52.9z
					 M50.9,47.9c1.1,0,1.5-0.8,1.5-1.8c0-1.1-0.6-1.7-1.4-1.7c-0.3,0-0.7,0.1-0.9,0.1v3.4L50.9,47.9z M53.1,50.7
					c0-1.2-0.7-2.2-2-2.2l-0.9,0v2.1c0,1.9,0.2,2.1,1,2.1C52.2,52.6,53.1,52,53.1,50.7z"/>
				<path style="fill:#6B6C71;" d="M55.8,53.2v-0.3l0.6-0.1c0.6-0.1,0.7-0.3,0.7-2.2v-4.2c0-1.9-0.1-2.2-0.7-2.2l-0.6-0.1v-0.3h4
					v0.3l-0.6,0.1c-0.6,0.1-0.7,0.3-0.7,2.2v4.2c0,1.9,0.1,2.2,0.7,2.2l0.6,0.1v0.3H55.8z"/>
				<path style="fill:#6B6C71;" d="M61,48.6c0-3.1,2.2-5,5-5c3,0,4.9,2,4.9,4.8c0,3-2.2,5-5,5C63,53.4,61,51.4,61,48.6z M69.4,48.5
					c0-2.1-1.1-4.2-3.5-4.2c-2.2,0-3.3,1.8-3.3,4.2c0,2.2,1.1,4.3,3.5,4.3C68.4,52.7,69.4,50.8,69.4,48.5z"/>
			</g>
		</g>
		<g>
			<path style="fill-rule:evenodd;clip-rule:evenodd;fill:#8C151B;" d="M43.3,12.7c0.2,0,0.4,0.1,0.4,0.3c0,0.2-0.2,0.3-0.4,0.3
				s-0.4-0.1-0.4-0.3C42.9,12.9,43.1,12.7,43.3,12.7 M42.3,11.8c0.3-0.2,1.3-0.2,1.8,0c0.5,0.2,1.2,0.4,1.4,0.6
				c0.3,0.2,1.2,1,1.2,1.2c0,0.2,0.1,0.5,0,0.8c-0.1,0.2-0.3,0.4-0.5,0.6c-0.2,0.2-1.1,0.5-1.4,0.5c-0.2,0-0.9,0.2-1.2,0.1
				c-0.2,0-1.6-0.6-1.7-0.6c-0.1,0-0.3,0.5-0.3,0.5S40.9,15,41,14.1c0-0.9,0.3-1.1,0.4-1.3c0.1-0.1,0.3-0.2,0.4-0.4
				C41.9,12.3,41.9,12,42.3,11.8z"/>
			<path style="fill-rule:evenodd;clip-rule:evenodd;fill:#8C151B;" d="M46.2,15.4c0.3-0.2,0.6-0.6,0.7-0.6c0.1,0,0.5,0.3,0.8,0.7
				c0.3,0.4,0.6,0.8,0.8,1.1c0.5,0.7,1.3,2.1,1.5,2.9c0.1,0.5,0.3,2.2,0.1,3.8c-0.1,1.1-0.2,2.3-0.2,2.4c-0.1,0.1-0.2,0.5-0.4,0.4
				c-1.7-1.2-3.2-3-4.1-4.8c-0.2-0.4-0.4-0.9-0.6-1.2c-0.4-0.8-0.7-1.5-0.9-2c-0.3-0.7-0.3-1.2-0.3-1.3c0-0.4,0.1-0.6,0.1-0.6
				c0.1,0,0.2,0,0.4,0c0.2,0,0.4,0,0.6,0C45.4,15.9,45.6,15.8,46.2,15.4"/>
			<path style="fill-rule:evenodd;clip-rule:evenodd;fill:#8C151B;" d="M46.5,23.8c0.1,0,0.2,0.2,0.4,0.4c0.2,0.2,1.1,1.1,1.3,1.3
				c0.2,0.2,0.4,0.5,0.5,0.8c0.1,0.3,0.1,0.5-0.1,1.5c-0.2,1-1.3,5.4-1.9,7.4c-0.6,2-0.7,2.5-0.7,2.6C46,37.9,46,38.1,45.7,38
				c-0.3,0-0.3-0.1-0.4-0.4c0-0.3-0.1-1.5,0-2.5c0.1-1.1,0.4-2.9,0.4-4c0-1.1-0.2-1.6-0.1-2.4c0-0.7,0.4-3,0.5-3.6
				C46.3,24.5,46.4,23.8,46.5,23.8"/>
			<path style="fill-rule:evenodd;clip-rule:evenodd;fill:#8C151B;" d="M39,16.3c0-0.4,0.2-0.4,0.7-0.5c0.5,0,0.9,0,1.1,0.1
				c0.2,0.1,1,0.4,1.1,0.5c0.2,0.1,0.7,0.7,0.9,1c0.2,0.3,0.8,1,1,1.7c0.3,0.7,0.3,1,0.3,1.1c0,0.1-0.4,0.7-0.7,0.9
				c-0.2,0.2-0.8,1-2.1,0.9c-1.3-0.1-2-1.2-2.3-1.4c-0.3-0.2-0.4-0.3-0.8-0.5c-0.4-0.1-0.4-0.3-0.4-0.5c0.1-0.2,0.2-0.4,0.6-0.4
				c0.4,0,1,0.1,1,0.1s-0.1-0.2-0.4-0.3c-0.3-0.1-0.9-0.1-1.3-0.2c-0.4-0.1-0.3-0.3-0.3-0.4c0-0.1,0-0.4,0.5-0.5
				c0.5,0,1.6-0.1,1.6-0.1s-1.4-0.2-1.6-0.3c-0.2-0.1-0.2-0.2-0.2-0.4c0-0.2,0.1-0.4,0.4-0.5c0.3-0.1,0.6-0.1,0.9-0.1
				c0.4,0,1.3,0.2,1.3,0.2s0-0.1-0.3-0.3S39,16.6,39,16.3"/>
			<path style="fill-rule:evenodd;clip-rule:evenodd;fill:#8C151B;" d="M40.4,23c0-0.3,0-0.4,0.1-0.4c0.1,0,1-0.2,1.4-0.3
				c0.4,0,1.1-0.1,1.2-0.2c0.1-0.1,0.3-0.1,0.5-0.3c0.2-0.2,0.7-0.7,0.9-0.8c0.2,0,0.4-0.1,0.6,0.2c0.2,0.3,0.2,0.5,0.1,0.7
				c-0.1,0.2-0.5,0.8-1.2,1.2c-0.7,0.4-0.9,0.5-1.2,0.5c-0.3,0-1.5,0.1-1.9,0.1C40.5,23.6,40.4,23.3,40.4,23"/>
			<path style="fill-rule:evenodd;clip-rule:evenodd;fill:#8C151B;" d="M40.9,24.1c0.5,0,1.9,0,2.1-0.1c0.2,0,0.7-0.1,1.1-0.4
				c0.3-0.2,1.1-0.8,1.2-0.7c0.1,0,0.4,0.1,0.5,0.4c0,0.3,0,0.8-0.5,1.3c-0.6,0.5-1.6,0.7-2.2,0.8c-0.6,0.1-1.2,0.2-1.4,0.2
				c-0.2,0-1.1-0.1-1.1-0.5C40.5,24.7,40.4,24.1,40.9,24.1"/>
			<path style="fill-rule:evenodd;clip-rule:evenodd;fill:#8C151B;" d="M45.3,25.3c0.1,0,0.1,1.7-0.2,2.7c-0.2,1-1,4-1.1,4.2
				c-0.1,0.2-1.2,0.7-1.5,0.9c-0.3,0.2-1.1,0.4-1.2,0.4c-0.1,0-0.4,0.2-0.4-0.3c0-0.5,0.1-2.7,0-4.3c-0.1-1.6-0.2-2.2-0.2-2.4
				c0-0.2-0.1-0.5,0.3-0.5c0.3,0,1.3,0,2-0.1C43.8,25.7,45.2,25.3,45.3,25.3"/>
			<path style="fill-rule:evenodd;clip-rule:evenodd;fill:#8C151B;" d="M30.9,28.5c0,0,0.2,0.2,0.3,0.3c0.1,0.1,1.4,2,3.4,2.4
				c1.9,0.4,2.6-0.1,2.8-0.3c0.2-0.2,0.6-1.4,0.7-1.7c0.1-0.3,0.3-0.6,0.8-0.8c0.2,0,0.5-0.1,0.7-0.1c0.4,0,0.8,0,0.9,0.1
				c0.2,0.2,0.2,1.7,0.1,2.5c-0.1,0.8-0.3,2.4-0.3,2.5c0,0.1-0.8,0.5-2.5,0.6c-1.7,0-4.7-0.5-6.3-1.4c-1.6-0.9-2.3-1.5-2.9-2.1
				c-0.6-0.6-0.5-0.6-0.5-0.7c0-0.2,0.2-0.4,0.3-0.5c0.1,0,0.6-0.1,1-0.1c0.4-0.1,1-0.2,1.2-0.4C30.8,28.6,30.9,28.5,30.9,28.5"/>
			<path style="fill-rule:evenodd;clip-rule:evenodd;fill:#8D161B;" d="M48.1,32.9c0.2,0.1,0.7-0.1,1.4-0.9c0.7-0.7,1-1.1,1.3-1.5
				c0.3-0.4,1.6-2.7,2-4.8c0.5-2.2,0.4-2.8,0.5-3.8c0-1-0.4-4-1.1-5.5c-0.7-1.5-1.2-3.2-2.6-4.4c-1.3-1.2-3.7-3-6.7-3.7
				c-2.9-0.8-3.7-0.7-4.6-0.7c-0.9,0-3.4,0.1-4.9,0.5c-1.5,0.3-2,0.5-2.4,0.6c-0.4,0.1-4.6,2-6.4,5c-1.8,3-2.2,6.7-2,8.6
				c0.1,1.9,0.6,7.1,3.2,10.1c2.7,3,5.9,4.3,11.2,4.6c5.3,0.3,8-1.8,8-1.8l0.3-2.6c0,0-3.6,2-7.6,2.1c-4,0.1-7.6-1.4-9.8-3.9
				c-2.2-2.5-3-7.3-2.6-10.8c0.4-3.4,1.9-6.9,6.6-8.7c4.7-1.8,10.4-0.3,11.9,0.1c1.5,0.4,5.9,3.3,6.8,8.5c0.9,5.2-0.8,7.6-1.2,8.5
				c-0.4,1-1,2-1.1,2.8C48.1,31.8,47.9,32.8,48.1,32.9"/>
			<path style="fill-rule:evenodd;clip-rule:evenodd;fill:#8C151B;" d="M28.6,25.2c0.3,0,0.9,0.3,0.9,0.6c0,0.3-0.1,0.7-0.5,0.7
				c-0.4,0.1-1,0.1-1.2-0.3c-0.2-0.4,0-0.7,0.2-0.9C28.3,25.3,28.3,25.3,28.6,25.2 M28.4,25c0.7,0,1.5,0.6,1.5,1.2
				c0,0.7-0.4,1.1-1.1,1c-0.7-0.1-1.6-0.4-1.5-1.3C27.5,25.1,28.4,25,28.4,25z M33.8,21.6c0.4-0.4,1.2-0.3,1.2-0.2
				c0,0,0,0.2-0.1,0.4c-0.1,0.2-0.3,0.4-0.5,0.5c-0.4,0.4-1,0.5-1.1,0.4C33.2,22.6,33.3,22,33.8,21.6z M38,22.8
				c0.1,0.1-0.1,0.4-0.1,0.4c-0.1,0-0.3,0.2-0.4,0.1c-0.2-0.1-0.1-0.3,0.2-0.5C37.9,22.7,37.9,22.7,38,22.8z M36.8,10.8
				c0.3,0,0.8,1.2,0.9,1.9c0.1,0.7,0.3,1.7-0.2,3C37,17,36.2,18,36,18c-0.2,0-0.5,0.1-0.5,0.1s-0.9-0.8-2-0.7
				c-1,0.1-1.8,0.4-2.7,1.2c-0.9,0.8-1.3,1.6-1.4,2.2c-0.1,0.6-0.1,1.6,0.2,2.1c0.2,0.5,0.4,0.4,0.4,0.4s0.2,0,0.2,0
				c0-0.1-0.5-1.6-0.2-2.6c0.3-1,0.8-1.9,2.5-2.6c1.6-0.7,2.3,0.3,2.8,0.6c0.4,0.3,0.8,0.5,1.1,0.7c0.3,0.2,1.9,1.3,2.6,2
				c0.7,0.8,0.8,0.8,0.7,1.1c-0.1,0.3-0.5,0.6-0.5,0.8c0,0.2,0.4,0.7,0.2,1c-0.2,0.3-0.3,0.4-0.7,0.7c-0.4,0.2-0.6,0.5-0.6,0.6
				c0,0.1,0.2,0,0.4,0c0.2-0.1,0.3-0.2,0.6-0.2c0.3,0,0.7,0.1,0.8,0.8c0.1,0.7,0.1,1.1-0.1,1.4c-0.3,0.3-0.6,0.4-0.9,0.5
				c-0.3,0.1-0.7,0.1-0.8,0.3c-0.1,0.2-0.5,0.8-0.6,1.4c-0.1,0.6-0.4,0.9-0.5,1s-1.8,0.1-2.7-0.2c-0.9-0.3-1.2-0.6-2-1.4
				c-0.7-0.7-1.1-1.2-1.1-1.2h-0.3c0,0-0.8,0.8-1.8,0.7c-1-0.2-2.8-0.8-2.8-2.9c0-2.1,1.4-2.3,1.5-2.5c0.1-0.1,0.1-0.3-0.2-0.3
				c-0.3,0-0.8,0.2-1,0.3c-0.3,0.2-0.8,0.6-0.9,0.2c0-0.4,0.1-1.4,1.1-1.9c1-0.5,1.2-0.4,1.2-0.8c0-0.4-0.8-0.2-1-0.1
				c-0.2,0.1-0.8,0.4-0.9,0.5c0,0.1-0.4,0.4-0.4-0.1c0-0.4,0.1-1.3,1-1.8c0.8-0.5,1.7-0.3,1.8-0.6c0-0.3-0.4-0.4-0.7-0.4
				c-0.3,0-1.2,0.3-1.4,0.5c-0.2,0.2-0.5,0.2-0.4-0.3c0.1-0.4,0.5-1.5,1.5-1.8c1-0.3,1.9,0.2,2,0.1c0.1-0.2,0-0.5-0.4-0.7
				c-0.4-0.2-0.7-0.3-1.4-0.1C27,16.4,26.9,16.3,27,16c0.1-0.2,0.4-1.5,1.9-1.5c1.5,0,1.9,1.4,2.2,1.3c0.4-0.1-0.1-1.2-0.4-1.7
				c-0.3-0.5-1.3-1.2-0.9-1.5c0.4-0.3,1.3-0.2,1.9,0.2c0.6,0.4,0.6,0.4,0.7,0.7c0.1,0.2,0.7,1.5,0.8,1.5c0.1,0,0.2-0.8,0.1-1.3
				c-0.1-0.5-0.8-1.7-1-1.9c-0.2-0.2-0.2-0.4,0.2-0.4c0.4,0,1.5,0.1,2.1,0.9c0.6,0.8,0.6,2.1,0.6,2.3c-0.1,0.2,0,0.7,0.2,0.4
				c0.3-0.3,0.8-1.2,1-2.1C36.5,11.7,36.5,10.8,36.8,10.8z"/>
		</g>
	</g>
</g>
</svg>
