<?xml version="1.0" encoding="utf-8"?>
<!-- Generator: Adobe Illustrator 16.0.3, SVG Export Plug-In . SVG Version: 6.00 Build 0)  -->
<!DOCTYPE svg PUBLIC "-//W3C//DTD SVG 1.1//EN" "http://www.w3.org/Graphics/SVG/1.1/DTD/svg11.dtd">
<svg version="1.1" id="Capa_1" xmlns="http://www.w3.org/2000/svg" xmlns:xlink="http://www.w3.org/1999/xlink" x="0px" y="0px"
	 width="58px" height="62px" viewBox="0 5.9 58 62" style="enable-background:new 0 5.9 58 62;" xml:space="preserve">
<g>
	<g>
		<path style="fill:#007D30;" d="M13.7,53.2C8.3,53.2,4,53.1,4,53c0-0.1,4.3-0.2,9.7-0.2h13.4v0.5H13.7z"/>
		<path style="fill:#CE003C;" d="M44.3,52.8c5.4,0,9.7,0.1,9.7,0.2c0,0.1-4.3,0.2-9.7,0.2H30.8v-0.5H44.3z"/>
	</g>
	<g>
		<path style="fill-rule:evenodd;clip-rule:evenodd;fill:#00526F;" d="M21.3,28.5c-0.1-0.2-0.2-0.3-0.4-0.3c-0.2,0-0.4,0.2-0.4,0.4
			c0,0,0,0.1,0,0.1c0.5,1.9,1.4,3.5,2.6,4.9c0.1,0.2,0.2,0.4,0.2,0.6c0,0.5-0.4,0.9-0.9,0.9c-0.1,0-0.2,0-0.2,0
			c-3.4-0.9-6.4-2.8-8.2-5.6c0-0.1-0.1-0.1-0.2-0.1c-0.1,0-0.3,0.1-0.3,0.3c0,0,0,0.1,0,0.1C16,35.8,22,40,28.9,40
			c7.9,0,14.5-5.4,16.3-12.6c-1,2.4-3,4.7-5.7,6.4c-2.4,1.4-4.9,2.1-7.3,2.1C27.5,35.9,23.4,32.9,21.3,28.5z"/>
		<path style="fill-rule:evenodd;clip-rule:evenodd;fill:#4B8931;" d="M42,30.1c1.2-1.2,2.1-3.1,2-5c-0.1-2.3-1.4-3.9-3.4-3.8
			c-2.2,0.3-4.5,1.3-6,2.7c-2.1,2-1.7,4.1,0.9,4.6c0.4,0.1,0.9,0.1,1.4,0.1c0.4,0,0.6,0.3,0.6,0.6c0,0.3-0.2,0.5-0.4,0.6
			c-2.2,1.1-4.8,0.2-5.7-2c-0.5-1.2-0.3-2.6,0.3-3.7c0.3-0.5,0.7-1,1.4-1.5c1-0.8,2.4-1.4,3.7-1.8c3.6-1,6.2-3.8,6-6.8
			c0-0.1,0-0.1,0-0.2c1.7,2.5,2.8,5.4,2.9,8.6C45.8,25.5,44.2,28.6,42,30.1z"/>
		<path style="fill-rule:evenodd;clip-rule:evenodd;fill:#D5C4A7;" d="M21.7,26.1c1.4,4.5,5.7,7.8,10.6,8.1c5.1,0,9.3-3.3,9.3-7.3
			c0-0.8-0.2-1.6-0.5-2.3c-0.2-0.3-0.5-0.6-0.9-0.8c-1.2-0.4-3.1,0.1-4.2,1.2c-1.1,1-1,2.2,0.3,2.6c0.2,0.1,0.4,0.1,0.6,0.1
			c0.9,0.1,1.7,0.5,1.9,1.2c0.3,0.9-0.7,2-2.1,2.6c-2.8,1.2-5.9,0-7-2.8c-1.1-2.7,0.1-6,2.8-7.5c-2.6-0.2-4.9-1.4-6.2-3
			c-1.1-1.5-3-2.4-5.2-2.4c-3.5,0-6.3,2.5-6.3,5.5c0,3.2,1.5,6.1,4,8.1c-1.7-4.2-2.5-8.6-1.8-9.9C17.7,18.3,19.8,20.8,21.7,26.1z"/>
		<path style="fill-rule:evenodd;clip-rule:evenodd;fill:#BA5C24;" d="M32.7,11.7c0.3-0.8,1.4-1.2,2.6-0.9c1.2,0.3,1.9,1.3,1.6,2.1
			c-0.3,0.8-1.4,1.2-2.6,0.9C33.2,13.5,32.5,12.5,32.7,11.7z"/>
		<path style="fill-rule:evenodd;clip-rule:evenodd;fill:#BA5C24;" d="M30.2,18.9c1.3,0.6,2.8,0.9,4.5,0.8c3.9-0.3,6.9-3,6.6-6
			c-0.1-0.6-0.3-1.2-0.6-1.8c0.3,0.7,0.3,1.4,0,2.1c-0.6,1.6-2.8,2.4-5,2c-0.5,1.8-2.2,3.2-4.2,3.2C31.1,19.1,30.6,19,30.2,18.9z"/>
		<path style="fill-rule:evenodd;clip-rule:evenodd;fill:#BA5C24;" d="M34.4,15.5c-0.8,1.4-2.4,2.3-4.3,2.3c-1.3,0-2.5-0.5-3.4-1.3
			c-1.4-1.3-3.6-2.2-5.8-2.2c-1.3,0-2.5,0.5-3.6,0.9c2.3-2.9,6.2-4.7,10.6-4.7c1.2,0,2.3,0.1,3.4,0.4C30.6,12.6,32.1,14.6,34.4,15.5
			z"/>
		<path style="fill-rule:evenodd;clip-rule:evenodd;fill:#BA5C24;" d="M20.8,32.6c0.1,0.1,0.2,0.3,0.2,0.4c0,0.3-0.2,0.5-0.5,0.5
			c-0.1,0-0.1,0-0.2,0c-4.8-2.4-8-6.8-8-12c0-1.4,0.2-2.7,0.6-3.9c2.3-6.5,8.6-11.1,15.9-11.1c3.3,0,6.3,0.9,8.9,2.5
			c1.6,1,2.5,2.6,1.9,4.1c-0.5,1.4-2.3,2.1-4.2,1.9c1.4,0,2.6-0.7,3-1.8c0.5-1.5-0.8-3.1-2.8-3.7c-1-0.3-2-0.3-2.8,0
			c-1.5-0.5-3.1-0.7-4.9-0.7c-8,0-14.5,5.7-14.5,12.7C13.5,26.3,16.5,30.4,20.8,32.6z"/>
	</g>
	<g>
		<path style="fill:#6D6E74;" d="M9.8,51.3c-2.1,0-3.9-1.2-3.9-3.7c0-2.3,1.6-3.7,4-3.7c1,0,2,0.3,2.4,0.3c0,0.1,0.1,0.4,0.1,0.6
			c0,0.5-0.1,1.4-0.1,1.6h-0.3c0-1.4-0.8-2-2.1-2c-1.8,0-2.8,1.3-2.8,3.2c0,2,1.2,3.2,2.8,3.2c1.3,0,1.9-0.7,2.1-1.6h0.3
			c0,0.4-0.1,1.2-0.3,1.6C11.5,51.1,10.7,51.3,9.8,51.3z"/>
		<path style="fill:#6D6E74;" d="M13.7,47.7c0-2.3,1.7-3.7,3.8-3.7c2.3,0,3.7,1.5,3.7,3.6c0,2.3-1.7,3.7-3.8,3.7
			C15.1,51.3,13.7,49.9,13.7,47.7z M20,47.7c0-1.6-0.8-3.2-2.6-3.2c-1.7,0-2.5,1.3-2.5,3.1c0,1.7,0.8,3.2,2.7,3.2
			C19.2,50.8,20,49.4,20,47.7z"/>
		<path style="fill:#6D6E74;" d="M23.7,45.5L23.7,45.5l0,3.7c0,1.5,0.1,1.7,0.6,1.7l0.5,0v0.2H22V51l0.5,0c0.5,0,0.6-0.2,0.6-1.7
			l0-4c0-0.6-0.3-0.8-0.8-0.9l-0.3,0v-0.3h1.8c0.2,0,0.4,0.2,0.6,0.4c1.1,1.2,2.8,3.1,4,4.7l0.1,0l0-3.4c0-1.2-0.1-1.4-0.6-1.5
			l-0.5,0v-0.3H30v0.3l-0.4,0c-0.5,0.1-0.6,0.3-0.6,1.7v5.1c-0.1,0-0.3,0.1-0.4,0.1C27.2,49.4,25.7,47.7,23.7,45.5z"/>
		<path style="fill:#6D6E74;" d="M30.1,51.2V51c0.6-0.1,0.8-0.2,1.1-1l2.6-5.9c0.1,0,0.2,0,0.2,0c0.4,1.1,2.3,5.9,2.7,6.5
			c0.2,0.4,0.4,0.4,0.8,0.5v0.2h-3.1V51l0.4,0c0.4,0,0.6-0.1,0.6-0.4c0-0.2-0.1-0.5-0.3-1l-0.3-0.8c-0.3,0-2.1,0-2.4,0l-0.2,0.6
			c-0.2,0.4-0.4,1-0.4,1.2c0,0.3,0.2,0.3,0.9,0.4v0.2H30.1z M33.7,45.9L33.7,45.9c-0.4,0.7-0.8,1.6-1,2.4l2,0L33.7,45.9z"/>
		<path style="fill:#6D6E74;" d="M39.8,45.5L39.8,45.5l-0.1,3.7c0,1.5,0.1,1.7,0.6,1.7l0.5,0v0.2H38V51l0.5,0c0.5,0,0.6-0.2,0.6-1.7
			l0-4c0-0.6-0.3-0.8-0.8-0.9l-0.3,0v-0.3h1.8c0.2,0,0.4,0.2,0.6,0.4c1.1,1.2,2.8,3.1,4,4.7l0.1,0l0-3.4c0-1.2-0.1-1.4-0.6-1.5
			l-0.5,0v-0.3H46v0.3l-0.4,0c-0.5,0.1-0.6,0.3-0.6,1.7v5.1c-0.1,0-0.3,0.1-0.4,0.1C43.2,49.4,41.8,47.7,39.8,45.5z"/>
		<path style="fill:#6D6E74;" d="M46.8,51.2V51l0.5,0c0.4,0,0.5-0.3,0.5-1.7v-3.1c0-1.4-0.1-1.6-0.5-1.7l-0.5,0v-0.2
			c0.7,0,2.2-0.1,2.7-0.1c1.7,0,2.6,0.7,2.6,1.9c0,1.4-1.3,2.2-2.7,2.2c-0.2,0-0.4,0-0.6,0v1c0,1.4,0.1,1.7,0.5,1.7l0.6,0v0.2H46.8z
			 M51,46.2c0-1-0.5-1.6-1.4-1.6c-0.3,0-0.6,0.1-0.8,0.1v3.1c0.2,0,0.3,0,0.5,0C50.5,47.8,51,47.2,51,46.2z"/>
	</g>
	<g>
		<g>
			<path style="fill:#6D6E74;" d="M8.5,57.6C7.7,57.6,7,57.1,7,56c0-1,0.6-1.6,1.6-1.6c0.4,0,0.8,0.1,1,0.1c0,0.1,0,0.2,0,0.3
				c0,0.2,0,0.6-0.1,0.7H9.4c0-0.6-0.3-0.8-0.8-0.8c-0.7,0-1.1,0.5-1.1,1.3c0,0.8,0.5,1.3,1.1,1.3c0.5,0,0.8-0.3,0.8-0.7h0.1
				c0,0.2,0,0.5-0.1,0.7C9.2,57.5,8.9,57.6,8.5,57.6z"/>
			<path style="fill:#6D6E74;" d="M10.1,56.3c0-0.8,0.6-1.3,1.4-1.3c0.8,0,1.3,0.5,1.3,1.3c0,0.8-0.6,1.3-1.4,1.3
				C10.6,57.6,10.1,57,10.1,56.3z M12.3,56.3c0-0.6-0.3-1.1-0.9-1.1c-0.6,0-0.9,0.5-0.9,1.1c0,0.6,0.3,1.1,0.9,1.1
				C12,57.4,12.3,56.9,12.3,56.3z"/>
			<path style="fill:#6D6E74;" d="M12.9,57.5L12.9,57.5l0.2-0.1c0.2,0,0.2-0.1,0.2-0.3l0.2-1.7c-0.1-0.1-0.1-0.2-0.2-0.2l-0.1,0V55
				h0.6c0.1,0,0.5,0.7,0.9,1.8h0c0.1-0.3,0.6-1.5,0.7-1.8h0.8v0.1l-0.1,0c-0.1,0-0.2,0.1-0.2,0.2c0,0.2,0.1,1.6,0.1,1.7
				c0,0.2,0,0.3,0.2,0.3l0.2,0v0.1h-1.1v-0.1l0.2,0c0.1,0,0.2-0.1,0.2-0.2c0-0.2-0.1-1-0.1-1.6h0c-0.2,0.5-0.5,1.2-0.7,1.8
				c0,0-0.2,0-0.2,0c-0.3-0.8-0.6-1.4-0.7-1.8h0c0,0.6-0.1,1.4-0.1,1.6c0,0.2,0,0.2,0.2,0.2l0.2,0v0.1H12.9z"/>
			<path style="fill:#6D6E74;" d="M16.5,57.5L16.5,57.5l0.2-0.1c0.1,0,0.2-0.1,0.2-0.6v-1.1c0-0.5,0-0.6-0.2-0.6l-0.2,0V55h1.1v0.1
				l-0.2,0c-0.2,0-0.2,0.1-0.2,0.6v1.1c0,0.5,0,0.6,0.2,0.6l0.2,0v0.1H16.5z"/>
			<path style="fill:#6D6E74;" d="M18,57.5c0-0.1,0-0.4,0-0.6H18c0.1,0.3,0.3,0.5,0.6,0.5c0.3,0,0.5-0.2,0.5-0.4
				c0-0.2-0.1-0.3-0.3-0.5l-0.3-0.2c-0.3-0.2-0.5-0.4-0.5-0.7c0-0.4,0.3-0.7,0.8-0.7c0.3,0,0.5,0.1,0.7,0.1c0,0.2,0,0.4-0.1,0.6
				h-0.1c0-0.4-0.2-0.6-0.5-0.6c-0.2,0-0.4,0.1-0.4,0.3c0,0.2,0.2,0.3,0.4,0.5l0.2,0.2c0.4,0.3,0.5,0.5,0.5,0.7
				c0,0.5-0.4,0.7-0.9,0.7C18.4,57.6,18.1,57.5,18,57.5z"/>
			<path style="fill:#6D6E74;" d="M19.9,57.5L19.9,57.5l0.2-0.1c0.2,0,0.2-0.1,0.2-0.6v-1.1c0-0.5,0-0.6-0.2-0.6l-0.2,0V55H21v0.1
				l-0.2,0c-0.2,0-0.2,0.1-0.2,0.6v1.1c0,0.5,0,0.6,0.2,0.6l0.2,0v0.1H19.9z"/>
			<path style="fill:#6D6E74;" d="M21.3,56.3c0-0.8,0.6-1.3,1.4-1.3c0.8,0,1.3,0.5,1.3,1.3c0,0.8-0.6,1.3-1.4,1.3
				C21.8,57.6,21.3,57,21.3,56.3z M23.5,56.3c0-0.6-0.3-1.1-0.9-1.1c-0.6,0-0.9,0.5-0.9,1.1c0,0.6,0.3,1.1,0.9,1.1
				C23.2,57.4,23.5,56.9,23.5,56.3z M22.2,54.6c0.2-0.1,0.6-0.3,0.8-0.5h0c0.1,0,0.2,0.2,0.2,0.3C23.1,54.6,22.4,54.7,22.2,54.6
				L22.2,54.6z"/>
			<path style="fill:#6D6E74;" d="M24.2,57.4l0.2,0c0.2,0,0.2-0.1,0.2-0.6l0-1.4c0-0.2-0.1-0.3-0.3-0.3l-0.1,0V55h0.6
				c0.1,0,0.1,0.1,0.2,0.2c0.4,0.4,1,1.1,1.4,1.6l0,0l0-1.2c0-0.4,0-0.5-0.2-0.5l-0.2,0V55h0.9v0.1l-0.1,0c-0.2,0-0.2,0.1-0.2,0.6
				v1.8c0,0-0.1,0-0.2,0c-0.5-0.6-1-1.2-1.7-2l0,0v1.3c0,0.5,0,0.6,0.2,0.6l0.2,0v0.1L24.2,57.4L24.2,57.4z"/>
		</g>
		<g>
			<path style="fill:#6D6E74;" d="M31,55.1L31,55.1l0,1.6c0,0.6,0,0.7,0.2,0.7l0.2,0v0.1h-1.1v-0.1l0.2,0c0.2,0,0.2-0.1,0.2-0.7
				l0-1.7c0-0.2-0.1-0.3-0.3-0.4l-0.1,0v-0.1H31c0.1,0,0.1,0.1,0.2,0.2c0.4,0.5,1.1,1.3,1.6,2l0,0l0-1.4c0-0.5,0-0.6-0.2-0.6l-0.2,0
				v-0.1h1.1v0.1l-0.2,0c-0.2,0-0.2,0.1-0.2,0.7v2.1c0,0-0.1,0-0.2,0C32.4,56.8,31.8,56,31,55.1z"/>
			<path style="fill:#6D6E74;" d="M35.2,57.4l0.1,0c0.2,0,0.2,0,0.2-0.1c0-0.1,0-0.2-0.1-0.4l-0.1-0.3c-0.2,0-0.6,0-0.8,0l-0.1,0.2
				c0,0.1-0.1,0.3-0.1,0.4c0,0.1,0.1,0.1,0.3,0.2v0.1h-0.9v-0.1c0.2,0,0.3-0.1,0.4-0.4L35,55c0,0,0.1,0,0.1,0
				c0.2,0.4,0.8,2.1,0.9,2.3c0.1,0.1,0.2,0.1,0.3,0.2v0.1L35.2,57.4L35.2,57.4z M34.9,55.7L34.9,55.7c-0.1,0.1-0.3,0.7-0.4,0.8
				l0.7,0C35.2,56.4,35,55.8,34.9,55.7z"/>
			<path style="fill:#6D6E74;" d="M36.4,56.3c0-0.8,0.6-1.3,1.4-1.3c0.3,0,0.7,0.1,0.9,0.1c0,0.1,0,0.1,0,0.2c0,0.2,0,0.4,0,0.6
				h-0.1c0-0.5-0.3-0.7-0.7-0.7c-0.6,0-1,0.5-1,1.1c0,0.7,0.4,1.1,1,1.1c0.4,0,0.7-0.2,0.7-0.6h0.1c0,0.1,0,0.4-0.1,0.6
				c-0.2,0.1-0.5,0.2-0.8,0.2C37,57.6,36.4,57.1,36.4,56.3z"/>
			<path style="fill:#6D6E74;" d="M39.1,57.5L39.1,57.5l0.2-0.1c0.2,0,0.2-0.1,0.2-0.6v-1.1c0-0.5,0-0.6-0.2-0.6l-0.2,0V55h1.1v0.1
				l-0.2,0c-0.2,0-0.2,0.1-0.2,0.6v1.1c0,0.5,0,0.6,0.2,0.6l0.2,0v0.1H39.1z"/>
			<path style="fill:#6D6E74;" d="M40.5,56.3c0-0.8,0.6-1.3,1.4-1.3c0.8,0,1.3,0.5,1.3,1.3c0,0.8-0.6,1.3-1.4,1.3
				C41,57.6,40.5,57,40.5,56.3z M42.7,56.3c0-0.6-0.3-1.1-0.9-1.1c-0.6,0-0.9,0.5-0.9,1.1c0,0.6,0.3,1.1,0.9,1.1
				C42.4,57.4,42.7,56.9,42.7,56.3z"/>
			<path style="fill:#6D6E74;" d="M43.4,57.4l0.2,0c0.2,0,0.2-0.1,0.2-0.6l0-1.4c0-0.2-0.1-0.3-0.3-0.3l-0.1,0V55h0.6
				c0.1,0,0.1,0.1,0.2,0.2c0.4,0.4,1,1.1,1.4,1.6l0,0l0-1.2c0-0.4,0-0.5-0.2-0.5l-0.2,0V55h1v0.1l-0.1,0c-0.2,0-0.2,0.1-0.2,0.6v1.8
				c0,0-0.1,0-0.2,0c-0.5-0.6-1-1.2-1.7-2l0,0l0,1.3c0,0.5,0,0.6,0.2,0.6l0.2,0v0.1L43.4,57.4L43.4,57.4z"/>
			<path style="fill:#6D6E74;" d="M47.8,57.4l0.1,0c0.2,0,0.2,0,0.2-0.1c0-0.1,0-0.2-0.1-0.4L48,56.7c-0.2,0-0.6,0-0.8,0l-0.1,0.2
				c0,0.1-0.1,0.3-0.1,0.4c0,0.1,0.1,0.1,0.3,0.2v0.1h-0.9v-0.1c0.2,0,0.3-0.1,0.4-0.4l0.9-2.1c0,0,0.1,0,0.1,0
				c0.2,0.4,0.8,2.1,0.9,2.3c0.1,0.1,0.2,0.1,0.3,0.2v0.1L47.8,57.4L47.8,57.4z M47.6,55.7L47.6,55.7c-0.1,0.1-0.3,0.7-0.4,0.8
				l0.7,0C47.8,56.4,47.6,55.8,47.6,55.7z"/>
			<path style="fill:#6D6E74;" d="M49.2,57.5L49.2,57.5l0.2-0.1c0.1,0,0.2-0.1,0.2-0.6v-1.1c0-0.5,0-0.6-0.2-0.6l-0.2,0V55h1.1v0.1
				l-0.2,0c-0.2,0-0.2,0.1-0.2,0.6v1c0,0.5,0,0.6,0.2,0.6h0.3c0.3,0,0.4-0.2,0.5-0.5H51c0,0.2,0,0.5-0.1,0.7H49.2z"/>
		</g>
	</g>
	<g>
		<g>
			<path style="fill:#6D6E74;" d="M6.9,62.3l0.2,0c0.2,0,0.2-0.1,0.2-0.6v-1.1c0-0.5,0-0.6-0.2-0.6l-0.2,0v-0.1c0.5,0,0.9,0,1.2,0
				c0.7,0,1.5,0.3,1.5,1.2c0,0.8-0.6,1.3-1.5,1.3L6.9,62.3L6.9,62.3z M7.7,61.9c0,0.3,0.1,0.3,0.4,0.3c0.6,0,1.1-0.4,1.1-1.1
				c0-0.7-0.4-1.1-1-1.1c-0.1,0-0.3,0-0.4,0V61.9z"/>
			<path style="fill:#6D6E74;" d="M9.9,62.4L9.9,62.4l0.2-0.1c0.2,0,0.2-0.1,0.2-0.6v-1.1c0-0.5,0-0.6-0.2-0.6l-0.2,0v-0.1h1.7
				c0,0.1,0,0.1,0,0.2c0,0.2,0,0.3,0,0.5h-0.1c0-0.3-0.1-0.4-0.4-0.4c-0.1,0-0.3,0-0.4,0V61h0.2c0.4,0,0.4,0,0.5-0.2h0.1l0,0.7h-0.1
				l0-0.1c0-0.2-0.1-0.2-0.4-0.2h-0.2v0.5c0,0.5,0.1,0.6,0.3,0.6h0.2c0.3,0,0.4-0.2,0.5-0.4h0.1c0,0.2,0,0.4-0.1,0.6H9.9z"/>
		</g>
		<g>
			<path style="fill:#6D6E74;" d="M13.2,62.3L13.2,62.3c0.2-0.1,0.3-0.2,0.4-0.5l1-2.5c0,0,0.1,0,0.1,0c0.2,0.5,0.9,2.5,1.1,2.7
				c0.1,0.2,0.2,0.2,0.3,0.2v0.1h-1.2v-0.1l0.2,0c0.2,0,0.2,0,0.2-0.2c0-0.1,0-0.2-0.1-0.4L15,61.3c-0.1,0-0.9,0-0.9,0L14,61.5
				c-0.1,0.2-0.1,0.4-0.1,0.5c0,0.1,0.1,0.1,0.4,0.2v0.1H13.2z M14.6,60.1L14.6,60.1c-0.2,0.3-0.3,0.7-0.4,1l0.8,0L14.6,60.1z
				 M14.3,59c0.2-0.1,0.6-0.3,0.8-0.5h0c0.1,0,0.2,0.2,0.2,0.3C15.3,58.9,14.6,59,14.3,59L14.3,59z"/>
			<path style="fill:#6D6E74;" d="M16.3,62.2l0.2,0c0.2,0,0.2-0.1,0.2-0.6v-1.1c0-0.5,0-0.6-0.2-0.6l-0.2,0v-0.1c0.3,0,0.8,0,1,0
				c0.6,0,0.9,0.2,0.9,0.6c0,0.3-0.2,0.5-0.4,0.7c0.3,0.6,0.6,1,0.7,1.1c0.1,0,0.1,0,0.2,0v0.1c-0.3,0-0.5,0-0.5,0
				c-0.1,0-0.1,0-0.2,0c-0.1-0.1-0.3-0.5-0.5-0.8c-0.1-0.2-0.1-0.2-0.2-0.2h-0.2v0.4c0,0.5,0,0.6,0.2,0.6l0.2,0v0.1L16.3,62.2
				L16.3,62.2z M17.5,61.1c0.2,0,0.3-0.3,0.3-0.5c0-0.3-0.2-0.6-0.4-0.6c-0.1,0-0.2,0-0.3,0v1.1H17.5z"/>
			<path style="fill:#6D6E74;" d="M18.9,62.3L18.9,62.3l0.2-0.1c0.1,0,0.2-0.1,0.2-0.6v-1.1c0-0.5,0-0.6-0.2-0.6l-0.2,0v-0.1h1.7
				c0,0,0,0.1,0,0.2c0,0.2,0,0.3,0,0.5h-0.1c0-0.3-0.1-0.4-0.4-0.4c-0.1,0-0.3,0-0.4,0V61h0.2c0.4,0,0.4,0,0.5-0.2h0.1l0,0.7h-0.1
				l0-0.1c0-0.2-0.1-0.2-0.4-0.2h-0.2v0.5c0,0.5,0.1,0.6,0.3,0.6h0.2c0.3,0,0.4-0.2,0.5-0.4h0.1c0,0.2,0,0.4-0.1,0.6H18.9z"/>
			<path style="fill:#6D6E74;" d="M22.4,62.2l0.1,0c0.2,0,0.2,0,0.2-0.1c0-0.1,0-0.2-0.1-0.4l-0.1-0.3c-0.2,0-0.6,0-0.8,0l-0.1,0.2
				c0,0.1-0.1,0.3-0.1,0.4c0,0.1,0.1,0.1,0.3,0.2v0.1h-0.9v-0.1c0.2,0,0.3-0.1,0.4-0.4l0.9-2.1c0,0,0.1,0,0.1,0
				c0.1,0.4,0.8,2.1,0.9,2.3c0.1,0.1,0.2,0.2,0.3,0.2v0.1L22.4,62.2L22.4,62.2z M22.1,60.5L22.1,60.5c-0.1,0.1-0.3,0.7-0.4,0.8
				l0.7,0C22.4,61.2,22.2,60.6,22.1,60.5z"/>
			<path style="fill:#6D6E74;" d="M23.8,62.3c0-0.1,0-0.4,0-0.6h0.1c0.1,0.3,0.3,0.5,0.6,0.5c0.3,0,0.5-0.1,0.5-0.4
				c0-0.2-0.1-0.3-0.3-0.5l-0.3-0.2c-0.3-0.2-0.5-0.4-0.5-0.7c0-0.4,0.3-0.7,0.8-0.7c0.3,0,0.5,0.1,0.7,0.1c0,0.2,0,0.5-0.1,0.6H25
				c0-0.4-0.2-0.6-0.5-0.6c-0.2,0-0.4,0.1-0.4,0.4c0,0.2,0.1,0.3,0.4,0.5l0.2,0.2c0.4,0.3,0.5,0.5,0.5,0.7c0,0.5-0.4,0.7-0.9,0.7
				C24.2,62.4,23.9,62.3,23.8,62.3z"/>
		</g>
		<g>
			<path style="fill:#6D6E74;" d="M29.2,59.9L29.2,59.9l0,1.6c0,0.6,0,0.7,0.2,0.7l0.2,0v0.1h-1.1v-0.1l0.2,0c0.2,0,0.2-0.1,0.2-0.7
				l0-1.7c0-0.2-0.1-0.3-0.3-0.4l-0.1,0v-0.1h0.7c0.1,0,0.2,0.1,0.2,0.2c0.4,0.5,1.1,1.3,1.6,2l0,0l0-1.4c0-0.5,0-0.6-0.2-0.6
				l-0.2,0v-0.1h1.1v0.1l-0.2,0c-0.2,0-0.2,0.1-0.2,0.7v2.1c0,0-0.1,0-0.2,0C30.6,61.6,30,60.9,29.2,59.9z"/>
			<path style="fill:#6D6E74;" d="M33.3,62.2l0.1,0c0.2,0,0.2,0,0.2-0.1c0-0.1,0-0.2-0.1-0.4l-0.1-0.3c-0.2,0-0.6,0-0.8,0l-0.1,0.2
				c-0.1,0.1-0.1,0.3-0.1,0.4c0,0.1,0.1,0.1,0.3,0.1v0.1h-0.9v-0.1c0.2,0,0.3-0.1,0.4-0.4l0.9-2.1c0,0,0.1,0,0.1,0
				c0.2,0.4,0.8,2.1,0.9,2.3c0.1,0.1,0.2,0.2,0.3,0.2v0.1L33.3,62.2L33.3,62.2z M33.1,60.5L33.1,60.5c-0.1,0.1-0.3,0.7-0.4,0.8
				l0.7,0C33.3,61.2,33.1,60.6,33.1,60.5z"/>
			<path style="fill:#6D6E74;" d="M35,62.3L35,62.3l0.2-0.1c0.2,0,0.2-0.1,0.2-0.6V60c-0.1,0-0.3,0-0.4,0c-0.2,0-0.3,0.2-0.4,0.5
				h-0.1c0-0.2,0-0.5,0.1-0.7h2.1c0,0.1,0.1,0.5,0.1,0.7h-0.1c-0.1-0.3-0.2-0.5-0.4-0.5c-0.1,0-0.3,0-0.4,0v1.6c0,0.5,0,0.6,0.2,0.6
				l0.2,0v0.1H35z"/>
			<path style="fill:#6D6E74;" d="M37.2,61.3v-0.8c0-0.5,0-0.6-0.2-0.6l-0.2,0v-0.1H38v0.1l-0.2,0c-0.2,0-0.2,0.1-0.2,0.6v0.7
				c0,0.7,0.2,1,0.7,1c0.5,0,0.7-0.4,0.7-1v-0.7c0-0.5,0-0.6-0.2-0.6l-0.2,0v-0.1h1v0.1l-0.1,0c-0.2,0-0.2,0.1-0.2,0.6v0.8
				c0,0.6-0.4,1.1-1,1.1C37.6,62.4,37.2,62,37.2,61.3z"/>
			<path style="fill:#6D6E74;" d="M39.9,62.2l0.2,0c0.2,0,0.2-0.1,0.2-0.6v-1.1c0-0.5,0-0.6-0.2-0.6l-0.2,0v-0.1c0.3,0,0.8,0,1,0
				c0.6,0,0.9,0.2,0.9,0.6c0,0.3-0.2,0.5-0.5,0.7c0.3,0.6,0.6,1,0.7,1.1c0.1,0,0.1,0,0.2,0v0.1c-0.3,0-0.5,0-0.5,0c0,0-0.1,0-0.1,0
				c-0.2-0.1-0.3-0.5-0.5-0.8c-0.1-0.2-0.1-0.2-0.2-0.2h-0.2v0.4c0,0.5,0,0.6,0.2,0.6l0.2,0v0.1L39.9,62.2L39.9,62.2z M41,61.1
				c0.2,0,0.3-0.3,0.3-0.5c0-0.3-0.2-0.6-0.5-0.6c-0.1,0-0.2,0-0.3,0v1.1H41z"/>
			<path style="fill:#6D6E74;" d="M43.9,62.2l0.1,0c0.2,0,0.2,0,0.2-0.1c0-0.1,0-0.2-0.1-0.4L44,61.5c-0.2,0-0.6,0-0.8,0l-0.1,0.2
				C43.1,61.8,43,62,43,62.1c0,0.1,0.1,0.1,0.3,0.1v0.1h-0.9v-0.1c0.2,0,0.3-0.1,0.4-0.4l0.9-2.1c0,0,0.1,0,0.1,0
				c0.2,0.4,0.8,2.1,0.9,2.3c0.1,0.1,0.1,0.2,0.3,0.2v0.1L43.9,62.2L43.9,62.2z M43.6,60.5L43.6,60.5c-0.1,0.1-0.3,0.7-0.4,0.8
				l0.7,0C43.9,61.2,43.7,60.6,43.6,60.5z"/>
			<path style="fill:#6D6E74;" d="M45.2,62.3L45.2,62.3l0.2-0.1c0.2,0,0.2-0.1,0.2-0.6v-1.1c0-0.5,0-0.6-0.2-0.6l-0.2,0v-0.1h1.1
				v0.1l-0.2,0C46,59.9,46,60,46,60.5v1c0,0.5,0,0.6,0.2,0.6h0.3c0.3,0,0.4-0.2,0.5-0.5h0.1c0,0.2,0,0.5-0.1,0.7H45.2z"/>
			<path style="fill:#6D6E74;" d="M47.4,62.3L47.4,62.3l0.2-0.1c0.1,0,0.2-0.1,0.2-0.6v-1.1c0-0.5,0-0.6-0.2-0.6l-0.2,0v-0.1H49
				c0,0.1,0,0.1,0,0.2c0,0.2,0,0.3,0,0.5h-0.1c0-0.3-0.1-0.4-0.4-0.4c-0.1,0-0.3,0-0.4,0V61h0.2c0.4,0,0.4,0,0.5-0.2h0.1l0,0.7h-0.1
				l0-0.1c0-0.2-0.1-0.2-0.4-0.2h-0.2v0.5c0,0.5,0.1,0.5,0.3,0.5h0.2c0.3,0,0.4-0.2,0.5-0.4h0.1c0,0.2,0,0.4-0.1,0.6H47.4z"/>
			<path style="fill:#6D6E74;" d="M49.5,62.3c0-0.1,0-0.4,0-0.6h0.1c0.1,0.3,0.3,0.5,0.6,0.5c0.3,0,0.5-0.1,0.5-0.4
				c0-0.2-0.1-0.3-0.3-0.5l-0.3-0.2c-0.3-0.2-0.5-0.4-0.5-0.7c0-0.4,0.3-0.7,0.7-0.7c0.3,0,0.5,0.1,0.7,0.1c0,0.2,0,0.4-0.1,0.6
				h-0.1c0-0.4-0.2-0.6-0.5-0.6c-0.2,0-0.4,0.1-0.4,0.4c0,0.2,0.1,0.3,0.4,0.5l0.2,0.2c0.4,0.3,0.5,0.5,0.5,0.7
				c0,0.5-0.4,0.7-0.9,0.7C49.9,62.4,49.7,62.3,49.5,62.3z"/>
		</g>
	</g>
	<g>
		<path style="fill:#6D6E74;" d="M17,67.3L17,67.3l0.2-0.1c0.2,0,0.2-0.1,0.2-0.7v-1.3c0-0.6,0-0.7-0.2-0.7l-0.2,0v-0.1
			c0.3,0,0.9,0,1.1,0c0.7,0,1,0.3,1,0.8c0,0.6-0.5,0.9-1.1,0.9c-0.1,0-0.2,0-0.2,0v0.4c0,0.6,0,0.7,0.2,0.7l0.2,0v0.1H17z
			 M18.7,65.1c0-0.4-0.2-0.7-0.6-0.7c-0.1,0-0.2,0-0.3,0.1v1.3c0.1,0,0.1,0,0.2,0C18.5,65.8,18.7,65.6,18.7,65.1z"/>
		<path style="fill:#6D6E74;" d="M19.4,67.2l0.2,0c0.2,0,0.2-0.1,0.2-0.6v-1.1c0-0.5,0-0.6-0.2-0.6l-0.2,0v-0.1c0.3,0,0.8,0,1,0
			c0.6,0,0.9,0.2,0.9,0.6c0,0.3-0.2,0.5-0.4,0.7c0.3,0.6,0.6,1,0.8,1.1c0.1,0,0.1,0,0.2,0v0.1c-0.3,0-0.5,0-0.5,0
			c-0.1,0-0.1,0-0.1,0c-0.1-0.1-0.4-0.5-0.5-0.8c-0.1-0.2-0.1-0.2-0.2-0.2h-0.2v0.4c0,0.5,0,0.6,0.2,0.6l0.2,0v0.1L19.4,67.2
			L19.4,67.2z M20.6,66c0.2,0,0.3-0.3,0.3-0.5c0-0.3-0.2-0.6-0.5-0.6c-0.1,0-0.2,0-0.3,0V66H20.6z"/>
		<path style="fill:#6D6E74;" d="M21.9,66c0-0.8,0.6-1.3,1.4-1.3c0.8,0,1.3,0.5,1.3,1.3c0,0.8-0.6,1.3-1.4,1.3
			C22.4,67.3,21.9,66.8,21.9,66z M24.1,66c0-0.6-0.3-1.1-0.9-1.1c-0.6,0-0.9,0.5-0.9,1.1c0,0.6,0.3,1.1,0.9,1.1
			C23.9,67.1,24.1,66.6,24.1,66z"/>
		<path style="fill:#6D6E74;" d="M25.4,67.3L25.4,67.3l0.2-0.1c0.2,0,0.2-0.1,0.2-0.6V65c-0.1,0-0.3,0-0.4,0c-0.3,0-0.3,0.2-0.4,0.5
			h-0.1c0-0.2,0-0.6,0.1-0.7h2.1c0,0.1,0.1,0.5,0.1,0.7H27c-0.1-0.4-0.2-0.5-0.4-0.5c-0.1,0-0.3,0-0.4,0v1.6c0,0.5,0,0.6,0.2,0.6
			l0.2,0v0.1H25.4z"/>
		<path style="fill:#6D6E74;" d="M27.4,67.3L27.4,67.3l0.2-0.1c0.1,0,0.2-0.1,0.2-0.6v-1.1c0-0.5,0-0.6-0.2-0.6l-0.2,0v-0.1h1.7
			c0,0.1,0,0.1,0,0.2c0,0.2,0,0.3,0,0.5H29c0-0.3-0.1-0.4-0.4-0.4c-0.1,0-0.3,0-0.4,0v0.9h0.2c0.4,0,0.4,0,0.5-0.2h0.1l0,0.7h-0.1
			l0-0.1c0-0.2-0.1-0.2-0.4-0.2h-0.2v0.5c0,0.5,0.1,0.5,0.3,0.5h0.2c0.3,0,0.4-0.2,0.5-0.4h0.1c0,0.2,0,0.4-0.1,0.6H27.4z"/>
		<path style="fill:#6D6E74;" d="M29.5,66c0-0.8,0.6-1.3,1.4-1.3c0.4,0,0.8,0.1,0.9,0.1c0,0.1,0,0.1,0,0.2c0,0.2,0,0.5,0,0.5h-0.1
			c0-0.5-0.3-0.7-0.8-0.7c-0.6,0-1,0.4-1,1.1c0,0.7,0.4,1.1,1,1.1c0.3,0,0.5-0.1,0.5-0.3c0-0.5,0-0.6-0.2-0.6l-0.2,0v-0.1h1.1v0.1
			l-0.1,0c-0.2,0-0.2,0.1-0.2,0.5c0,0.2,0,0.3,0,0.4c-0.2,0.1-0.7,0.2-1,0.2C30.2,67.3,29.5,66.9,29.5,66z"/>
		<path style="fill:#6D6E74;" d="M32.4,67.3L32.4,67.3l0.2-0.1c0.2,0,0.2-0.1,0.2-0.6v-1.1c0-0.5,0-0.6-0.2-0.6l-0.2,0v-0.1h1.1v0.1
			l-0.2,0c-0.2,0-0.2,0.1-0.2,0.6v1.1c0,0.5,0,0.6,0.2,0.6l0.2,0v0.1H32.4z"/>
		<path style="fill:#6D6E74;" d="M33.9,67.2l0.2,0c0.2,0,0.2-0.1,0.2-0.6v-1.1c0-0.5,0-0.6-0.2-0.6l-0.2,0v-0.1c0.5,0,0.9,0,1.2,0
			c0.8,0,1.5,0.3,1.5,1.2c0,0.8-0.6,1.3-1.5,1.3L33.9,67.2L33.9,67.2z M34.6,66.8c0,0.2,0.1,0.3,0.4,0.3c0.6,0,1.1-0.4,1.1-1.1
			c0-0.7-0.4-1.1-1.1-1.1c-0.1,0-0.3,0-0.4,0V66.8z"/>
		<path style="fill:#6D6E74;" d="M38.1,67.2h0.1c0.2,0,0.2,0,0.2-0.1c0-0.1,0-0.2-0.1-0.3l-0.1-0.3c-0.2,0-0.6,0-0.8,0l-0.1,0.2
			c-0.1,0.1-0.1,0.3-0.1,0.4c0,0.1,0.1,0.1,0.3,0.1v0.1h-0.9v-0.1c0.2,0,0.3-0.1,0.4-0.4l0.9-2.1c0,0,0.1,0,0.1,0
			c0.2,0.4,0.8,2.1,0.9,2.3c0.1,0.1,0.2,0.2,0.3,0.2v0.1L38.1,67.2L38.1,67.2z M37.9,65.4L37.9,65.4c-0.1,0.1-0.3,0.7-0.4,0.8l0.7,0
			C38.1,66.1,37.9,65.6,37.9,65.4z"/>
		<path style="fill:#6D6E74;" d="M39.5,67.2c0-0.1,0-0.4,0-0.6h0.1c0.1,0.3,0.3,0.5,0.6,0.5c0.3,0,0.5-0.2,0.5-0.4
			c0-0.2-0.1-0.3-0.3-0.5L40,66.1c-0.3-0.2-0.5-0.4-0.5-0.7c0-0.4,0.3-0.7,0.7-0.7c0.3,0,0.5,0.1,0.7,0.1c0,0.2,0,0.4-0.1,0.6h-0.1
			c0-0.4-0.2-0.6-0.5-0.6c-0.2,0-0.4,0.1-0.4,0.4c0,0.2,0.1,0.3,0.4,0.5l0.3,0.2c0.4,0.3,0.5,0.5,0.5,0.7c0,0.5-0.4,0.7-0.9,0.7
			C39.9,67.3,39.7,67.2,39.5,67.2z"/>
	</g>
</g>
</svg>
