<?xml version="1.0" encoding="utf-8"?>
<!-- Generator: Adobe Illustrator 22.0.1, SVG Export Plug-In . SVG Version: 6.00 Build 0)  -->
<svg version="1.1" id="Capa_1" xmlns="http://www.w3.org/2000/svg" xmlns:xlink="http://www.w3.org/1999/xlink" x="0px" y="0px"
	 viewBox="0 0 255.4 133" style="enable-background:new 0 0 255.4 133;" xml:space="preserve">
<style type="text/css">
	.st0{fill:#AC131A;}
	.st1{fill:#0C0C0B;}
	.st2{fill:#FFFFFF;}
</style>
<g>
	<path class="st0" d="M247.6,39c0.7,0.4,0.7,0.3,0.7-0.4c-0.2-1.9-0.4-3.7-0.4-5.6c0-0.3-0.3-0.6-0.7-0.7c-0.1-0.2-0.3-0.2-0.5-0.3
		c0-0.1-0.1-0.1-0.1-0.1c-1.4-1-3.1-1.7-4.7-2.3c-2.4-1-4.9-1.8-7.5-2.6c-2.8-0.8-5.3-2.1-7.9-3.4c-3.4-1.7-6.4-3.9-9.5-6.1
		c-1.7-1.2-3.5-2.2-5.3-3.2c0-0.1-0.1-0.2-0.2-0.1c-0.1-0.1-0.2-0.1-0.3-0.2c0-0.2,0.1-0.3,0.3-0.3c0.3,0,0.5,0,0.8,0
		c1.5,0.2,3.1,0.4,4.6,0.6c0.7,0.1,1.4,0.1,2,0.3c0.6,0.2,4.9,0.9,5.6,0.9c0.9,0.1,1.7,0.2,2.6,0.2c1.2,0.1,2.5-0.2,3.7-0.3
		c2.4-0.3,4.7-0.8,7.1-1.1c1.8-0.2,3.7-0.4,5.5-0.5c1.5-0.1,3,0.1,4.5-0.1c0.1,0,0.3,0,0.4-0.1c0.2-0.6,0.7-0.4,1.1-0.5
		c-0.1,0.1-0.1,0.2-0.2,0.3c-0.9,0.7-1,1.7-1.1,2.6c-0.2,1.6-0.4,3.3-0.2,4.9c0.1,0.6,0.1,1.2,0.1,1.9c0.2,1.9,0.1,3.7,0,5.6
		c-0.2,2-0.2,4,0.1,6c0.2,1.4,0.3,2.8,0.4,4.2c0.1,0.8,0,0.7-0.7,0.7c-1.7,0-3.4-0.4-5.1-0.7c-1.5-0.3-3.1-0.4-4.6-0.4
		c-1,0-2.1,0.1-3.1,0.2c-2,0.3-4,0.7-6,0.8c-1.4,0.1-2.9,0-4.3-0.1c-1.2-0.1-2.5-0.4-3.7-0.4c-1.5-0.1-3-0.2-4.4-0.4
		c-2.1-0.2-4.3-0.5-6.5-0.3c-1,0.1-1.9,0.3-2.5,1.2c-0.2-0.1-0.2,0.1-0.2,0.1c-0.1,0.2-0.2-0.4,0-0.6c0.9-0.6,0.9-1.5,0.9-2.3
		c0-5.8,0-11.7,0-17.5c0-0.4,0.1-0.6,0.5-0.4c0.1,0,0.1,0,0.2,0c0,0,0.1,0,0.1,0.1c0.1,0.1,0.1,0.2,0.3,0.1c0.2,0.1,0.3,0.2,0.5,0.3
		c0,0.1,0.1,0.1,0.1,0.1c2.7,1.9,5.3,4.1,7.9,6.1c2,1.6,4.3,2.7,6.7,3.9c3,1.5,9.6,4,9.8,4.1c0,0,0.1,0,0.1,0
		c0.1,0.1,3.2,1.2,3.2,1.2S247.2,38.8,247.6,39z"/>
	<path class="st1" d="M249.6,39.9c0,0.8,0,0.8-0.8,1c-0.1,0-1.3-0.1-1.4-0.2c-0.8-0.2-2.7-0.5-2.8-0.5c-0.2-0.2-2-0.5-2.6-0.6
		c-1.3-0.2-4.7-0.3-6-0.2c-0.1,0-6.5,1.1-11.3,1.1c-2.2-0.1-6.2-0.8-7.1-0.9c-0.1,0-3.9-0.3-4.8-0.3c-1-0.1-2-0.1-3,0
		c-0.5,0-1,0.1-1.5,0.3c-0.2,0.1-0.4,0.1-0.6,0.1l0,0c0-0.1,0.1-0.2,0.1-0.3c0.6-0.9,1.5-1.2,2.5-1.2c2.2-0.2,4.3,0.1,6.5,0.3
		c1.5,0.1,3,0.3,4.4,0.4c1.2,0.1,2.5,0.3,3.7,0.4c1.4,0.1,2.8,0.2,4.3,0.1c2-0.1,4-0.5,6-0.8c1-0.1,2.1-0.2,3.1-0.2
		c1.5-0.1,3.1,0.1,4.6,0.4c1.7,0.3,3.4,0.7,5.1,0.7c0.7,0,0.8,0,0.7-0.7c-0.1-1.4-0.2-2.8-0.4-4.2c-0.5-2.4,0.2-9.8,0-11.6
		c-0.1-0.6,0-1.2-0.1-1.9c-0.2-1.7,0-3.3,0.2-4.9c0.1-1,0.2-2.1,1.3-2.9c-1.1,7.8-0.3,10.7-0.4,12.2
		C248.9,27.2,249.1,35.1,249.6,39.9z"/>
	<path class="st1" d="M207.5,39.7C207.5,39.7,207.5,39.7,207.5,39.7C207.5,39.7,207.5,39.7,207.5,39.7L207.5,39.7z"/>
	<g>
		<path class="st2" d="M6.6,44.3V5.1h23.8v6.6H13.1v8.7h16.1V27H13.1v10.6h18v6.6H6.6z"/>
		<path class="st2" d="M35.3,32.8l5.4-0.6c0.6,4.3,2.6,6.4,6,6.4c1.7,0,3-0.4,4-1.3s1.4-2,1.4-3.3c0-0.8-0.2-1.4-0.5-1.9
			c-0.3-0.5-0.8-1-1.5-1.3c-0.7-0.3-2.4-0.9-5-1.7c-2.4-0.7-4.1-1.5-5.2-2.3c-1.1-0.8-2-1.9-2.6-3.3c-0.6-1.4-1-2.8-1-4.4
			c0-1.8,0.4-3.5,1.2-4.9c0.8-1.5,2-2.6,3.4-3.3c1.5-0.7,3.3-1.1,5.4-1.1c3.2,0,5.8,0.9,7.6,2.6c1.8,1.8,2.8,4.3,2.9,7.5L51.3,20
			c-0.2-1.8-0.8-3.1-1.6-3.8c-0.8-0.7-2-1.1-3.5-1.1s-2.6,0.3-3.5,0.9c-0.8,0.6-1.2,1.4-1.2,2.3c0,0.9,0.4,1.7,1.1,2.3
			c0.7,0.6,2.4,1.3,5.1,2.1c2.8,0.8,4.8,1.7,6.1,2.6c1.2,0.9,2.2,2,2.8,3.5c0.7,1.4,1,3.1,1,5.1c0,2.9-0.9,5.4-2.7,7.3
			c-1.8,2-4.6,3-8.4,3C39.8,44.3,36.1,40.5,35.3,32.8z"/>
		<path class="st2" d="M61.9,44.3V10.7h8.9c3.3,0,5.5,0.2,6.5,0.5c1.6,0.5,3,1.6,4,3.3c1.1,1.7,1.6,3.9,1.6,6.5
			c0,2.4-0.5,4.5-1.4,6.1s-2.1,2.8-3.4,3.5s-3.7,1-7.1,1h-3.6v12.7H61.9z M67.5,16.4V26h3.1c2.1,0,3.5-0.1,4.2-0.4
			c0.7-0.3,1.4-0.8,1.8-1.6c0.5-0.8,0.7-1.7,0.7-2.8c0-1.1-0.2-2.1-0.7-2.8c-0.5-0.8-1.1-1.3-1.8-1.5c-0.7-0.3-2.2-0.4-4.6-0.4H67.5
			z"/>
		<path class="st2" d="M114.9,44.3h-6l-2.4-7.6h-11l-2.3,7.6h-5.9L98,10.7h5.9L114.9,44.3z M104.7,31l-3.8-12.5L97.2,31H104.7z"/>
		<path class="st2" d="M137.8,31.4l5.4,2.1c-0.8,3.8-2.2,6.5-4.2,8.2s-4.4,2.6-7.2,2.6c-3.6,0-6.5-1.4-8.7-4.1
			c-2.6-3.2-3.8-7.5-3.8-12.9c0-5.7,1.3-10.2,3.9-13.4c2.2-2.8,5.3-4.2,9.1-4.2c3.1,0,5.7,1.1,7.7,3.2c1.5,1.5,2.6,3.7,3.3,6.7
			l-5.5,1.6c-0.4-1.8-1.1-3.2-2.1-4.2c-1-1-2.3-1.5-3.7-1.5c-2,0-3.7,0.9-5,2.7c-1.3,1.8-1.9,4.7-1.9,8.8c0,4.2,0.6,7.2,1.9,9
			s2.9,2.7,4.9,2.7c1.5,0,2.7-0.6,3.8-1.7C136.5,35.7,137.3,33.9,137.8,31.4z"/>
		<path class="st2" d="M147.4,44.3V10.7h5.5v33.6H147.4z"/>
		<path class="st2" d="M157.2,27.1c0-4,0.6-7.3,1.8-9.9s2.7-4.5,4.6-5.8s4.2-1.9,6.9-1.9c3.9,0,7.1,1.5,9.6,4.5
			c2.5,3,3.7,7.3,3.7,12.8c0,5.6-1.3,10-3.9,13.2c-2.3,2.8-5.4,4.2-9.4,4.2c-4,0-7.1-1.4-9.4-4.1C158.6,37,157.2,32.7,157.2,27.1z
			 M163,26.9c0,3.9,0.7,6.8,2.2,8.7c1.5,1.9,3.3,2.9,5.5,2.9c2.2,0,4-1,5.4-2.9c1.4-1.9,2.2-4.9,2.2-8.8c0-3.9-0.7-6.8-2.1-8.6
			c-1.4-1.9-3.2-2.8-5.5-2.8c-2.3,0-4.1,0.9-5.5,2.8C163.7,20.1,163,23,163,26.9z"/>
		<path class="st2" d="M5.8,83.3V49.7h8.9c3.3,0,5.5,0.2,6.5,0.5c1.6,0.5,3,1.6,4,3.3c1.1,1.7,1.6,3.9,1.6,6.5
			c0,2.4-0.5,4.5-1.4,6.1s-2.1,2.8-3.4,3.5c-1.4,0.7-3.7,1-7.1,1h-3.6v12.7H5.8z M11.4,55.4V65h3.1c2.1,0,3.5-0.1,4.2-0.4
			c0.7-0.3,1.4-0.8,1.8-1.6c0.5-0.8,0.7-1.7,0.7-2.8c0-1.1-0.2-2.1-0.7-2.8c-0.5-0.8-1.1-1.3-1.8-1.5c-0.7-0.3-2.2-0.4-4.6-0.4H11.4
			z"/>
		<path class="st2" d="M32.4,83.3V49.7h11.7c3,0,5.1,0.3,6.4,0.9c1.3,0.6,2.3,1.6,3.2,3.1c0.8,1.5,1.2,3.3,1.2,5.3
			c0,2.6-0.6,4.7-1.9,6.3c-1.3,1.6-3,2.6-5.4,3c1.2,0.9,2.2,1.8,3,2.8c0.8,1,1.8,2.8,3.2,5.5l3.3,6.5h-6.6l-4-7.3
			c-1.4-2.6-2.4-4.3-3-5c-0.5-0.7-1.1-1.1-1.6-1.4c-0.6-0.3-1.5-0.4-2.8-0.4h-1.1v14H32.4z M37.9,63.9h4.1c2.5,0,4.1-0.1,4.8-0.3
			s1.2-0.7,1.7-1.3c0.4-0.7,0.6-1.6,0.6-2.7c0-1.1-0.2-1.9-0.6-2.6c-0.4-0.6-1-1.1-1.7-1.3c-0.5-0.2-2-0.3-4.5-0.3h-4.4V63.9z"/>
		<path class="st2" d="M62.6,67.3c0-4,0.6-7.3,1.8-9.9c1.2-2.6,2.7-4.5,4.6-5.8c1.9-1.3,4.2-1.9,6.9-1.9c3.9,0,7.1,1.5,9.6,4.5
			c2.5,3,3.7,7.3,3.7,12.8c0,5.6-1.3,10-3.9,13.2c-2.3,2.8-5.4,4.2-9.4,4.2c-4,0-7.1-1.4-9.4-4.1C63.9,77.1,62.6,72.8,62.6,67.3z
			 M68.3,67.1c0,3.9,0.7,6.8,2.2,8.7c1.5,1.9,3.3,2.9,5.5,2.9c2.2,0,4-1,5.4-2.9c1.4-1.9,2.2-4.9,2.2-8.8c0-3.9-0.7-6.8-2.1-8.6
			c-1.4-1.9-3.2-2.8-5.5-2.8c-2.3,0-4.1,0.9-5.5,2.8C69,60.2,68.3,63.1,68.3,67.1z"/>
		<path class="st2" d="M94.8,96.7v-47h18.9v5.7h-13.3v7.9h11.5V69h-11.5v58.8L94.8,96.7z"/>
		<path class="st2" d="M119.1,49.7h5.5v18.2c0,2.8,0.1,4.7,0.2,5.5c0.2,1.5,0.8,2.6,1.8,3.4c0.9,0.8,2.1,1.2,3.7,1.2
			c1.3,0,2.3-0.3,3.1-0.9c0.8-0.6,1.4-1.4,1.7-2.4c0.3-1,0.4-3.2,0.4-6.5V49.7h5.5v17.6c0,4.5-0.2,7.8-0.7,9.8
			c-0.5,2-1.6,3.6-3.3,4.9c-1.7,1.2-3.9,1.9-6.7,1.9c-2.9,0-5.1-0.5-6.7-1.5c-1.6-1-2.8-2.5-3.5-4.4c-0.7-1.9-1.1-5.3-1.1-10.3V49.7
			z"/>
		<path class="st2" d="M146.6,83.3V49.7h5.4l11.3,22.4V49.7h5.2v33.6h-5.6l-11.1-21.9v21.9H146.6z"/>
		<path class="st2" d="M173.9,49.7H184c2.6,0,4.5,0.3,5.8,0.9c1.3,0.6,2.5,1.5,3.6,2.9c1.1,1.4,2,3.1,2.6,5.3
			c0.6,2.2,0.9,4.9,0.9,8.1c0,2.9-0.3,5.4-1,7.6c-0.7,2.1-1.5,3.8-2.5,5.1c-1,1.3-2.2,2.2-3.6,2.8c-1.4,0.6-3.3,1-5.5,1h-10.4V49.7z
			 M179.4,55.4v22.2h4.2c1.8,0,3.1-0.2,3.9-0.5s1.5-0.8,2-1.5c0.5-0.7,0.9-1.8,1.3-3.2c0.3-1.5,0.5-3.4,0.5-5.8
			c0-2.5-0.2-4.4-0.5-5.9c-0.3-1.4-0.9-2.6-1.6-3.4c-0.7-0.8-1.6-1.4-2.6-1.6c-0.8-0.2-2.3-0.3-4.5-0.3H179.4z"/>
		<path class="st2" d="M202.4,67.3c0-4,0.6-7.3,1.8-9.9c1.2-2.6,2.7-4.5,4.6-5.8c1.9-1.3,4.2-1.9,6.9-1.9c3.9,0,7.1,1.5,9.6,4.5
			c2.5,3,3.7,7.3,3.7,12.8c0,5.6-1.3,10-3.9,13.2c-2.3,2.8-5.4,4.2-9.4,4.2c-4,0-7.1-1.4-9.4-4.1C203.7,77.1,202.4,72.8,202.4,67.3z
			 M208.2,67.1c0,3.9,0.7,6.8,2.2,8.7c1.5,1.9,3.3,2.9,5.5,2.9c2.2,0,4-1,5.4-2.9c1.4-1.9,2.2-4.9,2.2-8.8c0-3.9-0.7-6.8-2.1-8.6
			c-1.4-1.9-3.2-2.8-5.5-2.8s-4.1,0.9-5.5,2.8C208.9,60.2,208.2,63.1,208.2,67.1z"/>
		<g>
			<path class="st2" d="M241.6,50.8c0,2.1-1.7,3.8-3.8,3.8c-2.1,0-3.8-1.7-3.8-3.8c0-2.1,1.7-3.7,3.8-3.7
				C239.9,47,241.6,48.7,241.6,50.8z M234.8,50.8c0,1.7,1.2,3,2.9,3c1.6,0,2.8-1.3,2.8-3c0-1.7-1.2-3-2.9-3
				C236.1,47.8,234.8,49.1,234.8,50.8z M237.1,52.7h-0.9V49c0.3-0.1,0.8-0.1,1.4-0.1c0.7,0,1,0.1,1.3,0.3c0.2,0.2,0.4,0.5,0.4,0.8
				c0,0.4-0.3,0.7-0.8,0.9v0c0.4,0.1,0.6,0.4,0.7,0.9c0.1,0.6,0.2,0.8,0.3,0.9h-0.9c-0.1-0.1-0.2-0.5-0.3-0.9
				c-0.1-0.4-0.3-0.6-0.8-0.6h-0.4V52.7z M237.2,50.6h0.4c0.5,0,0.9-0.2,0.9-0.5c0-0.3-0.3-0.6-0.8-0.6c-0.2,0-0.4,0-0.5,0V50.6z"/>
		</g>
	</g>
</g>
</svg>
