<?xml version="1.0" encoding="utf-8"?>
<!-- Generator: Adobe Illustrator 16.0.3, SVG Export Plug-In . SVG Version: 6.00 Build 0)  -->
<!DOCTYPE svg PUBLIC "-//W3C//DTD SVG 1.1//EN" "http://www.w3.org/Graphics/SVG/1.1/DTD/svg11.dtd">
<svg version="1.1" id="Capa_1" xmlns="http://www.w3.org/2000/svg" xmlns:xlink="http://www.w3.org/1999/xlink" x="0px" y="0px"
	 width="68.7px" height="62px" viewBox="0 2.4 68.7 62" style="enable-background:new 0 2.4 68.7 62;" xml:space="preserve">
<g>
	<path style="fill:#231F20;" d="M41,51.3"/>
	<path style="fill:#DD1D3B;" d="M41.3,11c-1-1.3-0.8-1.4-2.8-3.1c-0.8-0.7-1.5-1.1-2.3-1.4c-1.6-0.6-3.6,0.2-4.6,2.2
		c-1.4,2.5-2.1,4.3-2.7,8.8c-0.5,4.2-0.6,7.6-0.2,15.3c0.3,5.4,1.8,12.5,3.1,18.2c1.8,7,3.4,12.4,3.4,12.4s-2.1-4-4.3-11.4
		c-1.6-5.4-3.1-12.4-3.9-22c-0.8-10.4-0.1-17.8,2.2-22.6c1.5-3.1,2.6-4.3,4.3-4.2c1.7,0.1,2.7,0.8,4.1,2.4C39.5,7.6,41.3,11,41.3,11
		z"/>
	<path style="fill:#231F20;" d="M3.4,44.7c0,0,16-1,37.5-6.8c10.4-2.8,16-5.4,18.8-7.4c2.6-1.8,3.8-3.2,3.2-4.6
		c-0.7-1.9-2.8-2.2-5.6-2.6c-1-0.1-4.8-0.6-8.7-0.6c-6.5,0-13.7,0.6-13.7,0.6c1.6,0.4,11.7,0.1,14.3,0.4c3.6,0.4,6.5,1.1,7.1,1.8
		c1,0.9,1.2,2.4-1,4.4c-2,1.8-4.3,3-9,4.8c-3.9,1.6-11.6,3.6-19,5.5C15.9,43.3,3.4,44.7,3.4,44.7"/>
	<g>
		<path style="fill:#231F20;" d="M35.1,46.1h2.6v0.6h-1.9v1.6h1.8v0.6h-1.8v2.1h-0.6V46.1L35.1,46.1z"/>
		<path style="fill:#231F20;" d="M41.2,50c0,0.4,0,0.6,0,0.9h-0.6v-0.6l0,0c-0.2,0.3-0.6,0.6-1.1,0.6s-1.2-0.3-1.2-1.5v-2H39v1.9
			c0,0.6,0.2,1.1,0.7,1.1c0.5,0,0.7-0.3,0.8-0.6c0-0.1,0.1-0.2,0.1-0.3v-2.1h0.6L41.2,50L41.2,50z"/>
		<path style="fill:#231F20;" d="M42.3,48.4c0-0.4,0-0.6,0-0.9h0.6v0.6l0,0c0.2-0.4,0.6-0.6,1.1-0.6c0.5,0,1.2,0.3,1.2,1.5v2h-0.6
			V49c0-0.6-0.2-1-0.8-1c-0.4,0-0.7,0.3-0.8,0.6c0,0.1,0,0.2,0,0.3v2h-0.6L42.3,48.4L42.3,48.4z"/>
		<path style="fill:#231F20;" d="M49.2,45.8V50c0,0.3,0,0.6,0,0.9h-0.6v-0.6l0,0C48.5,50.7,48,51,47.4,51c-0.8,0-1.5-0.7-1.5-1.8
			c0-1.1,0.7-1.8,1.6-1.8c0.6,0,0.9,0.3,1,0.6l0,0v-2L49.2,45.8L49.2,45.8z M48.5,48.9c0-0.1,0-0.2,0-0.3c-0.1-0.4-0.5-0.7-0.9-0.7
			c-0.6,0-1,0.6-1,1.3c0,0.7,0.4,1.3,1,1.3c0.5,0,0.8-0.3,0.9-0.7c0-0.1,0-0.2,0-0.3V48.9z"/>
		<path style="fill:#231F20;" d="M52.1,50.9l-0.1-0.5l0,0c-0.2,0.3-0.6,0.6-1,0.6c-0.7,0-1-0.5-1-1c0-0.8,0.7-1.3,2-1.3v-0.1
			c0-0.3-0.1-0.8-0.7-0.8c-0.3,0-0.6,0.1-0.9,0.3l-0.2-0.4c0.3-0.2,0.7-0.3,1.1-0.3c1,0,1.3,0.7,1.3,1.4v1.3c0,0.3,0,0.6,0.1,0.8
			H52.1z M52.1,49.2c-0.6,0-1.5,0.1-1.5,0.7c0,0.4,0.3,0.6,0.6,0.6c0.5,0,0.7-0.3,0.8-0.6c0-0.1,0-0.1,0-0.2L52.1,49.2L52.1,49.2z"
			/>
		<path style="fill:#231F20;" d="M56.1,50.8c-0.2,0.1-0.6,0.2-1,0.2c-1,0-1.8-0.7-1.8-1.8s0.7-1.8,1.8-1.8c0.4,0,0.7,0.1,0.8,0.2
			l-0.2,0.5c-0.2-0.1-0.4-0.2-0.7-0.2c-0.8,0-1.2,0.6-1.2,1.3c0,0.8,0.6,1.3,1.2,1.3c0.4,0,0.6-0.1,0.7-0.2L56.1,50.8z"/>
		<path style="fill:#231F20;" d="M57.5,46.5c0,0.2-0.2,0.4-0.4,0.4c-0.2,0-0.4-0.2-0.4-0.4s0.2-0.4,0.4-0.4
			C57.4,46.1,57.5,46.3,57.5,46.5z M56.9,50.9v-3.4h0.6v3.4H56.9z"/>
		<path style="fill:#231F20;" d="M61.6,49.2c0,1.3-0.9,1.8-1.8,1.8c-0.9,0-1.7-0.6-1.7-1.8c0-1.1,0.7-1.8,1.7-1.8
			C60.9,47.4,61.6,48.1,61.6,49.2z M58.9,49.3c0,0.7,0.5,1.3,1,1.3s1-0.6,1-1.3c0-0.6-0.3-1.3-1-1.3C59.2,48,58.9,48.5,58.9,49.3z
			 M60.8,46L60,47h-0.5l0.6-1H60.8z"/>
		<path style="fill:#231F20;" d="M62.4,48.4c0-0.4,0-0.6,0-0.9H63v0.6l0,0c0.2-0.4,0.6-0.6,1.1-0.6c0.5,0,1.2,0.3,1.2,1.5v2h-0.6V49
			c0-0.6-0.2-1-0.8-1c-0.4,0-0.7,0.3-0.8,0.6c0,0.1,0,0.2,0,0.3v2h-0.6L62.4,48.4L62.4,48.4z"/>
	</g>
	<g>
		<path style="fill:#231F20;" d="M48.1,58.1l-0.6,1.8h-0.7l1.8-5.5h0.8l1.9,5.5h-0.7l-0.6-1.8H48.1z M49.9,57.6L49.4,56
			c-0.1-0.4-0.2-0.7-0.3-1l0,0c-0.1,0.4-0.2,0.6-0.3,1l-0.6,1.6H49.9z"/>
		<path style="fill:#231F20;" d="M56,59.7c-0.3,0.1-0.8,0.3-1.5,0.3c-1.6,0-2.8-1-2.8-2.8s1.2-3,2.9-3c0.7,0,1.1,0.2,1.3,0.3
			l-0.2,0.6c-0.3-0.1-0.6-0.2-1.1-0.2c-1.3,0-2.1,0.8-2.1,2.3c0,1.4,0.7,2.2,2.1,2.2c0.5,0,0.9-0.1,1.2-0.2L56,59.7z"/>
		<path style="fill:#DD1D3B;" d="M57.6,54.2v5.5h-0.7v-5.5H57.6z"/>
		<path style="fill:#231F20;" d="M58.9,54.3c0.4-0.1,0.9-0.1,1.4-0.1c0.7,0,1.3,0.2,1.6,0.5c0.3,0.3,0.5,0.6,0.5,1
			c0,0.7-0.5,1.2-1,1.4l0,0c0.5,0.2,0.6,0.6,0.8,1.1c0.2,0.7,0.3,1.3,0.5,1.6h-0.7c-0.1-0.2-0.2-0.6-0.4-1.3c-0.2-0.7-0.5-1-1.1-1.1
			h-0.6v2.4H59L58.9,54.3L58.9,54.3z M59.6,56.9h0.7c0.7,0,1.3-0.5,1.3-1c0-0.7-0.6-1-1.3-1c-0.4,0-0.6,0-0.7,0.1V56.9z"/>
	</g>
</g>
</svg>
