<?xml version="1.0" encoding="utf-8"?>
<!-- Generator: Adobe Illustrator 16.0.3, SVG Export Plug-In . SVG Version: 6.00 Build 0)  -->
<!DOCTYPE svg PUBLIC "-//W3C//DTD SVG 1.1//EN" "http://www.w3.org/Graphics/SVG/1.1/DTD/svg11.dtd">
<svg version="1.1" id="Capa_1" xmlns="http://www.w3.org/2000/svg" xmlns:xlink="http://www.w3.org/1999/xlink" x="0px" y="0px"
	 width="51.3px" height="62px" viewBox="0 -0.1 51.3 62" style="enable-background:new 0 -0.1 51.3 62;" xml:space="preserve">
<g>
	<path style="fill:#111211;" d="M50.1,57.6c0,1.9-1,3.4-2.2,3.4H3.5c-1.2,0-2.2-1.5-2.2-3.4V4.3c0-1.9,1-3.4,2.2-3.4h44.4
		c1.2,0,2.2,1.5,2.2,3.4V57.6z"/>
	<path style="fill:#FFFFFF;" d="M10.1,27.5c0,0-0.3-1.4-2.1-1.4c-1.6,0-2,1.2-2,1.4v8.7c0,0,0.1,1.8,2,1.8c1.9,0,2.1-1.7,2.1-1.7
		V27.5z M11.4,48.7l-3.7-0.1c1.8-4.2,2.2-8,2.2-8c-8.9,1.3-9.7-5.1-9.7-5.1c-0.4-3.7-0.1-7-0.1-7s1.3-5.4,8.1-5.4
		c6.9,0,7.9,5.7,7.9,5.7c0.1,1.1,0,7.8,0,7.8C16,41.9,11.4,48.7,11.4,48.7"/>
	<path style="fill:#FFFFFF;" d="M25.6,27.3c-0.6,0-2,0.5-2.1,2.5V42c0,0,0.2,2.4,2.1,2.5c2,0.1,2.1-2.4,2.1-2.4l-0.1-12.3
		C27.7,29.7,27.6,27.3,25.6,27.3 M25.8,48.7c-7.4,0-8-7.5-8-7.5c-0.6-5.7,0.1-10.8,0.1-10.8s1.2-7.2,8.1-7.2c6.6,0,7.8,7.4,7.8,7.4
		c0.2,6.3-0.1,10-0.1,10C33.6,47.5,26.7,48.7,25.8,48.7"/>
	<path style="fill:#FFFFFF;" d="M45.3,27.5c0,0-0.3-1.4-2.1-1.4c-1.6,0-2,1.2-2,1.4v8.7c0,0,0.1,1.8,2,1.8s2.2-1.7,2.2-1.7
		L45.3,27.5z M46.6,48.6h-3.7c1.8-4.2,2.1-8,2.1-8c-8.9,1.3-9.7-5.1-9.7-5.1c-0.4-3.7-0.1-7-0.1-7s1.3-5.4,8.1-5.4
		c6.9,0,7.9,5.7,7.9,5.7c0.1,1.1,0,7.8,0,7.8C51.3,41.8,46.6,48.6,46.6,48.6"/>
	<path style="fill:#C3CF00;" d="M39.6,44.4c-0.2-0.5-0.4-1.3-2.4-1.3c-2.2,0-2.5,1-2.6,1.4c0,0-0.1,1.4,0,2.6c0,0,0.2,1.6,2.5,1.6
		c2.3,0,2.5-1.6,2.5-1.6S39.9,45,39.6,44.4"/>
	<rect x="6" y="9" style="fill:#C3CF00;" width="3.1" height="10.8"/>
	<path style="fill:#C3CF00;" d="M14.5,10.6c0,0.4,0,7.4,0,7.4s0.1,0.8,1,0.8c1.1,0,1.2-0.5,1.2-0.8v-7.3c0,0,0-0.8-1.1-0.8
		C14.8,9.8,14.5,10.2,14.5,10.6 M15.7,5.4c-0.4,0.7-0.8,3-0.8,3c4.4-0.1,4.6,2.5,4.6,2.5c0.3,1.1,0,6.5,0,6.5s0.1,2.8-3.8,2.8
		s-4.1-2.7-4.1-2.7c-0.3-3.1,0.1-6.6,0.1-6.6c0.2-2.2,2.4-5.5,2.4-5.5H15.7z"/>
	<path style="fill:#C3CF00;" d="M34.4,19.8v-9.1c0,0,0.3-0.8,1-0.8h1.3V8.5h-2.1c0,0-3.1,0.4-3.1,2.5v8.7L34.4,19.8z"/>
	<path style="fill:#C3CF00;" d="M24.4,10.7V15c0,0,0,0.8,1.1,0.8c1.1,0,1-0.9,1-0.9v-4.4c0,0,0-0.8-1-0.8
		C24.7,9.8,24.4,10.3,24.4,10.7 M25.7,21.1h-1.9c-2.1-3-2.2-5.3-2.2-5.3c-0.4-3.9,0-4.9,0-4.9c0-0.1,0.7-2.6,3.9-2.6
		c3.2,0,3.9,2.5,3.9,2.5c0.2,1,0.1,3.5,0.1,3.5c-0.2,3.5-4.8,2.8-4.8,2.8C24.8,19.5,25.7,21.1,25.7,21.1"/>
	<path style="fill:#C3CF00;" d="M42.7,17.9c0-0.1,0-7.2,0-7.2s-0.2-0.9-1.1-0.9s-1.1,0.8-1.1,0.8v7.3c0,0-0.1,0.9,1.1,0.9
		C42.7,18.8,42.8,18,42.7,17.9 M45.6,17.4c0,0.2-0.5,2.8-4.1,2.8c-3.6,0-3.9-2.8-3.9-2.8V11c0,0,0.6-2.7,4.1-2.7c3.4,0,4,3,4,3
		L45.6,17.4z"/>
	<path style="fill:#C3CF00;" d="M9,6C8.9,5.8,8.7,5.4,7.6,5.4c-1.3,0-1.4,0.5-1.5,0.7c0,0-0.1,0.7,0,1.2c0,0,0.1,0.8,1.4,0.8
		c1.3,0,1.4-0.8,1.4-0.8S9.2,6.3,9,6"/>
</g>
</svg>
