<?xml version="1.0" encoding="utf-8"?>
<!-- Generator: Adobe Illustrator 16.0.3, SVG Export Plug-In . SVG Version: 6.00 Build 0)  -->
<!DOCTYPE svg PUBLIC "-//W3C//DTD SVG 1.1//EN" "http://www.w3.org/Graphics/SVG/1.1/DTD/svg11.dtd">
<svg version="1.1" id="Capa_1" xmlns="http://www.w3.org/2000/svg" xmlns:xlink="http://www.w3.org/1999/xlink" x="0px" y="0px"
	 width="300px" height="20px" viewBox="0 0 300 20" style="enable-background:new 0 0 300 20;" xml:space="preserve">
<g>
	<g>
		<g>
			<path style="fill:#FFFFFF;" d="M146.5,13.8h-5.4l-0.8,1.7c-0.1,0.2-0.2,0.4-0.2,0.5c0,0.3,0.2,0.4,0.6,0.5v0.3h-3.9v-0.3
				c0.2,0,0.4-0.1,0.5-0.2c0.1-0.1,0.3-0.3,0.4-0.7l4.4-9.1c0.1-0.3,0.2-0.5,0.2-0.7c0-0.3-0.2-0.5-0.5-0.6V5h4.2v0.3
				c-0.3,0.1-0.5,0.3-0.5,0.5c0,0.2,0.1,0.4,0.2,0.6l4.5,9.2c0.2,0.4,0.4,0.7,0.5,0.8c0.1,0.1,0.3,0.2,0.6,0.3v0.3h-4.4v-0.3
				c0.4-0.1,0.6-0.2,0.6-0.5c0-0.1-0.1-0.3-0.2-0.5L146.5,13.8z M145.7,12.2L143.8,8l-2,4.2H145.7z"/>
			<path style="fill:#FFFFFF;" d="M157.2,6.9v9c0,0.2,0,0.3,0.1,0.4c0.1,0.1,0.2,0.2,0.4,0.2v0.3h-3.7v-0.3c0.2-0.1,0.4-0.1,0.4-0.2
				c0.1-0.1,0.1-0.2,0.1-0.4v-9h-3.7c-0.2,0-0.3,0-0.4,0.1c-0.1,0.1-0.2,0.2-0.2,0.4H150V4.4h0.3c0.1,0.2,0.1,0.4,0.2,0.4
				c0.1,0.1,0.2,0.1,0.4,0.1h10c0.2,0,0.3,0,0.4-0.1c0.1-0.1,0.2-0.2,0.2-0.4h0.3v3.1h-0.3c-0.1-0.2-0.1-0.4-0.2-0.4
				c-0.1-0.1-0.2-0.1-0.4-0.1H157.2z"/>
			<path style="fill:#FFFFFF;" d="M175.1,5.9v6.7c0,1.3-0.2,2.2-0.7,2.8c-0.8,1.1-2.6,1.7-5.2,1.7c-1.9,0-3.3-0.3-4.3-0.9
				c-0.6-0.4-1-0.8-1.2-1.4c-0.2-0.6-0.3-1.3-0.3-2.2V5.9c0-0.2,0-0.3-0.1-0.4c-0.1-0.1-0.2-0.2-0.4-0.2V5h3.7v0.3
				c-0.2,0.1-0.4,0.1-0.4,0.2c-0.1,0.1-0.1,0.2-0.1,0.4v5.9c0,0.7,0,1.2,0.1,1.5c0.1,0.3,0.2,0.6,0.4,0.8c0.6,0.6,1.5,0.9,2.9,0.9
				c1.3,0,2.3-0.3,2.9-0.9c0.2-0.2,0.3-0.5,0.4-0.8c0.1-0.3,0.1-0.8,0.1-1.5V5.9c0-0.2,0-0.3-0.1-0.4c-0.1-0.1-0.2-0.2-0.4-0.2V5
				h3.5v0.3c-0.2,0.1-0.4,0.1-0.4,0.2C175.1,5.6,175.1,5.7,175.1,5.9z"/>
			<path style="fill:#FFFFFF;" d="M180.7,12v3.9c0,0.2,0,0.3,0.1,0.4c0.1,0.1,0.2,0.2,0.4,0.2v0.3h-3.7v-0.3
				c0.2-0.1,0.4-0.1,0.4-0.2c0.1-0.1,0.1-0.2,0.1-0.4v-10c0-0.2,0-0.3-0.1-0.4c-0.1-0.1-0.2-0.2-0.4-0.2V5h7.4c0.9,0,1.6,0,2.2,0.2
				c0.5,0.1,1,0.3,1.4,0.5c0.5,0.3,0.8,0.7,1,1.2c0.2,0.5,0.3,1,0.3,1.6c0,1.9-1.1,3.1-3.2,3.4l2.3,3.3c0.4,0.6,0.7,0.9,0.9,1.1
				c0.2,0.2,0.4,0.3,0.7,0.3v0.3h-4.3v-0.3c0.3,0,0.4-0.1,0.4-0.3c0-0.1-0.1-0.4-0.4-0.8l-2.4-3.5H180.7z M180.7,10h4
				c0.6,0,1,0,1.3-0.1c0.2,0,0.5-0.1,0.7-0.2c0.4-0.2,0.7-0.7,0.7-1.3c0-0.6-0.2-1.1-0.7-1.3c-0.2-0.1-0.4-0.2-0.7-0.2
				c-0.2,0-0.7,0-1.3,0h-4V10z"/>
			<path style="fill:#FFFFFF;" d="M200.6,13.8h-5.4l-0.8,1.7c-0.1,0.2-0.2,0.4-0.2,0.5c0,0.3,0.2,0.4,0.6,0.5v0.3h-3.9v-0.3
				c0.2,0,0.4-0.1,0.5-0.2c0.1-0.1,0.3-0.3,0.4-0.7l4.4-9.1c0.1-0.3,0.2-0.5,0.2-0.7c0-0.3-0.2-0.5-0.5-0.6V5h4.2v0.3
				c-0.3,0.1-0.5,0.3-0.5,0.5c0,0.2,0.1,0.4,0.2,0.6l4.5,9.2c0.2,0.4,0.4,0.7,0.5,0.8c0.2,0.1,0.3,0.2,0.6,0.3v0.3H201v-0.3
				c0.4-0.1,0.6-0.2,0.6-0.5c0-0.1-0.1-0.3-0.2-0.5L200.6,13.8z M199.9,12.2L198,8l-2,4.2H199.9z"/>
		</g>
		<path style="fill:#99141B;" d="M135.8,18.2c0,0.8-0.6,1.4-1.4,1.4h-16.5c-0.8,0-1.4-0.6-1.4-1.4V1.7c0-0.8,0.6-1.4,1.4-1.4h16.5
			c0.8,0,1.4,0.6,1.4,1.4V18.2z"/>
		<g>
			<path style="fill:#FFFFFF;" d="M121.9,7.6v8.2c0,0.2,0,0.4,0.1,0.5c0.1,0.1,0.3,0.2,0.5,0.3v0.3h-3.9v-0.3
				c0.2-0.1,0.4-0.1,0.5-0.3c0.1-0.1,0.1-0.3,0.1-0.5V4.4c0-0.2,0-0.3-0.1-0.5c-0.1-0.1-0.3-0.2-0.5-0.3V3.4h4.6v0.3
				c-0.3,0.1-0.4,0.2-0.4,0.5c0,0.2,0.1,0.3,0.3,0.5l7.4,7.7v-8c0-0.2,0-0.3-0.1-0.5c-0.1-0.1-0.3-0.2-0.5-0.3V3.4h3.9v0.3
				c-0.2,0.1-0.4,0.2-0.5,0.3c-0.1,0.1-0.1,0.3-0.1,0.5v11.4c0,0.2,0,0.4,0.1,0.5c0.1,0.1,0.3,0.2,0.5,0.3v0.3h-4.2v-0.3
				c0.3-0.1,0.4-0.2,0.4-0.4c0-0.1-0.2-0.4-0.5-0.7L121.9,7.6z"/>
		</g>
	</g>
	<g>
		<path style="fill:#FFFFFF;" d="M28,4.4c2.1,0,3.7,0.6,4.9,1.7c1.3,1.2,1.9,2.7,1.9,4.5c0,1.1-0.3,2.2-0.9,3.2
			c-1.2,1.9-3.2,2.9-5.9,2.9c-2.1,0-3.7-0.6-4.9-1.7c-0.6-0.6-1.1-1.3-1.5-2.2c-0.3-0.7-0.4-1.5-0.4-2.3c0-1.2,0.3-2.3,0.9-3.3
			C23.3,5.4,25.2,4.4,28,4.4z M28,6.4c-1.1,0-2.1,0.3-2.8,1c-0.9,0.8-1.3,1.8-1.3,3.1c0,1.3,0.4,2.3,1.3,3.1c0.8,0.7,1.7,1,2.8,1
			c1.1,0,2.1-0.3,2.8-1c0.4-0.4,0.8-0.9,1-1.5c0.2-0.5,0.3-1,0.3-1.6c0-1.3-0.4-2.4-1.3-3.2C30.1,6.7,29.1,6.4,28,6.4z"/>
		<path style="fill:#FFFFFF;" d="M50.8,5.6l-1.4,2.8l-0.2-0.1c0-0.1,0-0.1,0-0.1c0-0.2-0.2-0.4-0.5-0.6c-1-0.7-2.2-1.1-3.6-1.1
			c-0.6,0-1.2,0.1-1.6,0.2c-0.3,0.1-0.6,0.3-0.8,0.5c-0.2,0.2-0.3,0.5-0.3,0.8c0,0.4,0.3,0.8,0.8,0.9c0.3,0.1,0.9,0.2,1.8,0.3
			l1.4,0.1c0.8,0.1,1.5,0.2,2,0.4c0.5,0.2,0.9,0.4,1.3,0.6c0.4,0.3,0.7,0.7,0.9,1.1c0.2,0.5,0.3,1,0.3,1.5c0,0.8-0.3,1.6-0.8,2.2
			c-0.5,0.6-1.2,1-2.3,1.3c-0.8,0.2-1.6,0.3-2.5,0.3c-1.6,0-3.1-0.4-4.7-1.1c-0.3-0.2-0.5-0.2-0.6-0.2c-0.1,0-0.2,0.1-0.4,0.2
			l-0.3-0.1l1.3-2.9l0.3,0.1c0,0.1,0,0.1,0,0.1c0,0.3,0.1,0.5,0.4,0.7c0.4,0.3,1,0.6,1.7,0.9c0.8,0.2,1.5,0.4,2.2,0.4
			c0.8,0,1.4-0.1,2-0.4c0.3-0.1,0.5-0.3,0.7-0.6c0.2-0.2,0.3-0.5,0.3-0.7c0-0.4-0.2-0.7-0.6-0.8c-0.3-0.1-0.9-0.2-1.8-0.3l-1.3-0.1
			c-0.9-0.1-1.5-0.2-1.9-0.3c-0.4-0.1-0.7-0.2-1.1-0.4c-0.5-0.3-0.9-0.7-1.2-1.2c-0.3-0.5-0.4-1-0.4-1.6c0-1,0.3-1.8,1-2.5
			c0.9-0.9,2.3-1.3,4.1-1.3c0.8,0,1.5,0.1,2.1,0.2c0.7,0.2,1.5,0.4,2.5,0.9c0.3,0.1,0.5,0.2,0.6,0.2c0.1,0,0.3-0.1,0.4-0.2L50.8,5.6
			z"/>
		<path style="fill:#FFFFFF;" d="M63.8,13.4h-5.4l-0.8,1.7c-0.1,0.2-0.2,0.4-0.2,0.5c0,0.3,0.2,0.4,0.6,0.5v0.3h-3.9v-0.3
			c0.2,0,0.4-0.1,0.5-0.2c0.1-0.1,0.3-0.3,0.4-0.7l4.4-9.1c0.1-0.3,0.2-0.5,0.2-0.7c0-0.3-0.2-0.5-0.5-0.6V4.6h4.2v0.3
			C63,5,62.8,5.1,62.8,5.4c0,0.2,0.1,0.4,0.2,0.6l4.5,9.1c0.2,0.4,0.4,0.7,0.5,0.8c0.1,0.1,0.3,0.2,0.6,0.3v0.3h-4.4v-0.3
			c0.4-0.1,0.6-0.2,0.6-0.5c0-0.1-0.1-0.3-0.2-0.5L63.8,13.4z M63,11.8l-1.9-4.2l-2,4.2H63z"/>
		<path style="fill:#FFFFFF;" d="M73.2,15.6V5.5c0-0.2,0-0.3-0.1-0.4C73,5,72.8,4.9,72.6,4.9V4.6h3.7v0.3c-0.2,0-0.4,0.1-0.4,0.2
			c-0.1,0.1-0.1,0.2-0.1,0.4v10.1c0,0.2,0,0.3,0.1,0.4c0.1,0.1,0.2,0.2,0.4,0.2v0.3h-3.7v-0.3C72.8,16.1,73,16,73,16
			C73.1,15.9,73.2,15.7,73.2,15.6z"/>
		<path style="fill:#FFFFFF;" d="M93,12.4l1.6,2.5L94.4,15c-0.2-0.2-0.3-0.2-0.4-0.2c-0.1,0-0.4,0.1-0.9,0.4c-1,0.6-1.8,1-2.5,1.2
			c-0.7,0.2-1.5,0.3-2.4,0.3c-1.9,0-3.4-0.5-4.6-1.3c-0.7-0.5-1.3-1.2-1.7-1.9c-0.5-0.9-0.7-1.8-0.7-2.9c0-1.4,0.4-2.7,1.3-3.8
			c1.3-1.6,3.2-2.4,5.7-2.4c0.9,0,1.7,0.1,2.4,0.3c0.7,0.2,1.5,0.6,2.5,1.2c0.5,0.3,0.8,0.4,0.9,0.4c0.1,0,0.2-0.1,0.4-0.2l0.2,0.2
			L93,8.7l-0.2-0.2c0-0.1,0-0.2,0-0.2c0-0.2-0.1-0.3-0.2-0.5c-0.1-0.1-0.4-0.3-0.8-0.5c-1-0.6-2.1-0.9-3.3-0.9c-1.4,0-2.4,0.3-3.2,1
			c-0.9,0.8-1.4,1.8-1.4,3.1c0,1.3,0.5,2.3,1.4,3.1c0.8,0.7,1.9,1,3.2,1c1.1,0,2.2-0.3,3.3-0.9c0.4-0.2,0.6-0.4,0.8-0.5
			c0.1-0.2,0.2-0.3,0.2-0.5c0-0.1,0-0.1,0-0.2L93,12.4z"/>
		<path style="fill:#FFFFFF;" d="M105.6,4.4c2.1,0,3.7,0.6,4.9,1.7c1.3,1.2,1.9,2.7,1.9,4.5c0,1.1-0.3,2.2-0.9,3.2
			c-1.2,1.9-3.2,2.9-5.9,2.9c-2.1,0-3.7-0.6-4.9-1.7c-0.6-0.6-1.1-1.3-1.5-2.2c-0.3-0.7-0.4-1.5-0.4-2.3c0-1.2,0.3-2.3,0.9-3.3
			C100.9,5.4,102.9,4.4,105.6,4.4z M105.6,6.4c-1.1,0-2.1,0.3-2.8,1c-0.9,0.8-1.3,1.8-1.3,3.1c0,1.3,0.4,2.3,1.3,3.1
			c0.8,0.7,1.7,1,2.9,1c1.1,0,2.1-0.3,2.8-1c0.4-0.4,0.8-0.9,1-1.5c0.2-0.5,0.3-1,0.3-1.6c0-1.3-0.4-2.4-1.3-3.2
			C107.7,6.7,106.8,6.4,105.6,6.4z"/>
		<path style="fill:#FFD400;" d="M19.9,17.9c0,0.8-0.6,1.4-1.4,1.4H1.9c-0.8,0-1.4-0.6-1.4-1.4V1.4C0.5,0.6,1.1,0,1.9,0h16.5
			c0.8,0,1.4,0.6,1.4,1.4V17.9z"/>
		<g>
			<path style="fill:#04090E;" d="M9.8,16.7l-5-9.3v8.2c0,0.2,0,0.4,0.1,0.5c0.1,0.1,0.3,0.2,0.5,0.3v0.3H1.6v-0.3
				c0.2-0.1,0.4-0.2,0.5-0.3c0.1-0.1,0.1-0.3,0.1-0.5V4.3c0-0.2,0-0.3-0.1-0.5C2,3.7,1.8,3.6,1.6,3.5V3.2h5.2v0.3
				C6.4,3.6,6.3,3.8,6.3,4.1c0,0.1,0,0.3,0.1,0.5l3.7,6.9l3.7-6.8C14,4.4,14,4.1,14,4c0-0.3-0.2-0.4-0.5-0.4V3.2h5.1v0.3
				c-0.2,0.1-0.4,0.1-0.5,0.3C18,3.9,18,4.1,18,4.3v11.4c0,0.2,0,0.4,0.1,0.5c0.1,0.1,0.3,0.2,0.5,0.3v0.3h-4.2v-0.3
				c0.2-0.1,0.4-0.1,0.5-0.2c0.1-0.1,0.1-0.3,0.1-0.5V7.4L9.8,16.7z"/>
		</g>
	</g>
	<g>
		<path style="fill:#FFFFFF;" d="M225.6,20h-16.5c-0.9,0-1.6-0.7-1.6-1.6V1.9c0-0.9,0.7-1.6,1.6-1.6h16.5c0.9,0,1.6,0.7,1.6,1.6
			v16.5C227.2,19.3,226.5,20,225.6,20z M209.1,0.6c-0.7,0-1.2,0.5-1.2,1.2v16.5c0,0.7,0.6,1.2,1.2,1.2h16.5c0.7,0,1.2-0.6,1.2-1.2
			V1.9c0-0.7-0.6-1.2-1.2-1.2H209.1z"/>
		<path style="fill:#999999;" d="M217.1,16.8l-5-9.3v8.2c0,0.2,0,0.4,0.1,0.5c0.1,0.1,0.3,0.2,0.5,0.3v0.3h-3.9v-0.3
			c0.2-0.1,0.4-0.1,0.5-0.3c0.1-0.1,0.1-0.3,0.1-0.5V4.4c0-0.2,0-0.3-0.1-0.5c-0.1-0.1-0.3-0.2-0.5-0.3V3.4h5.2v0.3
			c-0.3,0.1-0.5,0.3-0.5,0.5c0,0.1,0,0.3,0.1,0.4l3.7,6.9l3.7-6.8c0.2-0.3,0.2-0.5,0.2-0.7c0-0.3-0.2-0.4-0.5-0.5V3.4h5.1v0.3
			c-0.2,0.1-0.4,0.2-0.5,0.3c-0.1,0.1-0.1,0.3-0.1,0.5v11.4c0,0.2,0,0.4,0.1,0.5c0.1,0.1,0.3,0.2,0.5,0.3v0.3h-4.2v-0.3
			c0.2-0.1,0.4-0.1,0.5-0.2c0.1-0.1,0.1-0.3,0.1-0.5V7.6L217.1,16.8z"/>
		<path style="fill:#999999;" d="M232.7,12.2v2.7h7c0.2,0,0.4,0,0.5-0.1c0.1-0.1,0.2-0.3,0.3-0.5h0.3v3.3h-0.3
			c0-0.2-0.1-0.4-0.3-0.5c-0.1-0.1-0.3-0.1-0.5-0.1h-10.3v-0.3c0.2-0.1,0.4-0.1,0.5-0.3c0.1-0.1,0.1-0.3,0.1-0.5v-9
			c0-0.2,0-0.4-0.1-0.5c-0.1-0.1-0.3-0.2-0.5-0.3V5.8h10c0.2,0,0.4,0,0.5-0.1c0.1-0.1,0.2-0.3,0.3-0.5h0.3v3.3h-0.3
			C240,8.2,240,8.1,239.8,8c-0.1-0.1-0.3-0.1-0.5-0.1h-6.7v2.4h4.2c0.2,0,0.3,0,0.5-0.1c0.1-0.1,0.2-0.3,0.3-0.5h0.3v3.2h-0.3
			c-0.1-0.2-0.1-0.4-0.3-0.5c-0.1-0.1-0.3-0.1-0.5-0.1H232.7z M237.8,1.8V2c-0.3,0-0.4,0.1-0.6,0.3L235.8,4c0,0-0.1,0.1-0.1,0.2
			c0,0.1,0.1,0.2,0.2,0.2c0,0,0,0,0,0v0.3h-2.1V4.3c0.2,0,0.3,0,0.3-0.1c0.1,0,0.1-0.1,0.2-0.3l0.7-1.6c0-0.1,0-0.1,0-0.1
			c0-0.1-0.1-0.2-0.3-0.2V1.8H237.8z"/>
		<path style="fill:#999999;" d="M252.6,11.1l3.3,4.4c0.3,0.4,0.5,0.6,0.8,0.8c0.2,0.2,0.5,0.3,0.8,0.3v0.3h-5.1v-0.3
			c0.4-0.1,0.6-0.3,0.6-0.5c0-0.1-0.1-0.3-0.3-0.6l-1.7-2.3l-1.8,2.3c-0.2,0.2-0.3,0.4-0.3,0.6c0,0.2,0.2,0.4,0.6,0.5v0.3h-4.7v-0.3
			c0.3-0.1,0.6-0.2,0.7-0.3c0.2-0.1,0.4-0.4,0.7-0.8l3.3-4.2l-2.9-3.9c-0.6-0.8-1.1-1.3-1.6-1.3V5.8h5v0.3c-0.4,0.1-0.6,0.3-0.6,0.6
			c0,0.2,0.1,0.4,0.3,0.7l1.4,1.9l1.4-1.8c0.3-0.4,0.4-0.6,0.4-0.8c0-0.3-0.2-0.5-0.6-0.6V5.8h4.8v0.3c-0.4,0.1-0.6,0.2-0.8,0.3
			c-0.2,0.1-0.5,0.5-0.9,1L252.6,11.1z"/>
		<path style="fill:#999999;" d="M264.9,6.8v9c0,0.2,0,0.3,0.1,0.5c0.1,0.1,0.3,0.2,0.5,0.3v0.3h-3.9v-0.3c0.2-0.1,0.4-0.1,0.5-0.3
			c0.1-0.1,0.1-0.3,0.1-0.5v-9c0-0.2,0-0.4-0.1-0.5c-0.1-0.1-0.3-0.2-0.5-0.3V5.8h3.9v0.3c-0.2,0.1-0.4,0.2-0.5,0.3
			C265,6.5,264.9,6.6,264.9,6.8z"/>
		<path style="fill:#999999;" d="M280.8,12.9l1.7,2.4l-0.2,0.2c-0.2-0.1-0.3-0.2-0.4-0.2c-0.1,0-0.4,0.1-0.8,0.4
			c-0.9,0.5-1.7,0.9-2.4,1.1c-0.7,0.2-1.5,0.3-2.4,0.3c-1.8,0-3.3-0.4-4.4-1.3c-0.6-0.5-1.2-1.1-1.5-1.9c-0.4-0.8-0.6-1.7-0.6-2.6
			c0-1.3,0.4-2.4,1.1-3.4c1.2-1.5,3-2.3,5.4-2.3c0.9,0,1.7,0.1,2.4,0.3c0.7,0.2,1.5,0.6,2.4,1.1c0.4,0.2,0.7,0.4,0.8,0.4
			c0.1,0,0.2-0.1,0.4-0.2l0.2,0.2l-1.7,2.4l-0.2-0.2c0-0.1,0-0.1,0-0.1c0-0.1,0-0.1,0-0.1c0-0.3-0.4-0.7-1.3-1.1
			c-0.8-0.4-1.7-0.6-2.5-0.6c-1.2,0-2.2,0.3-3,0.9c-0.9,0.7-1.3,1.6-1.3,2.7c0,1.1,0.4,2,1.3,2.7c0.8,0.6,1.8,0.9,3,0.9
			c0.9,0,1.9-0.2,2.8-0.7c0.7-0.4,1.1-0.7,1.1-1c0,0,0-0.1,0-0.3L280.8,12.9z"/>
		<path style="fill:#999999;" d="M293,5.6c1.8,0,3.2,0.4,4.4,1.3c1.4,1.1,2.1,2.6,2.1,4.5c0,1.8-0.7,3.2-2.1,4.3
			c-1.2,0.9-2.6,1.3-4.4,1.3c-1.8,0-3.2-0.4-4.4-1.3c-1.4-1.1-2.1-2.5-2.1-4.4c0-1.9,0.7-3.3,2.1-4.4C289.8,6.1,291.3,5.6,293,5.6z
			 M293,7.7c-1.1,0-2.1,0.4-2.8,1.1c-0.7,0.7-1,1.5-1,2.6s0.3,1.9,1,2.6c0.7,0.7,1.6,1.1,2.8,1.1c1.1,0,2.1-0.4,2.8-1.1
			c0.7-0.7,1-1.5,1-2.5c0-1.1-0.3-2-1-2.6C295.1,8.1,294.2,7.7,293,7.7z"/>
	</g>
</g>
</svg>
