<?xml version="1.0" encoding="utf-8"?>
<!-- Generator: Adobe Illustrator 22.0.1, SVG Export Plug-In . SVG Version: 6.00 Build 0)  -->
<svg version="1.1" id="Capa_1" xmlns="http://www.w3.org/2000/svg" xmlns:xlink="http://www.w3.org/1999/xlink" x="0px" y="0px"
	 viewBox="0 0 255.4 105" style="enable-background:new 0 0 255.4 105;" xml:space="preserve">
<style type="text/css">
	.st0{fill:#FDD600;}
	.st1{fill:#FFFFFF;}
</style>
<g>
	<path class="st0" d="M2.8,16.7h49.9v71.5H2.8V16.7z M45.5,23.9H9.9v57.1h35.5V23.9z"/>
	<path class="st1" d="M86.2,48.1H83c-4.2-5.9-8.4-11.8-12.5-18.5h0v18.5h-3.5V22.2h3.2c4.2,5.9,8.4,11.8,12.5,18.4h0.1V22.2h3.5
		V48.1z"/>
	<path class="st1" d="M94.6,37.8c1-3.4,2.1-6.5,3-10.5h0.1c1,4,2,7.1,2.9,10.5H94.6z M96.3,22.2l-8.9,25.8h3.8l2.3-7h7.8l2,7h4.9
		L100,22.2H96.3z"/>
	<polygon class="st1" points="112.4,48.1 112.4,25.7 105.6,25.7 105.6,22.2 123.7,22.2 123.7,25.7 116.9,25.7 116.9,48.1 	"/>
	<rect x="125.1" y="22.2" class="st1" width="4.4" height="25.8"/>
	<path class="st1" d="M143.1,44.8c-4.6,0-6.2-5.1-6.2-10c0-4.8,1.8-9.3,6.2-9.3c4.4,0,6.2,4.5,6.2,9.3
		C149.4,39.7,147.8,44.8,143.1,44.8 M143.1,48.5c6.8,0,11-6,11-13.7c0-7.2-4.7-13-11-13c-6.3,0-11,5.8-11,13
		C132.2,42.5,136.4,48.5,143.1,48.5"/>
	<path class="st1" d="M176.1,48.1h-3.2c-4.2-5.9-8.4-11.8-12.6-18.5h0v18.5h-3.5V22.2h3.2c4.2,5.9,8.4,11.8,12.5,18.4h0.1V22.2h3.5
		V48.1z"/>
	<path class="st1" d="M184.6,37.8c1-3.4,2.1-6.5,3-10.5h0.1c1,4,2,7.1,2.9,10.5H184.6z M186.2,22.2l-8.9,25.8h3.8l2.3-7h7.8l2,7h4.9
		l-8.2-25.8H186.2z"/>
	<polygon class="st1" points="199.5,22.2 203.9,22.2 203.9,44.6 212.6,44.6 212.6,48.1 199.5,48.1 	"/>
	<path class="st1" d="M83.5,69.7v10.7c-2.4,0.9-4.8,1.6-7.3,1.6c-7.6,0-12.4-5.9-12.4-13.5c0-7,4.8-13.2,12.6-13.2
		c2.4,0,4.8,0.9,6.3,2l-1.4,3.1c-1.2-0.7-3-1.4-4.7-1.4c-4.7,0-7.9,3.7-7.9,9.6c0,6.1,3.7,9.7,7.5,9.7c1.2,0,2.2-0.2,3.1-0.6v-7.9
		H83.5z"/>
	<polygon class="st1" points="99.3,59.1 92,59.1 92,66.2 99.2,66.2 99.2,69.7 92,69.7 92,78 100.7,78 100.7,81.5 87.5,81.5 
		87.5,55.7 99.3,55.7 	"/>
	<path class="st1" d="M113,78.2c-4.6,0-6.2-5.1-6.2-10c0-4.8,1.8-9.3,6.2-9.3c4.4,0,6.2,4.5,6.2,9.3C119.2,73.1,117.6,78.2,113,78.2
		 M113,81.9c6.8,0,11-6,11-13.7c0-7.2-4.7-13-11-13c-6.3,0-11,5.8-11,13C102,75.9,106.2,81.9,113,81.9"/>
	<path class="st1" d="M145.2,69.7v10.7c-2.4,0.9-4.8,1.6-7.3,1.6c-7.6,0-12.4-5.9-12.4-13.5c0-7,4.8-13.2,12.5-13.2
		c2.4,0,4.8,0.9,6.3,2l-1.4,3.1c-1.2-0.7-3-1.4-4.7-1.4c-4.7,0-7.9,3.7-7.9,9.6c0,6.1,3.7,9.7,7.5,9.7c1.2,0,2.2-0.2,3.1-0.6v-7.9
		H145.2z"/>
	<path class="st1" d="M153.7,59.1h2c2.6,0,4.1,1.5,4.1,4.2c0,3.5-2.1,5-4.2,5.1c-0.4,0-1.5,0.1-1.8,0.1V59.1z M164.9,81.5l-5.2-10.7
		c2.8-1.5,4.5-4.6,4.5-7.7c0-5-3.1-7.5-8-7.5h-6.9v25.8h4.4v-9.7h1.9h0.1l4.2,9.7H164.9z"/>
	<path class="st1" d="M172.2,71.3c1-3.4,2.1-6.5,3-10.5h0.1c1,4,2,7.1,2.9,10.5H172.2z M173.9,55.7L165,81.5h3.8l2.3-7h7.8l2,7h4.9
		l-8.2-25.8H173.9z"/>
	<path class="st1" d="M191.7,81.5h-4.4V55.7h6.9c4.9,0,8,2.4,8,7.5c0,4.3-3.2,8.6-8.5,8.6h-2.1v-3.2c0.2,0,1.4-0.1,1.9-0.1
		c2.1-0.1,4.2-1.7,4.2-5.1c0-2.7-1.5-4.2-4.1-4.2h-2V81.5z"/>
	<polygon class="st1" points="222.7,81.5 218.2,81.5 218.2,69.1 209.1,69.1 209.1,81.5 204.7,81.5 204.7,55.7 209.1,55.7 
		209.1,65.6 218.2,65.6 218.2,55.7 222.7,55.7 	"/>
	<rect x="226.9" y="55.7" class="st1" width="4.4" height="25.8"/>
	<path class="st1" d="M251.2,60.3c-1.1-0.7-2.8-1.4-4.5-1.4c-4.5,0-7.8,3.7-7.8,9.6c0,6.1,3.6,9.7,7.9,9.7c1.7,0,3.3-0.6,4.4-1.3
		l1.2,3.2c-1.3,0.9-3.7,1.8-5.8,1.8c-7.6,0-12.4-5.9-12.4-13.5c0-7,4.8-13.2,12.5-13.2c2.3,0,4.4,1,5.9,2L251.2,60.3z"/>
</g>
</svg>
