<?xml version="1.0" encoding="utf-8"?>
<!-- Generator: Adobe Illustrator 16.0.3, SVG Export Plug-In . SVG Version: 6.00 Build 0)  -->
<!DOCTYPE svg PUBLIC "-//W3C//DTD SVG 1.1//EN" "http://www.w3.org/Graphics/SVG/1.1/DTD/svg11.dtd">
<svg version="1.1" id="Capa_1" xmlns="http://www.w3.org/2000/svg" xmlns:xlink="http://www.w3.org/1999/xlink" x="0px" y="0px"
	 width="255.4px" height="105px" viewBox="0 0 255.4 105" style="enable-background:new 0 0 255.4 105;" xml:space="preserve">
<g>
	<g>
		<g>
			<g>
				<path style="fill:#FFD400;" d="M2.7,81.4V7.9H54v73.5H2.7z M46.6,74V15.3H10.1V74H46.6z"/>
			</g>
		</g>
	</g>
	<path style="fill:#FFFFFF;" d="M88,41h-3.2c-4.2-5.9-8.3-11.7-12.4-18.3h0V41h-3.5V15.4H72c4.2,5.8,8.3,11.7,12.4,18.2h0.1V15.4H88
		V41z"/>
	<path style="fill:#FFFFFF;" d="M96.3,30.8c1-3.4,2-6.5,3-10.4h0.1c1,3.9,1.9,7.1,2.9,10.4H96.3z M98,15.4L89.1,41h3.8l2.2-7h7.7
		l2,7h4.9l-8.1-25.6H98z"/>
	<path style="fill:#FFFFFF;" d="M113.9,41V18.8h-6.7v-3.4H125v3.4h-6.7V41H113.9z"/>
	<path style="fill:#FFFFFF;" d="M126.4,41V15.4h4.3V41H126.4z"/>
	<path style="fill:#FFFFFF;" d="M144.3,37.7c-4.6,0-6.2-5-6.2-9.9c0-4.7,1.8-9.2,6.2-9.2c4.3,0,6.2,4.5,6.2,9.2
		C150.5,32.7,148.9,37.7,144.3,37.7z M144.3,41.4c6.7,0,10.9-6,10.9-13.6c0-7.2-4.6-12.9-10.9-12.9c-6.2,0-10.8,5.7-10.8,12.9
		C133.4,35.4,137.6,41.4,144.3,41.4z"/>
	<path style="fill:#FFFFFF;" d="M177,41h-3.2c-4.2-5.9-8.3-11.7-12.4-18.3h0V41h-3.5V15.4h3.2c4.2,5.8,8.3,11.7,12.4,18.2h0.1V15.4
		h3.5V41z"/>
	<path style="fill:#FFFFFF;" d="M185.3,30.8c1-3.4,2-6.5,3-10.4h0.1c1,3.9,1.9,7.1,2.9,10.4H185.3z M187,15.4L178.1,41h3.8l2.2-7
		h7.7l2,7h4.9l-8.1-25.6H187z"/>
	<path style="fill:#FFFFFF;" d="M200.1,15.4h4.3v22.1h8.7V41h-13V15.4z"/>
	<path style="fill:#FFFFFF;" d="M85.3,62.3v10.6c-2.3,0.9-4.8,1.6-7.3,1.6c-7.5,0-12.3-5.8-12.3-13.4c0-7,4.8-13.1,12.4-13.1
		c2.4,0,4.7,0.9,6.2,2l-1.4,3c-1.2-0.7-3-1.4-4.7-1.4c-4.7,0-7.9,3.7-7.9,9.5c0,6.1,3.7,9.6,7.4,9.6c1.2,0,2.2-0.1,3.1-0.6v-7.9
		H85.3z"/>
	<path style="fill:#FFFFFF;" d="M100.9,51.9h-7.3v7h7.2v3.4h-7.2v8.3h8.6V74h-13V48.4h11.7V51.9z"/>
	<path style="fill:#FFFFFF;" d="M114.4,70.8c-4.6,0-6.2-5-6.2-9.9c0-4.7,1.8-9.2,6.2-9.2c4.3,0,6.2,4.5,6.2,9.2
		C120.6,65.7,119,70.8,114.4,70.8z M114.4,74.4c6.7,0,10.9-6,10.9-13.6c0-7.2-4.6-12.9-10.9-12.9c-6.2,0-10.9,5.7-10.9,12.9
		C103.6,68.5,107.8,74.4,114.4,74.4z"/>
	<path style="fill:#FFFFFF;" d="M146.4,62.3v10.6c-2.3,0.9-4.8,1.6-7.3,1.6c-7.5,0-12.3-5.8-12.3-13.4c0-7,4.8-13.1,12.4-13.1
		c2.4,0,4.8,0.9,6.2,2l-1.4,3c-1.2-0.7-3-1.4-4.7-1.4c-4.7,0-7.9,3.7-7.9,9.5c0,6.1,3.7,9.6,7.4,9.6c1.2,0,2.2-0.1,3.1-0.6v-7.9
		H146.4z"/>
	<path style="fill:#FFFFFF;" d="M154.8,51.9h1.9c2.6,0,4.1,1.5,4.1,4.1c0,3.4-2.1,5-4.2,5.1c-0.4,0-1.5,0.1-1.8,0.1V51.9z M165.9,74
		l-5.2-10.6c2.8-1.5,4.4-4.5,4.4-7.6c0-5-3-7.4-7.9-7.4h-6.8V74h4.4v-9.6h1.9h0.1l4.1,9.6H165.9z"/>
	<path style="fill:#FFFFFF;" d="M173.1,63.9c1-3.4,2-6.5,3-10.4h0.1c1,3.9,1.9,7.1,2.9,10.4H173.1z M174.8,48.4L165.9,74h3.8l2.2-7
		h7.7l2,7h4.9l-8.2-25.6H174.8z"/>
	<path style="fill:#FFFFFF;" d="M192.4,74H188V48.4h6.8c4.9,0,7.9,2.4,7.9,7.4c0,4.3-3.2,8.6-8.4,8.6h-2v-3.2c0.2,0,1.4-0.1,1.9-0.1
		c2.1-0.1,4.2-1.6,4.2-5.1c0-2.6-1.5-4.1-4-4.1h-2V74z"/>
	<path style="fill:#FFFFFF;" d="M223,74h-4.4V61.7h-9.1V74h-4.3V48.4h4.3v9.8h9.1v-9.8h4.4V74z"/>
	<path style="fill:#FFFFFF;" d="M227.2,74V48.4h4.3V74H227.2z"/>
	<path style="fill:#FFFFFF;" d="M251.3,53.1c-1.1-0.7-2.8-1.4-4.5-1.4c-4.5,0-7.7,3.7-7.7,9.5c0,6.1,3.6,9.6,7.8,9.6
		c1.7,0,3.3-0.5,4.4-1.3l1.2,3.2c-1.3,0.9-3.7,1.8-5.8,1.8c-7.5,0-12.3-5.8-12.3-13.4c0-7,4.7-13.1,12.3-13.1c2.3,0,4.4,0.9,5.9,2
		L251.3,53.1z"/>
	<path style="fill:#FFFFFF;" d="M76.3,83.6h-4.7v4.5h4.6v2.2h-4.6v5.3h5.5v2.2h-8.3V81.4h7.5V83.6z"/>
	<path style="fill:#FFFFFF;" d="M92.7,97.7h-2C88,94,85.4,90.3,82.7,86h0v11.7h-2.2V81.4h2c2.7,3.7,5.3,7.4,7.9,11.6h0V81.4h2.2
		V97.7z"/>
	<path style="fill:#FFFFFF;" d="M109.6,83.6h-4.7v4.5h4.6v2.2h-4.6v5.3h5.5v2.2h-8.3V81.4h7.5V83.6z"/>
	<path style="fill:#FFFFFF;" d="M120.7,84.3c-0.6-0.5-1.4-0.9-2.2-0.9c-1.2,0-1.8,0.8-1.8,1.7c0,1.1,1,1.9,2.6,3.4
		c1.9,1.7,2.9,3.1,2.9,5.1c0,2-1.7,4.4-4.8,4.4c-1.4,0-3.1-0.5-4.1-1.6l1-1.9c0.7,0.6,1.6,1.3,2.8,1.3c1.1,0,2.1-0.7,2.1-2.3
		c0-1.8-1.9-3-3-4c-1.4-1.3-2.5-2.3-2.5-4.4c0-2.2,1.9-4,4.4-4c1.6,0,2.9,0.7,3.5,1.4L120.7,84.3z"/>
	<path style="fill:#FFFFFF;" d="M127.6,97.7h-2.8V81.4h4.4c3.1,0,5.1,1.5,5.1,4.7c0,2.8-2,5.5-5.4,5.5h-1.3v-2c0.1,0,0.9,0,1.2-0.1
		c1.3-0.1,2.7-1,2.7-3.2c0-1.7-0.9-2.6-2.6-2.6h-1.3V97.7z"/>
	<path style="fill:#FFFFFF;" d="M139.1,91.3c0.7-2.1,1.3-4.1,1.9-6.6h0c0.7,2.5,1.2,4.5,1.8,6.6H139.1z M140.2,81.4l-5.6,16.3h2.4
		l1.4-4.4h4.9l1.3,4.4h3.1l-5.2-16.3H140.2z"/>
	<path style="fill:#FFFFFF;" d="M162.1,97.7h-2c-2.7-3.8-5.3-7.5-7.9-11.7h0v11.7h-2.2V81.4h2c2.7,3.7,5.3,7.4,7.9,11.6h0V81.4h2.2
		V97.7z M160.3,77.4c-0.6,1.2-1.3,2.2-2.2,2.2c-0.5,0-1-0.3-1.5-0.7c-0.5-0.3-1-0.6-1.6-0.6c-0.7,0-1,0.7-1.4,1.5l-1.1-0.6
		c0.7-1.6,1.5-2.5,2.4-2.5c0.5,0,1.1,0.3,1.6,0.6c0.5,0.3,1.1,0.7,1.4,0.7c0.6,0,1-0.7,1.3-1.3L160.3,77.4z"/>
	<path style="fill:#FFFFFF;" d="M172,95.7c-2.9,0-3.9-3.2-3.9-6.3c0-3,1.2-5.9,3.9-5.9s3.9,2.9,3.9,5.9
		C175.9,92.5,174.9,95.7,172,95.7z M172,98c4.3,0,6.9-3.8,6.9-8.7c0-4.6-2.9-8.2-6.9-8.2s-6.9,3.6-6.9,8.2
		C165.1,94.2,167.7,98,172,98z"/>
	<path style="fill:#FFFFFF;" d="M181.3,81.4h2.8v14.1h5.5v2.2h-8.3V81.4z"/>
</g>
</svg>
