<?xml version="1.0" encoding="utf-8"?>
<!-- Generator: Adobe Illustrator 16.0.3, SVG Export Plug-In . SVG Version: 6.00 Build 0)  -->
<!DOCTYPE svg PUBLIC "-//W3C//DTD SVG 1.1//EN" "http://www.w3.org/Graphics/SVG/1.1/DTD/svg11.dtd">
<svg version="1.1" id="Capa_1" xmlns="http://www.w3.org/2000/svg" xmlns:xlink="http://www.w3.org/1999/xlink" x="0px" y="0px"
	 width="130.6px" height="62px" viewBox="0 -7.4 130.6 62" style="enable-background:new 0 -7.4 130.6 62;" xml:space="preserve">
<g>
	<g>
		<g>
			<g>
				<path style="fill:#FFD400;" d="M0.6,38.1V0.3h26.5v38H0.6V38.1z M23.3,34.3V4H4.5v30.3L23.3,34.3L23.3,34.3z"/>
			</g>
		</g>
	</g>
	<path style="fill:#1A171B;" d="M44.7,17.3H43c-2.1-3-4.3-6.1-6.4-9.5l0,0v9.5h-1.8V4h1.7c2.1,3,4.3,6.1,6.4,9.4l0,0V4h1.8V17.3z"/>
	<path style="fill:#1A171B;" d="M49,12.1c0.6-1.8,1.1-3.3,1.5-5.4l0,0c0.6,2.1,1,3.6,1.5,5.4H49z M49.9,4.1l-4.5,13.3h1.9l1.1-3.6h4
		l1,3.6h2.5L51.7,4.1H49.9z"/>
	<path style="fill:#1A171B;" d="M58.1,17.3V5.8h-3.4V4.1h9.2v1.8h-3.4v11.4H58.1z"/>
	<path style="fill:#1A171B;" d="M64.6,17.3V4h2.2v13.3H64.6z"/>
	<path style="fill:#1A171B;" d="M73.7,15.6c-2.3,0-3.2-2.6-3.2-5.1s1-4.7,3.2-4.7c2.2,0,3.2,2.3,3.2,4.7
		C77,13.1,76.2,15.6,73.7,15.6z M73.7,17.5c3.4,0,5.6-3.1,5.6-7.1c0-3.6-2.4-6.6-5.6-6.6c-3.2,0-5.6,3-5.6,6.6
		C68.2,14.3,70.3,17.5,73.7,17.5z"/>
	<path style="fill:#1A171B;" d="M90.6,17.3H89c-2.1-3-4.3-6.1-6.4-9.5l0,0v9.5h-1.8V4h1.7c2.2,3,4.3,6.1,6.4,9.4l0,0V4h1.8v13.3
		H90.6z"/>
	<path style="fill:#1A171B;" d="M95,12.1c0.6-1.8,1.1-3.3,1.5-5.4l0,0c0.6,2.1,1,3.6,1.4,5.4H95z M95.8,4.1l-4.5,13.3h2l1.1-3.6h4
		l1,3.6h2.5L97.7,4.1H95.8z"/>
	<path style="fill:#1A171B;" d="M102.6,4.1h2.2v11.5h4.5v1.8h-6.7V4.1z"/>
	<path style="fill:#1A171B;" d="M43.3,28.3v5.4c-1.2,0.6-2.4,0.9-3.8,0.9c-3.9,0-6.3-3-6.3-7c0-3.6,2.4-6.7,6.4-6.7
		c1.2,0,2.4,0.4,3.2,1L42,23.3c-0.7-0.3-1.5-0.7-2.4-0.7c-2.4,0-4.1,1.9-4.1,4.9c0,3.1,1.9,5,3.9,5c0.6,0,1.1-0.1,1.5-0.3v-4.1
		L43.3,28.3L43.3,28.3L43.3,28.3z"/>
	<path style="fill:#1A171B;" d="M51.4,22.8h-3.8v3.6h3.8v1.8h-3.8v4.3H52v1.8h-6.7V21.1h6.1V22.8z"/>
	<path style="fill:#1A171B;" d="M58.4,32.7c-2.3,0-3.2-2.7-3.2-5.1c0-2.4,1-4.7,3.2-4.7c2.2,0,3.2,2.3,3.2,4.7
		C61.6,30,60.7,32.7,58.4,32.7z M58.4,34.6c3.4,0,5.6-3.1,5.6-7.1c0-3.6-2.4-6.6-5.6-6.6c-3.2,0-5.6,3-5.6,6.6
		C52.8,31.5,54.9,34.6,58.4,34.6z"/>
	<path style="fill:#1A171B;" d="M74.9,28.3v5.4c-1.2,0.4-2.4,0.8-3.8,0.8c-3.9,0-6.3-3-6.3-7c0-3.6,2.4-6.7,6.4-6.7
		c1.2,0,2.4,0.4,3.2,1l-0.8,1.5c-0.6-0.3-1.5-0.7-2.4-0.7c-2.4,0-4.1,1.9-4.1,4.9c0,3.1,1.9,5,3.9,5c0.6,0,1.1-0.1,1.5-0.3v-4.1h2.3
		L74.9,28.3L74.9,28.3z"/>
	<path style="fill:#1A171B;" d="M79.2,22.8h1c1.3,0,2.1,0.8,2.1,2.1c0,1.8-1.1,2.5-2.1,2.7c-0.2,0-0.8,0-0.9,0.1L79.2,22.8
		L79.2,22.8z M84.9,34.3l-2.7-5.5c1.4-0.8,2.3-2.3,2.3-4c0-2.5-1.5-3.9-4.1-3.9H77v13.3h2.3v-5h1l0,0l2.1,5L84.9,34.3L84.9,34.3z"/>
	<path style="fill:#1A171B;" d="M88.7,29.1c0.6-1.8,1.1-3.3,1.5-5.4l0,0c0.6,2,1,3.6,1.4,5.4H88.7z M89.5,21.1L85,34.3h2l1.1-3.6h4
		l1,3.6h2.5l-4.2-13.3H89.5z"/>
	<path style="fill:#1A171B;" d="M98.6,34.3h-2.3V21.1h3.5c2.5,0,4.1,1.2,4.1,3.9c0,2.2-1.7,4.4-4.3,4.4h-1.1v-1.7c0.1,0,0.8,0,1-0.1
		c1.1-0.1,2.2-0.9,2.2-2.7c0-1.3-0.8-2.1-2.1-2.1h-1V34.3L98.6,34.3z"/>
	<path style="fill:#1A171B;" d="M114.4,34.3h-2.3V28h-4.8v6.4h-2.2V21.1h2.2v5.1h4.8v-5.1h2.3V34.3z"/>
	<path style="fill:#1A171B;" d="M116.6,34.3V21.1h2.2v13.3H116.6z"/>
	<path style="fill:#1A171B;" d="M129.1,23.6c-0.6-0.3-1.4-0.8-2.3-0.8c-2.3,0-4,1.9-4,4.9c0,3.1,1.9,5,4.1,5c0.9,0,1.7-0.3,2.3-0.7
		l0.7,1.7c-0.7,0.4-1.9,0.9-3,0.9c-3.9,0-6.3-3-6.3-7c0-3.6,2.4-6.7,6.4-6.7c1.2,0,2.3,0.4,3,1L129.1,23.6z"/>
	<path style="fill:#1A171B;" d="M38.6,39.3h-2.4v2.3h2.3v1.1h-2.3v2.8h2.9v1.1h-4.3v-8.4h3.9v1.1H38.6z"/>
	<path style="fill:#1A171B;" d="M47.1,46.6h-1c-1.3-2-2.8-3.9-4.1-6.1l0,0v6.1h-1.1v-8.4h1c1.3,1.9,2.8,3.9,4.1,6l0,0v-6h1.1V46.6z"
		/>
	<path style="fill:#1A171B;" d="M55.9,39.3h-2.4v2.3h2.3v1.1h-2.3v2.8h2.9v1.1H52v-8.4h3.9V39.3L55.9,39.3z"/>
	<path style="fill:#1A171B;" d="M61.6,39.7c-0.3-0.2-0.8-0.4-1.1-0.4c-0.6,0-0.9,0.4-0.9,0.9c0,0.6,0.6,1,1.3,1.8
		c1,0.9,1.4,1.7,1.4,2.6c0,1.1-0.9,2.3-2.4,2.3c-0.8,0-1.5-0.2-2.1-0.9l0.6-1c0.3,0.3,0.8,0.7,1.4,0.7s1.1-0.3,1.1-1.2
		c0-0.9-1-1.5-1.5-2.1c-0.7-0.7-1.3-1.2-1.3-2.3c0-1.1,1-2.1,2.2-2.1c0.8,0,1.4,0.3,1.8,0.8L61.6,39.7z"/>
	<path style="fill:#1A171B;" d="M65.1,46.6h-1.4v-8.4h2.2c1.7,0,2.7,0.8,2.7,2.4c0,1.4-1,2.8-2.8,2.8h-0.7v-1.1c0.1,0,0.4,0,0.7,0
		c0.7,0,1.3-0.6,1.3-1.7c0-0.9-0.4-1.3-1.3-1.3h-0.7V46.6L65.1,46.6z"/>
	<path style="fill:#1A171B;" d="M71.1,43.2c0.3-1.1,0.7-2.1,1-3.4l0,0c0.3,1.3,0.7,2.3,1,3.4H71.1z M71.6,38.1l-2.9,8.4H70l0.8-2.3
		h2.5l0.7,2.3h1.7L73,38.1H71.6z"/>
	<path style="fill:#1A171B;" d="M82.9,46.6h-1c-1.3-2-2.8-3.9-4.1-6.1l0,0v6.1h-1.1v-8.4h1.1c1.3,1.9,2.8,3.9,4.1,6l0,0v-6h1.2v8.4
		H82.9z M82,36c-0.3,0.7-0.7,1.1-1.1,1.1c-0.3,0-0.6-0.1-0.8-0.3s-0.6-0.3-0.9-0.3c-0.3,0-0.6,0.3-0.7,0.8L77.9,37
		c0.3-0.8,0.8-1.3,1.2-1.3c0.2,0,0.6,0.1,0.9,0.3c0.3,0.1,0.6,0.3,0.8,0.3c0.3,0,0.4-0.3,0.7-0.7L82,36z"/>
	<path style="fill:#1A171B;" d="M88.1,45.5c-1.5,0-2-1.7-2-3.3c0-1.5,0.6-3.1,2-3.1c1.4,0,2,1.4,2,3.1
		C90.1,43.8,89.5,45.5,88.1,45.5z M88.1,46.7c2.2,0,3.5-2,3.5-4.4c0-2.3-1.5-4.2-3.5-4.2c-2.1,0-3.5,1.9-3.5,4.2
		C84.6,44.8,85.9,46.7,88.1,46.7z"/>
	<path style="fill:#1A171B;" d="M92.9,38.1h1.4v7.3h2.9v1.1h-4.3V38.1z"/>
</g>
</svg>
