<?xml version="1.0" encoding="utf-8"?>
<!-- Generator: Adobe Illustrator 16.0.3, SVG Export Plug-In . SVG Version: 6.00 Build 0)  -->
<!DOCTYPE svg PUBLIC "-//W3C//DTD SVG 1.1//EN" "http://www.w3.org/Graphics/SVG/1.1/DTD/svg11.dtd">
<svg version="1.1" id="Capa_1" xmlns="http://www.w3.org/2000/svg" xmlns:xlink="http://www.w3.org/1999/xlink" x="0px" y="0px"
	 width="71.2px" height="62px" viewBox="0 -0.4 71.2 62" style="enable-background:new 0 -0.4 71.2 62;" xml:space="preserve">
<g>
	<g>
		<g>
			<g>
				<g>
					<g>
						<path style="fill:#1A171B;" d="M66.2,55.6h1.1c0.8,0,1.2,0.3,1.2,0.9c0,0.5-0.4,0.8-0.9,0.8l0,0c0.3,0,0.4,0.2,0.5,0.4
							l0.7,1.4h-0.4l-0.6-1.2c-0.2-0.5-0.4-0.5-0.8-0.5h-0.3v1.7h-0.4L66.2,55.6L66.2,55.6z M66.7,57.1h0.4c0.5,0,1.1-0.2,1.1-0.6
							c0-0.6-0.5-0.6-1.1-0.6h-0.4V57.1z"/>
					</g>
					<g>
						<path style="fill:#1A171B;" d="M64,57.4c0,1.8,1.5,3.3,3.3,3.3c1.8,0,3.3-1.5,3.3-3.3c0-1.8-1.5-3.3-3.3-3.3
							C65.5,54.1,64,55.6,64,57.4z M64.4,57.4c0-1.7,1.3-3,3-3s3,1.3,3,3c0,1.6-1.3,3-3,3S64.4,59.1,64.4,57.4z"/>
					</g>
				</g>
			</g>
		</g>
	</g>
	<g>
		<g>
			<rect x="0.7" y="0.7" style="fill:#FFDC00;" width="60" height="60"/>
			<g>
				<path style="fill:#FFFFFF;" d="M12.7,48.6c15-4.9,9.5-4.4,33.7-12.6c0.2-0.1,0.4-0.4,0.3-0.6c-0.1-0.3-0.4-0.4-0.6-0.3
					c-24.4,7.5-19.6,4.7-34.7,9.6c-5.5,1.8-8.3,2.9-10.7,3.9v3.4C3.6,51.4,6.4,50.6,12.7,48.6z"/>
				<path style="fill:#FFFFFF;" d="M17.7,40.8c14.2-5.1,9-4.4,31.9-12.9c0.2-0.1,0.4-0.4,0.3-0.6s-0.3-0.4-0.6-0.3
					c-23.1,7.9-18.6,5.1-32.9,10.2c-9.1,3.2-10.2,4.1-15.8,6.6V46C7.1,44,8.3,44.1,17.7,40.8z"/>
				<path style="fill:#FFFFFF;" d="M55.6,12.6c0.2-0.1,0.3-0.3,0.2-0.5c-0.1-0.2-0.3-0.3-0.5-0.2c-20.7,8.5-16.7,5.7-29.4,11.2
					c-12,5.1-8.5,4.5-25.2,12v1c17.4-7.1,14.4-4.8,26.5-10C39.9,20.6,35.1,21.6,55.6,12.6z"/>
				<path style="fill:#FFFFFF;" d="M22.5,33.3C36,28,30.9,28.9,52.6,20.1c0.2-0.1,0.3-0.3,0.2-0.5c-0.1-0.2-0.3-0.3-0.5-0.3
					C30.4,27.5,34.7,24.6,21.2,30c-11,4.3-9.7,4.5-20.6,9.2v1.4C12.4,36.4,11.4,37.6,22.5,33.3z"/>
				<path style="fill:#FFFFFF;" d="M7.4,57.1c15.9-4.7,10-4.4,35.7-12.4c0.3-0.1,0.4-0.4,0.4-0.7c-0.1-0.3-0.4-0.5-0.7-0.4
					C17,50.8,22,47.9,6.1,52.6c-2.2,0.6-3.9,1.2-5.4,1.7v4.6C2.5,58.5,4.6,57.9,7.4,57.1z"/>
				<path style="fill:#FFFFFF;" d="M38.9,3.5c-10.5,5.8-6.5,4.5-23.5,14c-0.1,0.1-0.2,0.3-0.1,0.4c0.1,0.1,0.2,0.2,0.4,0.1
					c17.2-9.2,13.9-6.6,24.5-12.3c4.5-2.5,6.4-3.7,8.4-4.9h-4.3C42.8,1.4,41.2,2.3,38.9,3.5z"/>
				<path style="fill:#FFFFFF;" d="M58.1,4.7c-19.5,8.8-15.7,6-27.7,11.6S22.9,20.8,3.6,30c-0.2,0.1-0.2,0.3-0.2,0.5
					c0.1,0.2,0.3,0.3,0.5,0.2c19.5-8.8,15.7-6.1,27.7-11.6c12-5.6,7.5-4.5,26.8-13.7c0.2-0.1,0.2-0.3,0.2-0.5
					C58.5,4.7,58.3,4.6,58.1,4.7z"/>
				<path style="fill:#FFFFFF;" d="M34.7,9.8c-11.3,5.7-7,4.5-25.2,13.9c-0.2,0.1-0.2,0.3-0.1,0.4c0.1,0.2,0.3,0.2,0.4,0.1
					c18.3-9,14.8-6.3,26.1-12C46.2,7,43.6,7.6,56.6,0.7h-1.9C43.1,6.3,44.5,4.9,34.7,9.8z"/>
				<path style="fill:#FFFFFF;" d="M27.6,4.6c-0.1,0.1-0.1,0.2-0.1,0.3C27.6,5,27.7,5,27.8,5c2.9-1.8,5.1-3.2,6.8-4.2h-1.2
					C31.8,1.8,29.9,3,27.6,4.6z"/>
				<path style="fill:#FFFFFF;" d="M21.3,11.5c0.1,0.1,0.2,0.2,0.3,0.1C35.8,3.4,35,4.5,41.5,0.7h-4C34,3,32.8,4.2,21.4,11.1
					C21.2,11.2,21.2,11.4,21.3,11.5z"/>
			</g>
			<path style="fill:#FFFFFF;" d="M22.4,58.5l3.2-14.6h4l-1.7,7.8l3.2-3.9h4.5l-4,4.9l1.6,5.9h-4l-1.7-5.5l-1.3,5.5L22.4,58.5
				L22.4,58.5z M8,51.1l2.8,7.3h3.8l3.3-14.6H14l-1.7,7.4l-2.8-7.4h-4L2.2,58.5h4C6.8,56.1,7.4,53.6,8,51.1z M20.5,58.5l2.4-10.7H19
				l-2.4,10.7H20.5z M19.2,45.5c0,0.3,0.1,1.5,2.2,1.5c1.8,0,2.5-1.1,2.5-2c0-0.6-0.5-1.6-2.2-1.6C20,43.4,19.2,44.5,19.2,45.5z
				 M56.9,47.6c-1.7-0.5-3.8,0.3-4.8,1.7c0.1-0.4,0.2-0.9,0.3-1.5h-4l-2.3,10.6h4l1.3-6c0.3-1.1,1.1-1.6,1.9-1.4
				c0.3,0.1,0.8,0.4,0.7,1.3l-1.3,6.1h3.9l1.8-8.2C58.7,48.5,57.2,47.8,56.9,47.6z M43.6,57.6c1.7-1.4,2.6-3.8,2.5-6
				c0-2.1-1.9-4.2-5-4.2c-6,0-6.9,4.7-7.1,5.6c-0.4,2.2,0,5,2.9,5.7C38.8,59.1,41.7,59.1,43.6,57.6z M39.1,51.4c0.3-0.8,1.1-1,1.4-1
				c0.9,0,1.1,0.5,1,1c-0.2,1.3-0.7,3-0.9,3.6l0,0c-0.2,0.6-0.8,0.9-1.4,0.9c-0.7,0-1.1-0.4-1-1C38.4,54.1,39,51.8,39.1,51.4z"/>
			<path style="fill:#1A171B;" d="M22.4,58.5l3.2-14.6h4l-1.7,7.8l3.2-3.9h4.5l-4,4.9l1.6,5.9h-4l-1.7-5.5l-1.3,5.5L22.4,58.5
				L22.4,58.5z M8,51.1l2.8,7.3h3.8l3.3-14.6H14l-1.7,7.4l-2.8-7.4h-4L2.2,58.5h4C6.8,56.1,7.4,53.6,8,51.1z M20.5,58.5l2.4-10.7H19
				l-2.4,10.7H20.5z M19.2,45.5c0,0.3,0.1,1.5,2.2,1.5c1.8,0,2.5-1.1,2.5-2c0-0.6-0.5-1.6-2.2-1.6C20,43.4,19.2,44.5,19.2,45.5z
				 M56.9,47.6c-1.7-0.5-3.8,0.3-4.8,1.7c0.1-0.4,0.2-0.9,0.3-1.5h-4l-2.3,10.6h4l1.3-6c0.3-1.1,1.1-1.6,1.9-1.4
				c0.3,0.1,0.8,0.4,0.7,1.3l-1.3,6.1h3.9l1.8-8.2C58.7,48.5,57.2,47.8,56.9,47.6z M43.6,57.6c1.7-1.4,2.6-3.8,2.5-6
				c0-2.1-1.9-4.2-5-4.2c-6,0-6.9,4.7-7.1,5.6c-0.4,2.2,0,5,2.9,5.7C38.8,59.1,41.7,59.1,43.6,57.6z M39.1,51.4c0.3-0.8,1.1-1,1.4-1
				c0.9,0,1.1,0.5,1,1c-0.2,1.3-0.7,3-0.9,3.6l0,0c-0.2,0.6-0.8,0.9-1.4,0.9c-0.7,0-1.1-0.4-1-1C38.4,54.1,39,51.8,39.1,51.4z"/>
		</g>
	</g>
</g>
</svg>
