<?xml version="1.0" encoding="utf-8"?>
<!-- Generator: Adobe Illustrator 23.0.0, SVG Export Plug-In . SVG Version: 6.00 Build 0)  -->
<svg version="1.1" id="Capa_1" xmlns="http://www.w3.org/2000/svg" xmlns:xlink="http://www.w3.org/1999/xlink" x="0px" y="0px"
	 viewBox="0 0 404 83" style="enable-background:new 0 0 404 83;" xml:space="preserve">
<style type="text/css">
	.st0{fill:#5BA44F;}
	.st1{fill:#696C6E;}
</style>
<g>
	<g>
		<path id="XMLID_53_" class="st0" d="M97.19,18.34c2.3,0,4.17-1.87,4.17-4.17c0-2.3-1.87-4.17-4.17-4.17s-4.17,1.87-4.17,4.17
			C93.02,16.47,94.89,18.34,97.19,18.34z M97.19,11.96c1.22,0,2.21,0.99,2.21,2.21c0,1.22-0.99,2.21-2.21,2.21s-2.21-0.99-2.21-2.21
			C94.98,12.95,95.97,11.96,97.19,11.96z"/>
		<path id="XMLID_50_" class="st0" d="M97.19,63.92c-2.3,0-4.17,1.87-4.17,4.17c0,2.3,1.87,4.17,4.17,4.17s4.17-1.87,4.17-4.17
			C101.35,65.79,99.49,63.92,97.19,63.92z M97.19,70.3c-1.22,0-2.21-0.99-2.21-2.21s0.99-2.21,2.21-2.21s2.21,0.99,2.21,2.21
			C99.4,69.3,98.41,70.3,97.19,70.3z"/>
		<g id="XMLID_45_">
			<path id="XMLID_49_" class="st0" d="M107.09,41.1l-3.48-4.46c-0.53-0.68-1.03,0-1.03,0L91.22,51.63l-3.57,4.44l-0.02,0.02
				c-0.31,0.37-0.78,0.61-1.3,0.6c-0.92-0.01-1.65-0.76-1.64-1.68c0-0.4,0.15-0.76,0.38-1.04l0.02-0.02l3.64-4.47
				c0,0,0.57-0.69,0-1.42l-3.51-4.48L74.87,56.79l5.41,7.09h9.16l5.66-7.15L107.09,41.1z"/>
			<path id="XMLID_48_" class="st0" d="M88.96,33.42l-3.89-5.25l-0.02-0.02c-0.23-0.28-0.37-0.65-0.38-1.04
				c-0.01-0.92,0.73-1.66,1.65-1.67c0.52,0,0.99,0.23,1.29,0.6l0.02,0.02l3.47,4.69l4-5.15l-4.43-5.93l-0.06-0.08
				c-0.88-1.06-2.18-1.58-3.46-1.52l-6,0.04c-0.54,0-1.01,0.26-1.31,0.66l-0.02,0.03l-4.95,6.48L85.11,38.5L88.96,33.42z"/>
			<path id="XMLID_47_" class="st0" d="M105.13,48.73l4.16,5.22l0.02,0.02c0.23,0.28,0.38,0.64,0.38,1.04
				c0.01,0.92-0.72,1.67-1.64,1.68c-0.52,0.01-0.99-0.23-1.3-0.6l-0.02-0.02l-3.67-4.78l-4.04,5.09l5.91,7.5h9.16l5.4-7.09
				l-10.41-13.24L105.13,48.73z"/>
			<path id="XMLID_46_" class="st0" d="M90.79,45.78c0,0,0.33,0.56,0.75,0l11.65-15.25l3.55-4.45l0.02-0.02
				c0.31-0.37,0.77-0.61,1.29-0.6c0.92,0.01,1.65,0.75,1.65,1.67c0,0.4-0.14,0.76-0.38,1.04l-0.02,0.02l-3.77,4.65
				c-0.56,0.69,0,1.22,0,1.22l3.58,4.5l10.31-13.16l-4.87-6.58l-0.02-0.03c-0.3-0.4-0.78-0.66-1.31-0.66h-0.04l-5.96-0.03
				c-1.28-0.06-2.58,0.46-3.46,1.52L87.04,41.08L90.79,45.78z"/>
		</g>
		<path id="XMLID_42_" class="st0" d="M79.02,40.98c0-2.3-1.87-4.17-4.17-4.17c-2.3,0-4.17,1.87-4.17,4.17
			c0,2.3,1.87,4.17,4.17,4.17C77.15,45.15,79.02,43.28,79.02,40.98z M74.85,43.19c-1.22,0-2.21-0.99-2.21-2.21s0.99-2.21,2.21-2.21
			s2.21,0.99,2.21,2.21S76.07,43.19,74.85,43.19z"/>
		<path id="XMLID_39_" class="st0" d="M119.58,36.82c-2.3,0-4.17,1.87-4.17,4.17c0,2.3,1.87,4.17,4.17,4.17s4.17-1.87,4.17-4.17
			C123.74,38.68,121.87,36.82,119.58,36.82z M119.58,43.19c-1.22,0-2.21-0.99-2.21-2.21s0.99-2.21,2.21-2.21s2.21,0.99,2.21,2.21
			C121.79,42.2,120.8,43.19,119.58,43.19z"/>
	</g>
	<g id="XMLID_1_">
		<path id="XMLID_38_" class="st1" d="M43.07,58.51c-0.11,0.11-0.17,0.24-0.16,0.36c0,0.06,0.02,0.12,0.05,0.19l0.01,0.01
			c0.03,0.07,0.06,0.12,0.09,0.17c0.13,0.16,0.35,0.18,0.62,0.12c0.37-0.09,0.81-0.32,1.26-0.62c0.57-0.38,1.15-0.86,1.64-1.31
			c-1.08,0.12-2.13,0.33-2.86,0.66C43.44,58.22,43.22,58.36,43.07,58.51z"/>
		<path id="XMLID_37_" class="st1" d="M28.66,61.03L28.66,61.03c-0.15,0.06-0.25,0.14-0.29,0.26c-0.02,0.05-0.03,0.12-0.03,0.2v0.01
			c0,0.07,0,0.14,0.02,0.2c0.05,0.2,0.24,0.31,0.52,0.36l0,0c0.37,0.07,0.87,0.04,1.41-0.05c0.67-0.11,1.39-0.32,2.02-0.53
			c-1.03-0.33-2.09-0.57-2.89-0.57C29.12,60.92,28.86,60.95,28.66,61.03z"/>
		<path id="XMLID_36_" class="st1" d="M17.64,58.04c-0.73-0.32-1.78-0.54-2.86-0.66c0.49,0.45,1.07,0.93,1.64,1.31
			c0.45,0.3,0.89,0.53,1.26,0.62c0.28,0.06,0.5,0.04,0.62-0.12c0.04-0.05,0.07-0.1,0.09-0.17l0.01-0.01
			c0.03-0.07,0.05-0.13,0.05-0.19c0.01-0.12-0.05-0.25-0.16-0.36C18.15,58.31,17.92,58.17,17.64,58.04z"/>
		<path id="XMLID_35_" class="st1" d="M10.19,30.11c-0.09,0.54-0.12,1.04-0.05,1.41c0.05,0.28,0.17,0.47,0.36,0.52
			c0.06,0.01,0.12,0.02,0.19,0.02h0.02c0.08,0,0.14-0.01,0.2-0.03c0.12-0.04,0.2-0.15,0.26-0.29c0.08-0.19,0.11-0.46,0.11-0.77
			c0-0.8-0.23-1.85-0.56-2.89C10.51,28.72,10.31,29.44,10.19,30.11z"/>
		<path id="XMLID_34_" class="st1" d="M10.19,45.23c-0.09,0.54-0.12,1.04-0.05,1.41c0.05,0.28,0.17,0.47,0.36,0.52
			c0.06,0.01,0.12,0.02,0.19,0.02h0.02c0.08,0,0.14-0.01,0.2-0.03c0.12-0.04,0.2-0.15,0.26-0.29c0.08-0.19,0.11-0.46,0.11-0.77
			c0-0.8-0.23-1.85-0.56-2.89C10.51,43.84,10.31,44.56,10.19,45.23z"/>
		<path id="XMLID_33_" class="st1" d="M44.81,17.85L44.81,17.85c0.28-0.05,0.47-0.17,0.52-0.36c0.01-0.06,0.02-0.12,0.02-0.2v-0.01
			c0-0.08-0.01-0.14-0.03-0.2c-0.04-0.12-0.15-0.2-0.29-0.26l0,0c-0.19-0.08-0.46-0.11-0.76-0.11c-0.8,0-1.85,0.24-2.89,0.57
			c0.63,0.21,1.35,0.41,2.02,0.53C43.94,17.89,44.43,17.92,44.81,17.85z"/>
		<path id="XMLID_32_" class="st1" d="M20.17,17.85c0.28-0.05,0.47-0.17,0.52-0.36c0.01-0.06,0.02-0.12,0.02-0.2v-0.01
			c0-0.08-0.01-0.14-0.03-0.2c-0.04-0.12-0.15-0.2-0.29-0.26l0,0c-0.19-0.08-0.46-0.11-0.76-0.11c-0.8,0-1.85,0.24-2.89,0.57
			c0.63,0.21,1.35,0.41,2.02,0.53C19.29,17.89,19.79,17.92,20.17,17.85z"/>
		<path id="XMLID_31_" class="st1" d="M50.17,30.11c-0.09,0.54-0.12,1.04-0.05,1.41l0,0c0.05,0.28,0.17,0.47,0.36,0.52
			c0.06,0.01,0.12,0.02,0.19,0.02h0.02c0.08,0,0.14-0.01,0.2-0.03c0.12-0.04,0.2-0.15,0.26-0.29c0.08-0.19,0.11-0.46,0.11-0.77
			c0-0.8-0.23-1.85-0.56-2.89C50.49,28.72,50.28,29.44,50.17,30.11z"/>
		<path id="XMLID_30_" class="st1" d="M32.49,17.85L32.49,17.85c0.28-0.05,0.47-0.17,0.52-0.36c0.01-0.06,0.02-0.12,0.02-0.2v-0.01
			c0-0.08-0.01-0.14-0.03-0.2c-0.04-0.12-0.15-0.2-0.29-0.26l0,0c-0.19-0.08-0.46-0.11-0.76-0.11c-0.8,0-1.85,0.24-2.89,0.57
			c0.63,0.21,1.35,0.41,2.02,0.53C31.61,17.89,32.11,17.92,32.49,17.85z"/>
		<path id="XMLID_3_" class="st1" d="M30.68,14.19H7.58v34.92c0,1.24,0.27,5.38,3.38,8.94c3.83,4.38,11.65,4.58,16.61,6.89
			c1.36,0.63,2.32,2.06,3.11,3.36c0.8-1.3,1.75-2.72,3.11-3.36c4.96-2.31,12.78-2.51,16.61-6.89c3.11-3.56,3.38-7.69,3.38-8.94
			V14.19H30.68z M13.31,42.51h7.36l0.02,0.09l0.33-0.09h2.62v1.99c-0.46,0.11-0.73,0.37-0.88,0.71c-0.17,0.37-0.17,0.78-0.17,1.17
			v3.93h-2.9v-3.57c0-0.01,0.04-2.14-2.23-2.14c-2.31,0-2.33,2.02-2.33,2.14l0,0v3.58h-1.54c-0.18-0.65-0.27-1.31-0.27-1.98v-5.83
			H13.31z M16.74,36.42L16.74,36.42c-0.16-0.11-0.35-0.24-0.5-0.35c-0.21-0.25-0.04-0.7,0.08-0.99c0.03-0.07,0.05-0.13,0.06-0.16
			c0.18-0.5,0.07-1-0.02-1.43c-0.04-0.18-0.08-0.35-0.08-0.48c0-0.08,0.07-0.14,0.34-0.14c0.42,0,0.54,0.2,0.54,0.48
			c0,0.27-0.07,0.6-0.14,0.93c-0.2,0.94-0.4,1.89,0.54,2.26l0.02,0.01l0.02,0.01c0.98,0.26,1.1-0.34,1.26-1.12
			c0.11-0.56,0.26-1.27,1.12-1.48l0.8-0.19l-0.68-0.46c-2.59-1.76-2.21-2.87-1.84-3.99c0.16-0.48,0.32-0.95,0.32-1.48
			c0.1,0.05,0.21,0.11,0.33,0.17c0.68,0.35,1.62,0.84,2.59,1.11v0.63c-0.38,0.12-0.98,0.41-0.98,1.03l0,0
			c0,0.76,0.97,0.73,1.11,0.73l0,0h1.5l0,0c0.04,0-0.04,0.03-0.02,0.07c0.21,0.3,0.48,0.68,1.33,0.47c0.8-0.2,0.85-0.55,0.89-0.93
			c0.01-0.09,0.02-0.19,0.07-0.25s0.14-0.08,0.24-0.09c0.08,0,0.15,0.01,0.22,0.03c0.05,0.02,0.1,0.03,0.13,0.06
			c0,0.05,0.01,0.08,0.01,0.12c0.03,0.35,0.09,1.05-0.18,1.12c-0.12,0.03-0.21,0.05-0.32,0.08c-0.84,0.2-2.11,0.51-2.01,1.29
			c0.04,0.34,0.09,0.61,0.36,0.87c0.23,0.23,0.62,0.41,1.32,0.58l0.15,0.04l0.13-0.08c0.38-0.23,0.43-0.16,0.43-0.16l0.04,0.08
			L26,34.86c0,0,0.4,0.25,0.26,0.42l-0.09,0.12c-0.28,0.36-0.62,0.8-1.08,0.56c-0.16-0.08-0.32-0.17-0.48-0.26
			c-0.84-0.46-1.8-0.99-2.27-0.5c-0.49,0.39-0.47,0.71-0.2,1.06c0.09,0.12,0.22,0.24,0.37,0.36c0.11,0.1,0.24,0.21,0.35,0.33
			c0.14,0.15,0.29,0.34,0.38,0.55c0.06,0.14,0.1,0.28,0.08,0.42c-0.01,0.12-0.08,0.25-0.2,0.37c-0.1,0.09-0.25,0.19-0.44,0.27l0,0
			c-0.52,0.24-0.81,0.55-0.91,0.85c-0.06,0.19-0.06,0.37,0,0.54c0.06,0.16,0.17,0.3,0.32,0.41c0.28,0.21,0.73,0.31,1.24,0.21l0,0
			c0.41-0.06,0.47,0.04,0.49,0.11c0.01,0.03,0.01,0.06,0.01,0.08v0.02v0.01v0.04l0,0c0.01,0.09,0.02,0.27-0.37,0.36
			c-0.55,0.12-1.61,0.39-2.18,0.53l-0.52-2.54c0.13-0.07,0.24-0.14,0.35-0.2c0.27-0.15,0.48-0.27,0.63-0.41
			c0.47-0.45,0.36-0.84-0.52-1.77c-0.55-0.58-0.87-0.37-1.7,0.18l0,0c-0.12,0.08-0.25,0.17-0.4,0.26l-0.24,0.15l0.09,0.27
			c0.2,0.61-0.31,0.92-0.71,1.16c-0.43,0.26-0.79,0.48-0.68,0.95c0.22,0.95,0.26,0.94,1.36,0.68l0.03-0.01
			c0.02,0.02,0.06,0.08,0.09,0.15c0.04,0.08,0.07,0.18,0.09,0.27c0.01,0.08,0.02,0.16,0,0.23c-0.01,0.03-0.02,0.05-0.03,0.05
			c-0.09,0.02-0.21,0.05-0.36,0.09c-0.41,0.1-1,0.22-1.49,0.28c-0.33,0.04-0.55,0.23-0.57,0.16c-0.02-0.08-0.07-0.24-0.14-0.44
			c-0.25-0.74-0.74-2.23-0.53-2.37c0.45-0.28,0.82-0.47,1.09-0.61c0.46-0.23,0.72-0.36,0.75-0.69
			C17.87,37.19,17.53,36.96,16.74,36.42z M26.55,32.37v2c-0.05-0.04-0.1-0.08-0.13-0.1c-0.15-0.16-0.53-0.45-1.23-0.09
			c-0.47-0.12-0.72-0.24-0.85-0.36c-0.1-0.1-0.13-0.25-0.15-0.45c-0.02-0.13,0.88-0.35,1.46-0.49c0.14-0.03,0.27-0.06,0.33-0.08
			C26.26,32.72,26.44,32.56,26.55,32.37z M19.97,39.06l0.56,2.73h-1.12c0.22-0.1,0.35-0.3,0.41-0.53c0.04-0.16,0.04-0.34,0.01-0.52
			c-0.03-0.17-0.09-0.34-0.16-0.49c-0.16-0.32-0.43-0.56-0.75-0.56h-0.04l-0.04,0.01l-0.1,0.02c-0.42,0.1-0.44,0.1-0.49-0.14
			c-0.01-0.04,0.16-0.06,0.35-0.17c0.56-0.34,1.27-0.77,1.09-1.73c0.07-0.04,0.13-0.09,0.19-0.13l0,0c0.46-0.31,0.64-0.43,0.78-0.28
			c0.5,0.52,0.61,0.68,0.55,0.75c-0.09,0.08-0.26,0.18-0.49,0.31c-0.17,0.1-0.37,0.21-0.59,0.35l-0.21,0.13L19.97,39.06z
			 M15.49,51.03h0.36v-0.36v-3.94v-0.01c0,0-0.03-1.41,1.61-1.41c1.53,0,1.5,1.41,1.5,1.42v3.93v0.36h0.36h3.63h0.36v-0.36v-4.29
			c0-0.31,0-0.64,0.11-0.87c0.08-0.18,0.25-0.31,0.61-0.33l0.34-0.02v-0.34v-2.66v-0.36H24h-0.1c0.68-0.27,0.64-0.77,0.62-1.03l0,0
			v-0.03l0,0v-0.01c0-0.04-0.01-0.1-0.01-0.15c-0.05-0.36-0.27-0.87-1.31-0.72h-0.02c-0.3,0.06-0.55,0.02-0.69-0.08
			c-0.03-0.03-0.06-0.05-0.07-0.08c-0.01-0.02-0.01-0.04,0-0.06c0.04-0.12,0.2-0.27,0.53-0.41l0,0c0.27-0.12,0.47-0.26,0.63-0.4
			c0.27-0.25,0.4-0.53,0.43-0.82c0.03-0.27-0.03-0.55-0.14-0.8c-0.13-0.28-0.32-0.54-0.51-0.74c-0.14-0.15-0.28-0.28-0.41-0.39
			c-0.11-0.1-0.21-0.19-0.27-0.26c0,0,0.02-0.01,0.09-0.07l0.03-0.02l0.02-0.03c0.08-0.1,0.79,0.29,1.4,0.63
			c0.18,0.1,0.36,0.2,0.5,0.27c0.87,0.44,1.39-0.03,1.81-0.54v5.74h-0.66h-0.36v0.36v2.71v0.36h0.36c0.24,0,0.47,0.07,0.61,0.21
			c0.13,0.13,0.2,0.32,0.2,0.61v4.7v0.36h0.36h0.37l-1.38,7.41c-6.74-0.94-10.86-3.93-12.24-7.47h1.7V51.03z M27.43,50.37v-4.33
			c0-0.49-0.16-0.86-0.42-1.12c-0.21-0.21-0.47-0.34-0.76-0.39v-2.02h0.66h0.36l0,0h6.69l0,0h0.36h0.71v2.02
			c-0.3,0.06-0.54,0.2-0.72,0.39c-0.26,0.28-0.38,0.67-0.38,1.12v4.33h-0.26l-0.9-5.55l-0.05-0.31h-0.31H29h-0.3l-0.06,0.3
			l-1.05,5.56H27.43z M27.78,25.03h1.8h0.36v-0.36v-1.15h1.36v1.13v0.36h0.36h2.04h0.36v-0.36v-1.11h1.04v2.71l-1.05,1.2l-0.09,0.1
			v0.13v14.1h-1.01v-4.29c0-0.69-0.27-1.25-0.66-1.65c-0.47-0.48-1.11-0.73-1.66-0.73s-1.14,0.25-1.56,0.72
			c-0.35,0.4-0.59,0.96-0.59,1.66v4.29h-1.21v-14.1v-0.12l-0.07-0.1l-0.89-1.21v-2.72h1.1v1.13v0.36L27.78,25.03L27.78,25.03z
			 M38.25,31.5L38.25,31.5h1.5l0,0c0.14,0.01,1.11,0.03,1.11-0.73l0,0c0-0.63-0.6-0.91-0.98-1.03v-0.63
			c0.95-0.26,1.87-0.74,2.54-1.09c0.14-0.07,0.27-0.14,0.38-0.2c0,0.53,0.16,1.01,0.32,1.48c0.37,1.12,0.74,2.23-1.84,3.99
			l-0.68,0.46l0.8,0.19c0.86,0.21,1,0.92,1.12,1.48c0.16,0.78,0.28,1.38,1.26,1.12l0.02-0.01l0.02-0.01
			c0.94-0.37,0.74-1.32,0.54-2.26c-0.07-0.33-0.14-0.66-0.14-0.93c0-0.28,0.12-0.48,0.54-0.48c0.27,0,0.34,0.05,0.34,0.14
			c0,0.12-0.04,0.29-0.08,0.48c-0.09,0.43-0.2,0.93-0.02,1.43c0.01,0.03,0.04,0.09,0.06,0.16c0.11,0.3,0.28,0.74,0.08,0.99
			c-0.15,0.11-0.34,0.23-0.5,0.35l0,0c-0.79,0.54-1.13,0.78-1.1,1.14c0.03,0.32,0.29,0.45,0.75,0.69c0.27,0.14,0.65,0.32,1.09,0.61
			c0.21,0.14-0.29,1.63-0.53,2.37c-0.07,0.2-0.12,0.36-0.14,0.44c-0.02,0.07-0.24-0.13-0.57-0.16c-0.49-0.06-1.08-0.18-1.49-0.28
			c-0.15-0.03-0.27-0.07-0.36-0.09c-0.01,0-0.03-0.03-0.03-0.05c-0.02-0.06-0.01-0.14,0-0.23c0.02-0.09,0.05-0.19,0.09-0.27
			c0.04-0.08,0.07-0.14,0.09-0.15l0.03,0.01c1.11,0.26,1.14,0.27,1.37-0.68c0.11-0.47-0.25-0.69-0.68-0.95
			c-0.4-0.24-0.9-0.55-0.71-1.16l0.09-0.27l-0.24-0.15c-0.17-0.11-0.29-0.19-0.4-0.26l0,0c-0.83-0.55-1.15-0.76-1.7-0.18
			c-0.89,0.93-0.99,1.32-0.52,1.77c0.15,0.14,0.36,0.26,0.63,0.41l0,0c0.1,0.06,0.22,0.12,0.35,0.2l-0.52,2.54
			c-0.56-0.14-1.63-0.41-2.18-0.53c-0.4-0.09-0.38-0.27-0.37-0.36l0,0v-0.04v-0.01v-0.02c0-0.02,0-0.05,0.01-0.08
			c0.01-0.07,0.08-0.17,0.48-0.11l0,0c0.51,0.1,0.96,0,1.24-0.21c0.15-0.11,0.26-0.25,0.32-0.41c0.06-0.17,0.07-0.35,0-0.54
			c-0.1-0.3-0.39-0.61-0.91-0.85l0,0c-0.21-0.1-0.37-0.2-0.47-0.3c-0.12-0.12-0.17-0.24-0.18-0.36c-0.01-0.13,0.02-0.27,0.08-0.4
			c0.09-0.2,0.23-0.38,0.38-0.52c0.11-0.11,0.22-0.2,0.33-0.29c0.13-0.11,0.24-0.2,0.33-0.3c0.33-0.37,0.4-0.71-0.13-1.18
			c-0.51-0.46-1.46,0.07-2.29,0.52c-0.15,0.08-0.3,0.17-0.46,0.24l0,0c-0.49,0.25-0.82-0.2-1.11-0.6l0,0l-0.05-0.07l0,0
			c-0.15-0.2,0.25-0.42,0.25-0.42l0.05-0.03l0.04-0.04c0,0,0.13-0.14,0.46,0.08l0.13,0.09l0.15-0.04c0.7-0.17,1.09-0.36,1.32-0.58
			c0.27-0.27,0.32-0.54,0.36-0.87c0.1-0.77-1.17-1.08-2.01-1.29c-0.1-0.03-0.2-0.05-0.32-0.08c-0.27-0.07-0.21-0.77-0.18-1.12
			c0-0.04,0.01-0.07,0.01-0.12c0.03-0.02,0.07-0.04,0.13-0.06c0.07-0.02,0.15-0.03,0.22-0.03c0.1,0.01,0.19,0.03,0.24,0.09
			c0.05,0.06,0.06,0.16,0.07,0.25c0.05,0.38,0.09,0.73,0.89,0.93c0.84,0.21,1.1-0.16,1.31-0.46C38.27,31.53,38.2,31.5,38.25,31.5z
			 M41.55,41.26c0.06,0.23,0.19,0.42,0.41,0.53h-1.12l0.56-2.73l0.05-0.24l-0.21-0.13c-0.21-0.13-0.41-0.25-0.59-0.35l0,0
			c-0.23-0.13-0.4-0.23-0.49-0.31c-0.07-0.06,0.05-0.23,0.55-0.75c0.13-0.14,0.31-0.02,0.78,0.29l0,0l0.19,0.13
			c-0.18,0.96,0.53,1.38,1.09,1.73c0.19,0.11,0.36,0.13,0.35,0.17c-0.06,0.24-0.07,0.24-0.49,0.14l-0.1-0.02l-0.04-0.01h-0.04
			c-0.32,0-0.58,0.24-0.75,0.56c-0.08,0.15-0.13,0.32-0.16,0.49C41.51,40.91,41.51,41.09,41.55,41.26z M35.37,32.79
			c0.07,0.02,0.19,0.05,0.33,0.08c0.59,0.14,1.48,0.36,1.46,0.49c-0.03,0.19-0.05,0.35-0.15,0.45c-0.13,0.12-0.37,0.24-0.84,0.36
			c-0.62-0.34-1.05-0.06-1.2,0.06c-0.05,0.03-0.16,0.11-0.28,0.22v-2.38C34.78,32.4,34.98,32.69,35.37,32.79z M32.23,37.5v4.29
			h-3.02V37.5c0-0.51,0.16-0.9,0.41-1.18c0.27-0.31,0.65-0.47,1.01-0.47c0.38,0,0.82,0.18,1.15,0.51
			C32.05,36.63,32.23,37.01,32.23,37.5z M34.3,51.1h0.36v-0.36v-4.69c0-0.27,0.06-0.49,0.19-0.63c0.11-0.12,0.3-0.19,0.56-0.2
			l0.36-0.01v-0.35v-2.71v-0.36H35.4h-0.71V35.9c0.45,0.59,0.97,1.17,1.93,0.68l0,0c0.14-0.07,0.3-0.16,0.48-0.25
			c0.62-0.34,1.34-0.73,1.46-0.61c0.1,0.09,0.1,0.13,0.07,0.16c-0.06,0.07-0.15,0.15-0.26,0.23c-0.11,0.09-0.24,0.2-0.37,0.33
			c-0.2,0.2-0.4,0.46-0.53,0.75c-0.11,0.24-0.17,0.5-0.14,0.77c0.03,0.28,0.14,0.55,0.39,0.8c0.17,0.17,0.39,0.32,0.69,0.46l0,0
			c0.32,0.15,0.48,0.29,0.53,0.42c0.01,0.02,0.01,0.05,0,0.06c-0.01,0.03-0.03,0.05-0.07,0.08c-0.14,0.1-0.38,0.15-0.69,0.08h-0.02
			c-1.04-0.16-1.26,0.36-1.31,0.72c-0.01,0.06-0.01,0.11-0.01,0.15v0.01l0,0v0.03l0,0c-0.02,0.25-0.06,0.76,0.62,1.03h-0.11H37v0.35
			v2.66v0.34l0.34,0.02c0.35,0.02,0.53,0.16,0.61,0.33c0.1,0.22,0.11,0.55,0.11,0.87v4.29v0.36h0.36h3.63h0.36v-0.36v-3.93
			c0,0-0.03-1.42,1.5-1.42c1.64,0,1.61,1.41,1.61,1.41v0.01v3.94v0.36h0.36h1.68c-1.38,3.63-5.6,6.63-12.52,7.51l-1.25-7.45
			L34.3,51.1L34.3,51.1z M47.79,50.31h-1.55v-3.58l0,0c0-0.12-0.02-2.14-2.33-2.14c-2.27,0-2.23,2.14-2.23,2.14v3.57h-2.9v-3.93
			c0-0.39-0.01-0.8-0.17-1.17c-0.15-0.34-0.42-0.6-0.88-0.71V42.5h2.62l0.33,0.09l0.02-0.09h7.36c0,2.5,0,4.59,0,5.82
			C48.05,49,47.96,49.66,47.79,50.31z M40.17,16.92c1.37-0.52,2.95-0.95,4.09-0.95c0.4,0,0.75,0.05,1.04,0.17l0,0
			c0.33,0.14,0.58,0.36,0.7,0.67c0.05,0.14,0.08,0.29,0.08,0.45l0,0c0,0.14-0.01,0.27-0.04,0.39c-0.13,0.52-0.53,0.79-1.09,0.9l0,0
			c-0.47,0.09-1.05,0.05-1.66-0.05c-1.1-0.19-2.33-0.6-3.11-0.91l-0.88-0.34L40.17,16.92z M27.85,16.92
			c1.37-0.52,2.95-0.95,4.09-0.95c0.4,0,0.75,0.05,1.04,0.17l0,0c0.33,0.14,0.58,0.36,0.7,0.67c0.05,0.14,0.08,0.29,0.08,0.45l0,0
			c0,0.14-0.01,0.27-0.04,0.39c-0.13,0.52-0.53,0.79-1.09,0.9l0,0c-0.47,0.09-1.05,0.05-1.66-0.05c-1.1-0.19-2.33-0.6-3.11-0.91
			l-0.87-0.34L27.85,16.92z M15.53,16.92c1.37-0.52,2.95-0.95,4.09-0.95c0.4,0,0.75,0.05,1.04,0.17l0,0
			c0.33,0.14,0.58,0.36,0.7,0.67c0.05,0.14,0.08,0.29,0.08,0.45l0,0c0,0.14-0.01,0.27-0.04,0.39c-0.13,0.52-0.53,0.79-1.09,0.9
			c-0.47,0.09-1.05,0.05-1.66-0.05c-1.1-0.19-2.33-0.6-3.11-0.91l-0.87-0.34L15.53,16.92z M48.05,20c0,0,0,13.04,0,21.78h-2.64
			c0.02-0.07,0.06-0.19,0.11-0.33c0.31-0.92,0.92-2.76,0.24-3.2l0,0c-0.48-0.31-0.87-0.5-1.16-0.65c-0.23-0.12-0.35-0.03-0.35-0.1
			c0-0.05,0.24-0.11,0.78-0.48l0,0c0.14-0.1,0.3-0.2,0.54-0.38l0.03-0.02l0.02-0.02c0.55-0.58,0.28-1.3,0.09-1.77
			c-0.02-0.04-0.03-0.08-0.05-0.14c-0.11-0.31-0.03-0.7,0.05-1.04c0.05-0.22,0.09-0.43,0.09-0.63c0-0.52-0.22-0.86-1.06-0.86
			c-0.99,0-1.27,0.5-1.27,1.2c0,0.33,0.08,0.7,0.16,1.08c0.13,0.63,0.27,1.27-0.08,1.43c-0.22,0.04-0.28-0.23-0.35-0.57
			c-0.12-0.61-0.27-1.34-1-1.78c2.44-1.86,2.01-3.14,1.58-4.43c-0.19-0.56-0.38-1.13-0.23-1.72l0.11-0.45h-0.47
			c-0.25,0-0.63,0.2-1.14,0.47c-0.71,0.37-1.69,0.88-2.65,1.1l-0.28,0.06v0.29v1.2v0.31l0.3,0.05c0,0,0.68,0.11,0.68,0.39l0,0
			c0,0.02-0.37,0-0.37,0h-0.02h-1.5l0,0c-0.33,0-0.45,0.18-0.59,0.38c-0.08,0.12-0.19,0.26-0.55,0.17
			c-0.32-0.08-0.33-0.19-0.34-0.31c-0.02-0.2-0.05-0.4-0.24-0.63c-0.19-0.22-0.47-0.33-0.75-0.34c-0.16-0.01-0.32,0.01-0.46,0.05
			c-0.15,0.04-0.3,0.12-0.41,0.21l0,0c-0.1,0.08-0.17,0.18-0.21,0.29v-2.77l1.05-1.2l0.09-0.1v-0.13v-3.2v-0.36h-0.36h-1.76h-0.36
			v0.36v1.11H32v-1.13v-0.36h-0.36h-2.08H29.2v0.36v1.15h-1.08v-1.13v-0.36h-0.36h-1.82h-0.36v0.36v3.2v0.12l0.07,0.1l0.89,1.21
			v2.59c-0.03-0.03-0.06-0.06-0.09-0.09l0,0c-0.11-0.09-0.25-0.17-0.41-0.21c-0.14-0.04-0.3-0.06-0.46-0.05
			c-0.28,0.02-0.56,0.12-0.75,0.34c-0.19,0.23-0.22,0.44-0.24,0.63c-0.01,0.12-0.03,0.23-0.34,0.31c-0.37,0.09-0.48-0.06-0.57-0.18
			c-0.14-0.2-0.26-0.36-0.57-0.37H23.1h-1.5h-0.02c0,0-0.37,0.02-0.37,0l0,0c0-0.28,0.68-0.39,0.68-0.39l0.3-0.05v-0.31v-1.2v-0.29
			l-0.28-0.06c-0.97-0.22-1.98-0.75-2.7-1.12c-0.5-0.26-0.87-0.45-1.1-0.45l-0.45,0.01l0.11,0.43c0.15,0.6-0.04,1.16-0.23,1.72
			c-0.43,1.29-0.86,2.57,1.58,4.43c-0.72,0.43-0.87,1.17-1,1.78c-0.07,0.34-0.12,0.61-0.35,0.57c-0.34-0.16-0.21-0.8-0.08-1.43
			c0.08-0.37,0.16-0.75,0.16-1.08c0-0.7-0.27-1.2-1.27-1.2c-0.84,0-1.06,0.34-1.06,0.86c0,0.19,0.04,0.4,0.09,0.63
			c0.07,0.34,0.16,0.73,0.05,1.04c-0.02,0.06-0.04,0.1-0.05,0.14c-0.18,0.47-0.46,1.19,0.09,1.77l0.02,0.02l0.03,0.02
			c0.24,0.17,0.4,0.28,0.54,0.38l0,0c0.54,0.37,0.79,0.43,0.78,0.48c-0.01,0.08-0.12-0.01-0.35,0.1c-0.29,0.14-0.68,0.34-1.16,0.65
			l0,0c-0.68,0.44-0.06,2.29,0.24,3.2c0.05,0.14,0.09,0.26,0.11,0.33h-2.63V20H48.05z M11.84,47.13c-0.14,0.33-0.36,0.58-0.68,0.7
			c-0.14,0.05-0.29,0.08-0.45,0.08l0,0c-0.14,0-0.27-0.01-0.38-0.04c-0.52-0.13-0.79-0.53-0.9-1.09c-0.09-0.47-0.05-1.05,0.05-1.67
			c0.19-1.11,0.6-2.33,0.91-3.12l0.34-0.87L11.06,42c0.52,1.37,0.94,2.96,0.94,4.1C12.01,46.49,11.96,46.85,11.84,47.13z
			 M11.84,32.01c-0.14,0.33-0.36,0.58-0.68,0.7c-0.14,0.05-0.29,0.08-0.45,0.08l0,0c-0.14,0-0.27-0.01-0.38-0.04
			c-0.52-0.13-0.79-0.53-0.9-1.09c-0.09-0.47-0.05-1.05,0.05-1.67c0.19-1.11,0.6-2.33,0.91-3.12L10.73,26l0.33,0.88
			c0.52,1.37,0.94,2.96,0.94,4.1C12.01,31.37,11.96,31.72,11.84,32.01z M19.07,59.29c-0.05,0.14-0.12,0.25-0.2,0.35
			c-0.33,0.42-0.81,0.51-1.36,0.38c-0.46-0.11-0.98-0.38-1.5-0.72c-0.93-0.62-1.88-1.5-2.48-2.1l-0.65-0.67l0.93,0.05
			c1.46,0.08,3.07,0.34,4.11,0.8c0.37,0.16,0.67,0.35,0.88,0.58c0.25,0.26,0.38,0.56,0.36,0.9C19.17,59,19.14,59.14,19.07,59.29
			L19.07,59.29z M26.78,58.6l1.45-7.8l0,0h0.01l1.05-5.56h2.81l0.83,5.13h-0.02l0.07,0.42l1.32,7.83c-1.14,0.12-2.35,0.18-3.63,0.18
			C29.3,58.81,28,58.74,26.78,58.6z M33.52,61.81c-0.79,0.31-2.01,0.73-3.11,0.91c-0.62,0.1-1.2,0.14-1.66,0.05l0,0
			c-0.56-0.11-0.96-0.38-1.09-0.9c-0.03-0.12-0.04-0.25-0.04-0.39l0,0c0-0.17,0.03-0.32,0.08-0.45c0.12-0.32,0.36-0.54,0.7-0.67l0,0
			c0.29-0.12,0.64-0.17,1.04-0.17c1.14,0,2.72,0.43,4.09,0.95l0.87,0.33L33.52,61.81z M47.83,57.25c-0.59,0.61-1.55,1.48-2.48,2.1
			c-0.52,0.35-1.04,0.61-1.5,0.72c-0.55,0.13-1.03,0.04-1.36-0.38c-0.08-0.1-0.14-0.22-0.2-0.35l0,0c-0.06-0.15-0.1-0.29-0.11-0.43
			c-0.02-0.34,0.11-0.64,0.36-0.9c0.21-0.22,0.52-0.41,0.88-0.58c1.04-0.46,2.66-0.72,4.11-0.8l0.93-0.05L47.83,57.25z M51.82,47.13
			c-0.14,0.33-0.36,0.58-0.68,0.7c-0.14,0.05-0.29,0.08-0.45,0.08l0,0c-0.14,0-0.27-0.01-0.38-0.04c-0.52-0.13-0.79-0.53-0.9-1.09
			l0,0c-0.09-0.47-0.05-1.05,0.05-1.67c0.19-1.11,0.6-2.33,0.91-3.12l0.34-0.87L51.04,42c0.52,1.37,0.94,2.96,0.94,4.1
			C51.99,46.49,51.93,46.85,51.82,47.13z M51.82,32.01c-0.14,0.33-0.36,0.58-0.68,0.7c-0.14,0.05-0.29,0.08-0.45,0.08l0,0
			c-0.14,0-0.27-0.01-0.38-0.04c-0.52-0.13-0.79-0.53-0.9-1.09l0,0c-0.09-0.47-0.05-1.05,0.05-1.67c0.19-1.11,0.6-2.33,0.91-3.12
			L50.71,26l0.33,0.88c0.52,1.37,0.94,2.96,0.94,4.1C51.99,31.37,51.93,31.72,51.82,32.01z"/>
		<path id="XMLID_2_" class="st1" d="M50.17,45.23c-0.09,0.54-0.12,1.04-0.05,1.41l0,0c0.05,0.28,0.17,0.47,0.36,0.52
			c0.06,0.01,0.12,0.02,0.19,0.02h0.02c0.08,0,0.14-0.01,0.2-0.03c0.12-0.04,0.2-0.15,0.26-0.29c0.08-0.19,0.11-0.46,0.11-0.77
			c0-0.8-0.23-1.85-0.56-2.89C50.49,43.84,50.28,44.56,50.17,45.23z"/>
	</g>
	<g>
		<path class="st1" d="M136.14,33.07v-0.02c0-2.21,1.63-4.18,4.05-4.18c1.36,0,2.2,0.39,3.01,1.07l-0.59,0.69
			c-0.62-0.54-1.31-0.92-2.46-0.92c-1.79,0-3.07,1.51-3.07,3.31v0.02c0,1.93,1.23,3.36,3.2,3.36c0.92,0,1.78-0.36,2.33-0.81v-2.01
			h-2.46v-0.82h3.33v3.22c-0.75,0.67-1.88,1.23-3.24,1.23C137.71,37.23,136.14,35.38,136.14,33.07z"/>
		<path class="st1" d="M146.43,33.07v-0.02c0-2.23,1.67-4.18,4.13-4.18s4.11,1.93,4.11,4.15v0.02c0,2.23-1.67,4.18-4.13,4.18
			S146.43,35.3,146.43,33.07z M153.72,33.07v-0.02c0-1.83-1.34-3.33-3.18-3.33s-3.16,1.48-3.16,3.31v0.02
			c0,1.83,1.34,3.33,3.18,3.33S153.72,34.91,153.72,33.07z"/>
		<path class="st1" d="M157.84,29.01h3.44c0.92,0,1.65,0.27,2.11,0.71c0.33,0.35,0.52,0.77,0.52,1.29v0.02
			c0,1.05-0.65,1.59-1.28,1.87c0.96,0.29,1.73,0.84,1.73,1.95v0.02c0,1.38-1.17,2.2-2.93,2.2h-3.59L157.84,29.01L157.84,29.01z
			 M162.99,31.15c0-0.8-0.63-1.32-1.79-1.32h-2.46v2.78h2.39c1.1,0,1.86-0.5,1.86-1.44V31.15z M161.29,33.42h-2.55v2.85h2.71
			c1.22,0,1.98-0.54,1.98-1.44v-0.02C163.44,33.93,162.7,33.42,161.29,33.42z"/>
		<path class="st1" d="M167.5,29.01h0.91v8.07h-0.91V29.01z"/>
		<path class="st1" d="M172.02,29.01h5.84v0.83h-4.93v2.76h4.41v0.83h-4.41v2.83h4.98v0.83h-5.89V29.01z"/>
		<path class="st1" d="M181,29.01h3.47c0.99,0,1.79,0.3,2.3,0.81c0.39,0.39,0.62,0.96,0.62,1.59v0.02c0,1.34-0.92,2.12-2.19,2.35
			l2.48,3.3h-1.12l-2.34-3.14h-2.31v3.14H181V29.01z M184.39,33.13c1.21,0,2.08-0.62,2.08-1.66v-0.02c0-0.99-0.76-1.59-2.06-1.59
			h-2.49v3.28h2.47V33.13z"/>
		<path class="st1" d="M190.59,29.01h0.85l5.09,6.47v-6.47h0.89v8.07h-0.73l-5.21-6.62v6.62h-0.89V29.01z"/>
		<path class="st1" d="M200.59,33.07v-0.02c0-2.23,1.67-4.18,4.13-4.18s4.11,1.93,4.11,4.15v0.02c0,2.23-1.67,4.18-4.13,4.18
			C202.24,37.23,200.59,35.3,200.59,33.07z M207.88,33.07v-0.02c0-1.83-1.34-3.33-3.18-3.33c-1.85,0-3.16,1.48-3.16,3.31v0.02
			c0,1.83,1.34,3.33,3.18,3.33S207.88,34.91,207.88,33.07z"/>
		<path class="st1" d="M216.71,29.01h2.8c2.54,0,4.29,1.74,4.29,4.01v0.02c0,2.27-1.75,4.04-4.29,4.04h-2.8V29.01z M217.62,29.85
			v6.39h1.89c2.04,0,3.34-1.38,3.34-3.17v-0.02c0-1.79-1.3-3.2-3.34-3.2C219.51,29.85,217.62,29.85,217.62,29.85z"/>
		<path class="st1" d="M226.97,29.01h5.84v0.83h-4.93v2.76h4.41v0.83h-4.41v2.83h4.98v0.83h-5.9L226.97,29.01L226.97,29.01z"/>
		<path class="st1" d="M240.66,29.01h0.91v7.23h4.54v0.84h-5.46L240.66,29.01L240.66,29.01z"/>
		<path class="st1" d="M252.03,28.95h0.85l3.68,8.13h-0.98l-0.95-2.13h-4.4l-0.96,2.13h-0.93L252.03,28.95z M254.28,34.12
			l-1.83-4.11l-1.85,4.11H254.28z"/>
		<path class="st1" d="M135.97,46.92V46.9c0-2.3,1.73-4.18,4.21-4.18c1.52,0,2.43,0.51,3.18,1.25l-1.13,1.3
			c-0.62-0.57-1.26-0.91-2.07-0.91c-1.36,0-2.34,1.13-2.34,2.51v0.02c0,1.38,0.96,2.54,2.34,2.54c0.92,0,1.49-0.37,2.12-0.95
			l1.13,1.14c-0.83,0.89-1.75,1.44-3.31,1.44C137.73,51.07,135.97,49.24,135.97,46.92z"/>
		<path class="st1" d="M145.27,42.86h1.78v8.08h-1.78V42.86z"/>
		<path class="st1" d="M149.28,47.47v-4.61h1.78v4.57c0,1.31,0.66,2,1.74,2s1.74-0.66,1.74-1.94v-4.63h1.78v4.56
			c0,2.45-1.37,3.65-3.54,3.65C150.61,51.06,149.28,49.85,149.28,47.47z"/>
		<path class="st1" d="M158.48,42.86h3.15c2.54,0,4.29,1.74,4.29,4.01v0.02c0,2.27-1.75,4.04-4.29,4.04h-3.15V42.86z M161.63,49.33
			c1.45,0,2.43-0.98,2.43-2.41V46.9c0-1.43-0.98-2.43-2.43-2.43h-1.37v4.87h1.37V49.33z"/>
		<path class="st1" d="M170.04,42.8h1.64l3.46,8.13h-1.86l-0.74-1.81h-3.41l-0.74,1.81h-1.81L170.04,42.8z M171.91,47.55l-1.07-2.62
			l-1.07,2.62H171.91z"/>
		<path class="st1" d="M176.73,42.86h3.15c2.54,0,4.29,1.74,4.29,4.01v0.02c0,2.27-1.75,4.04-4.29,4.04h-3.15V42.86z M179.88,49.33
			c1.45,0,2.43-0.98,2.43-2.41V46.9c0-1.43-0.98-2.43-2.43-2.43h-1.37v4.87h1.37V49.33z"/>
		<path class="st1" d="M189.91,42.86h3.15c2.54,0,4.29,1.74,4.29,4.01v0.02c0,2.27-1.75,4.04-4.29,4.04h-3.15V42.86z M193.05,49.33
			c1.45,0,2.43-0.98,2.43-2.41V46.9c0-1.43-0.98-2.43-2.43-2.43h-1.37v4.87h1.37V49.33z"/>
		<path class="st1" d="M199.27,42.86h6.09v1.58h-4.33v1.64h3.81v1.58h-3.81v1.7h4.38v1.58h-6.15L199.27,42.86L199.27,42.86z"/>
		<path class="st1" d="M211.16,42.86h1.91l2.12,3.42l2.12-3.42h1.92v8.08h-1.76v-5.27l-2.27,3.45h-0.05l-2.25-3.41v5.24h-1.74V42.86
			z"/>
		<path class="st1" d="M221.52,42.86h6.09v1.58h-4.33v1.64h3.81v1.58h-3.81v1.7h4.38v1.58h-6.15L221.52,42.86L221.52,42.86z
			 M224.9,40.18l1.51,0.66l-1.48,1.38h-1.34L224.9,40.18z"/>
		<path class="st1" d="M231.8,46.83l-2.7-3.97h2.08l1.7,2.62l1.71-2.62h2.02l-2.7,3.95l2.82,4.13h-2.08l-1.81-2.77L231,50.93h-2.02
			L231.8,46.83z"/>
		<path class="st1" d="M238.47,42.86h1.78v8.08h-1.78V42.86z"/>
		<path class="st1" d="M242.25,46.92V46.9c0-2.3,1.73-4.18,4.21-4.18c1.52,0,2.43,0.51,3.18,1.25l-1.13,1.3
			c-0.62-0.57-1.26-0.91-2.06-0.91c-1.36,0-2.34,1.13-2.34,2.51v0.02c0,1.38,0.96,2.54,2.34,2.54c0.92,0,1.49-0.37,2.12-0.95
			l1.13,1.14c-0.83,0.89-1.75,1.44-3.31,1.44C244.02,51.07,242.25,49.24,242.25,46.92z"/>
		<path class="st1" d="M250.88,46.92V46.9c0-2.3,1.81-4.18,4.3-4.18s4.28,1.86,4.28,4.15v0.02c0,2.3-1.81,4.18-4.3,4.18
			S250.88,49.21,250.88,46.92z M257.61,46.92V46.9c0-1.38-1.02-2.54-2.45-2.54c-1.43,0-2.42,1.13-2.42,2.51v0.02
			c0,1.38,1.01,2.54,2.45,2.54C256.62,49.43,257.61,48.3,257.61,46.92z"/>
	</g>
	<g>
		<g>
			<path class="st1" d="M283.73,35.91l1.05-1.26c0.73,0.6,1.49,0.98,2.42,0.98c0.73,0,1.17-0.29,1.17-0.76v-0.02
				c0-0.45-0.28-0.68-1.63-1.03c-1.63-0.42-2.68-0.87-2.68-2.48v-0.02c0-1.47,1.18-2.44,2.83-2.44c1.18,0,2.19,0.37,3.01,1.03
				l-0.92,1.34c-0.72-0.5-1.42-0.8-2.11-0.8c-0.68,0-1.04,0.31-1.04,0.71v0.02c0,0.53,0.35,0.71,1.75,1.06
				c1.64,0.43,2.57,1.02,2.57,2.43v0.02c0,1.61-1.23,2.51-2.97,2.51C285.94,37.2,284.7,36.78,283.73,35.91z"/>
			<path class="st1" d="M292.04,28.99h6.11v1.58h-4.34v1.64h3.82v1.58h-3.82v1.7h4.4v1.58h-6.17L292.04,28.99L292.04,28.99z"/>
			<path class="st1" d="M299.78,33.06v-0.02c0-2.3,1.73-4.19,4.22-4.19c1.53,0,2.44,0.51,3.19,1.25l-1.13,1.31
				c-0.63-0.57-1.26-0.91-2.07-0.91c-1.37,0-2.35,1.13-2.35,2.52v0.02c0,1.39,0.96,2.54,2.35,2.54c0.92,0,1.49-0.37,2.13-0.95
				l1.13,1.15c-0.83,0.89-1.76,1.45-3.32,1.45C301.55,37.23,299.78,35.39,299.78,33.06z"/>
			<path class="st1" d="M309.02,28.99h3.7c1.03,0,1.83,0.29,2.36,0.82c0.45,0.45,0.69,1.09,0.69,1.85v0.02
				c0,1.31-0.71,2.13-1.74,2.51l1.98,2.89h-2.08l-1.73-2.59h-0.02h-1.38v2.59h-1.78L309.02,28.99L309.02,28.99z M312.6,32.92
				c0.87,0,1.37-0.46,1.37-1.14v-0.02c0-0.76-0.53-1.16-1.4-1.16h-1.77v2.32H312.6z"/>
			<path class="st1" d="M317.73,28.99h6.11v1.58h-4.34v1.64h3.82v1.58h-3.82v1.7h4.4v1.58h-6.16L317.73,28.99L317.73,28.99z"/>
			<path class="st1" d="M327.71,30.63h-2.46v-1.64h6.71v1.64h-2.46v6.45h-1.78v-6.45H327.71z"/>
			<path class="st1" d="M335.41,28.93h1.64l3.47,8.15h-1.86l-0.74-1.82h-3.42l-0.74,1.82h-1.82L335.41,28.93z M337.28,33.7
				l-1.08-2.63l-1.08,2.63H337.28z"/>
			<path class="st1" d="M342.12,28.99h3.7c1.03,0,1.83,0.29,2.36,0.82c0.45,0.45,0.69,1.09,0.69,1.85v0.02
				c0,1.31-0.71,2.13-1.74,2.51l1.98,2.89h-2.08l-1.73-2.59h-0.02h-1.38v2.59h-1.78L342.12,28.99L342.12,28.99z M345.7,32.92
				c0.87,0,1.37-0.46,1.37-1.14v-0.02c0-0.76-0.53-1.16-1.4-1.16h-1.77v2.32H345.7z"/>
			<path class="st1" d="M350.91,28.99h1.78v8.1h-1.78V28.99z M352.36,26.31l1.52,0.66l-1.48,1.39h-1.34L352.36,26.31z"/>
			<path class="st1" d="M357.83,28.93h1.64l3.47,8.15h-1.86l-0.74-1.82h-3.42l-0.74,1.82h-1.82L357.83,28.93z M359.71,33.7
				l-1.08-2.63l-1.08,2.63H359.71z"/>
			<path class="st1" d="M368.36,28.99h3.16c2.54,0,4.3,1.75,4.3,4.02v0.02c0,2.28-1.76,4.05-4.3,4.05h-3.16V28.99z M371.52,35.48
				c1.46,0,2.44-0.98,2.44-2.42v-0.02c0-1.43-0.98-2.44-2.44-2.44h-1.38v4.88H371.52z"/>
			<path class="st1" d="M377.76,28.99h6.11v1.58h-4.34v1.64h3.82v1.58h-3.82v1.7h4.4v1.58h-6.17L377.76,28.99L377.76,28.99z"/>
			<path class="st1" d="M385.85,28.99h1.78v6.48h4.04v1.62h-5.82V28.99z"/>
			<path class="st1" d="M284.29,42.87h1.92l2.13,3.42l2.13-3.42h1.92v8.1h-1.77v-5.29l-2.28,3.46h-0.05l-2.26-3.42v5.25h-1.75
				L284.29,42.87L284.29,42.87z"/>
			<path class="st1" d="M294.67,42.87h6.11v1.58h-4.34v1.64h3.82v1.58h-3.82v1.7h4.4v1.58h-6.17L294.67,42.87L294.67,42.87z"/>
			<path class="st1" d="M302.77,42.87h3.16c2.54,0,4.3,1.75,4.3,4.02v0.02c0,2.28-1.76,4.05-4.3,4.05h-3.16V42.87z M305.93,49.36
				c1.46,0,2.44-0.98,2.44-2.42v-0.02c0-1.43-0.98-2.44-2.44-2.44h-1.38v4.88H305.93z"/>
			<path class="st1" d="M312.25,42.87h1.78v8.1h-1.78V42.87z"/>
			<path class="st1" d="M316.04,46.94v-0.02c0-2.3,1.82-4.19,4.31-4.19c2.5,0,4.29,1.86,4.29,4.16v0.02c0,2.3-1.82,4.19-4.31,4.19
				C317.83,51.11,316.04,49.25,316.04,46.94z M322.78,46.94v-0.02c0-1.39-1.02-2.54-2.45-2.54c-1.43,0-2.43,1.13-2.43,2.52v0.02
				c0,1.39,1.02,2.54,2.45,2.54C321.79,49.47,322.78,48.33,322.78,46.94z"/>
			<path class="st1" d="M333.17,42.82h1.64l3.47,8.15h-1.86l-0.74-1.82h-3.42l-0.74,1.82h-1.82L333.17,42.82z M335.05,47.58
				l-1.08-2.63l-1.08,2.63H335.05z"/>
			<path class="st1" d="M339.88,42.87h1.92l2.13,3.42l2.13-3.42h1.92v8.1h-1.77v-5.29l-2.28,3.46h-0.05l-2.26-3.42v5.25h-1.75
				L339.88,42.87L339.88,42.87z"/>
			<path class="st1" d="M350.27,42.87h3.76c0.93,0,1.65,0.25,2.12,0.72c0.37,0.37,0.55,0.82,0.55,1.38v0.02
				c0,0.91-0.49,1.42-1.06,1.75c0.94,0.36,1.52,0.9,1.52,1.99v0.02c0,1.48-1.2,2.22-3.03,2.22h-3.85L350.27,42.87L350.27,42.87z
				 M353.65,46.15c0.79,0,1.28-0.25,1.28-0.86v-0.02c0-0.53-0.42-0.83-1.17-0.83H352v1.71H353.65z M354.12,49.41
				c0.79,0,1.26-0.28,1.26-0.88v-0.02c0-0.54-0.41-0.88-1.32-0.88H352v1.78C352,49.41,354.12,49.41,354.12,49.41z"/>
			<path class="st1" d="M359.05,42.87h1.78v8.1h-1.78V42.87z"/>
			<path class="st1" d="M363.2,42.87h6.11v1.58h-4.34v1.64h3.82v1.58h-3.82v1.7h4.4v1.58h-6.17L363.2,42.87L363.2,42.87z"/>
			<path class="st1" d="M371.3,42.87h1.64l3.79,4.98v-4.98h1.76v8.1h-1.52l-3.92-5.15v5.15h-1.76L371.3,42.87L371.3,42.87z"/>
			<path class="st1" d="M382.67,44.52h-2.46v-1.64h6.71v1.64h-2.46v6.45h-1.78v-6.45H382.67z"/>
			<path class="st1" d="M388.63,42.87h6.11v1.58h-4.34v1.64h3.82v1.58h-3.82v1.7h4.4v1.58h-6.17L388.63,42.87L388.63,42.87z"/>
		</g>
	</g>
	<g>
		<rect x="271.35" y="18.09" class="st1" width="0.68" height="45.8"/>
	</g>
</g>
</svg>
